SplineFontDB: 3.2
FontName: AtlantisInternational
FullName: Atlantis International
FamilyName: Atlantis International
Weight: Book
Copyright: Copyright (c) 2018, Heaven Castro.
Version: 001.000
ItalicAngle: 0
UnderlinePosition: -150
UnderlineWidth: 50
Ascent: 800
Descent: 200
InvalidEm: 0
sfntRevision: 0x00010000
LayerCount: 2
Layer: 0 1 "Back" 1
Layer: 1 1 "Fore" 0
XUID: [1021 7 -1893790127 9361915]
StyleMap: 0x0040
FSType: 0
OS2Version: 4
OS2_WeightWidthSlopeOnly: 0
OS2_UseTypoMetrics: 1
CreationTime: 1543336501
ModificationTime: 1605419032
PfmFamily: 17
TTFWeight: 400
TTFWidth: 5
LineGap: 90
VLineGap: 0
Panose: 2 0 5 3 0 0 0 0 0 0
OS2TypoAscent: 800
OS2TypoAOffset: 0
OS2TypoDescent: -200
OS2TypoDOffset: 0
OS2TypoLinegap: 90
OS2WinAscent: 682
OS2WinAOffset: 0
OS2WinDescent: 128
OS2WinDOffset: 0
HheadAscent: 682
HheadAOffset: 0
HheadDescent: -128
HheadDOffset: 0
OS2SubXSize: 650
OS2SubYSize: 699
OS2SubXOff: 0
OS2SubYOff: 140
OS2SupXSize: 650
OS2SupYSize: 699
OS2SupXOff: 0
OS2SupYOff: 479
OS2StrikeYSize: 49
OS2StrikeYPos: 258
OS2CapHeight: 448
OS2XHeight: 320
OS2FamilyClass: 2048
OS2Vendor: 'PfEd'
OS2CodePages: 00000001.00000000
OS2UnicodeRanges: 8000002f.4000000a.00000000.00000000
Lookup: 4 0 1 "'liga' Standard Ligatures in Latin lookup 0" { "'liga' Standard Ligatures in Latin lookup 0 subtable"  } ['liga' ('DFLT' <'dflt' > 'latn' <'dflt' > ) ]
MarkAttachClasses: 1
DEI: 91125
ShortTable: maxp 16
  1
  0
  230
  90
  13
  0
  0
  2
  0
  1
  1
  0
  64
  0
  0
  0
EndShort
LangName: 1033 "" "" "Regular" "FontForge 2.0 : Atlantis International : 28-11-2018"
GaspTable: 1 65535 2 0
Encoding: UnicodeBmp
UnicodeInterp: none
NameList: AGL For New Fonts
DisplaySize: -48
AntiAlias: 1
FitToEm: 0
WinInfo: 38 38 13
Grid
256.5 1300 m 0
 256.5 -700 l 1024
EndSplineSet
BeginChars: 65539 242

StartChar: .notdef
Encoding: 65536 -1 0
Width: 374
Flags: W
LayerCount: 2
Fore
SplineSet
34 0 m 1,0,-1
 34 682 l 1,1,-1
 306 682 l 1,2,-1
 306 0 l 1,3,-1
 34 0 l 1,0,-1
68 34 m 1,4,-1
 272 34 l 1,5,-1
 272 648 l 1,6,-1
 68 648 l 1,7,-1
 68 34 l 1,4,-1
EndSplineSet
Validated: 1
EndChar

StartChar: exclam
Encoding: 33 33 4
Width: 128
GlyphClass: 2
Flags: W
LayerCount: 2
Fore
SplineSet
0 0 m 1,0,-1
 0 64 l 1,1,-1
 64 64 l 1,2,-1
 64 0 l 1,3,-1
 0 0 l 1,0,-1
0 128 m 1,4,-1
 0 192 l 1,5,-1
 0 256 l 1,6,-1
 0 320 l 1,7,-1
 0 384 l 1,8,-1
 0 448 l 1,9,-1
 64 448 l 1,10,-1
 64 384 l 1,11,-1
 64 320 l 1,12,-1
 64 256 l 1,13,-1
 64 192 l 1,14,-1
 64 128 l 1,15,-1
 0 128 l 1,4,-1
EndSplineSet
Validated: 1
EndChar

StartChar: quotedbl
Encoding: 34 34 5
Width: 256
GlyphClass: 2
Flags: W
LayerCount: 2
Fore
SplineSet
128 320 m 1,0,-1
 128 384 l 1,1,-1
 128 448 l 1,2,-1
 128 512 l 1,3,-1
 192 512 l 1,4,-1
 192 448 l 1,5,-1
 192 384 l 1,6,-1
 192 320 l 1,7,-1
 128 320 l 1,0,-1
0 320 m 1,8,-1
 0 384 l 1,9,-1
 0 448 l 1,10,-1
 0 512 l 1,11,-1
 64 512 l 1,12,-1
 64 448 l 1,13,-1
 64 384 l 1,14,-1
 64 320 l 1,15,-1
 0 320 l 1,8,-1
EndSplineSet
Validated: 1
EndChar

StartChar: numbersign
Encoding: 35 35 6
Width: 448
GlyphClass: 2
Flags: W
LayerCount: 2
Fore
SplineSet
192 0 m 1,0,-1
 192 64 l 1,1,-1
 192 128 l 1,2,-1
 128 128 l 1,3,-1
 128 64 l 1,4,-1
 128 0 l 1,5,-1
 64 0 l 1,6,-1
 64 64 l 1,7,-1
 64 128 l 1,8,-1
 0 128 l 1,9,-1
 0 192 l 1,10,-1
 64 192 l 1,11,-1
 64 256 l 1,12,-1
 64 320 l 1,13,-1
 0 320 l 1,14,-1
 0 384 l 1,15,-1
 64 384 l 1,16,-1
 128 384 l 1,17,-1
 128 448 l 1,18,-1
 128 512 l 1,19,-1
 192 512 l 1,20,-1
 192 448 l 1,21,-1
 192 384 l 1,22,-1
 256 384 l 1,23,-1
 256 448 l 1,24,-1
 256 512 l 1,25,-1
 320 512 l 1,26,-1
 320 448 l 1,27,-1
 320 384 l 1,28,-1
 384 384 l 1,29,-1
 384 320 l 1,30,-1
 320 320 l 1,31,-1
 256 320 l 1,32,-1
 256 256 l 1,33,-1
 256 192 l 1,34,-1
 320 192 l 1,35,-1
 384 192 l 1,36,-1
 384 128 l 1,37,-1
 320 128 l 1,38,-1
 256 128 l 1,39,-1
 256 64 l 1,40,-1
 256 0 l 1,41,-1
 192 0 l 1,0,-1
192 192 m 1,42,-1
 192 256 l 1,43,-1
 192 320 l 1,44,-1
 128 320 l 1,45,-1
 128 256 l 1,46,-1
 128 192 l 1,47,-1
 192 192 l 1,42,-1
EndSplineSet
Validated: 1
EndChar

StartChar: dollar
Encoding: 36 36 7
Width: 384
GlyphClass: 2
Flags: W
LayerCount: 2
Fore
SplineSet
128 -64 m 1,0,-1
 128 0 l 1,1,-1
 64 0 l 1,2,-1
 64 64 l 1,3,-1
 128 64 l 1,4,-1
 128 128 l 1,5,-1
 128 192 l 1,6,-1
 64 192 l 1,7,-1
 64 256 l 1,8,-1
 0 256 l 1,9,-1
 0 320 l 1,10,-1
 0 384 l 1,11,-1
 64 384 l 1,12,-1
 64 448 l 1,13,-1
 128 448 l 1,14,-1
 128 512 l 1,15,-1
 192 512 l 1,16,-1
 192 448 l 1,17,-1
 256 448 l 1,18,-1
 256 384 l 1,19,-1
 320 384 l 1,20,-1
 320 320 l 1,21,-1
 256 320 l 1,22,-1
 256 384 l 1,23,-1
 192 384 l 1,24,-1
 192 320 l 1,25,-1
 192 256 l 1,26,-1
 256 256 l 1,27,-1
 256 192 l 1,28,-1
 320 192 l 1,29,-1
 320 128 l 1,30,-1
 320 64 l 1,31,-1
 256 64 l 1,32,-1
 256 128 l 1,33,-1
 256 192 l 1,34,-1
 192 192 l 1,35,-1
 192 128 l 1,36,-1
 192 64 l 1,37,-1
 256 64 l 1,38,-1
 256 0 l 1,39,-1
 192 0 l 1,40,-1
 192 -64 l 1,41,-1
 128 -64 l 1,0,-1
64 64 m 1,42,-1
 0 64 l 1,43,-1
 0 128 l 1,44,-1
 64 128 l 1,45,-1
 64 64 l 1,42,-1
128 256 m 1,46,-1
 128 320 l 1,47,-1
 128 384 l 1,48,-1
 64 384 l 1,49,-1
 64 320 l 1,50,-1
 64 256 l 1,51,-1
 128 256 l 1,46,-1
EndSplineSet
Validated: 5
EndChar

StartChar: percent
Encoding: 37 37 8
Width: 576
GlyphClass: 2
Flags: W
LayerCount: 2
Fore
SplineSet
128 0 m 1,0,-1
 128 64 l 1,1,-1
 128 128 l 1,2,-1
 192 128 l 1,3,-1
 192 64 l 1,4,-1
 192 0 l 1,5,-1
 128 0 l 1,0,-1
448 64 m 1,6,-1
 384 64 l 1,7,-1
 320 64 l 1,8,-1
 320 128 l 1,9,-1
 320 192 l 1,10,-1
 320 256 l 1,11,-1
 384 256 l 1,12,-1
 448 256 l 1,13,-1
 512 256 l 1,14,-1
 512 192 l 1,15,-1
 512 128 l 1,16,-1
 512 64 l 1,17,-1
 448 64 l 1,6,-1
448 128 m 1,18,-1
 448 192 l 1,19,-1
 384 192 l 1,20,-1
 384 128 l 1,21,-1
 448 128 l 1,18,-1
192 128 m 1,22,-1
 192 192 l 1,23,-1
 192 256 l 1,24,-1
 256 256 l 1,25,-1
 256 192 l 1,26,-1
 256 128 l 1,27,-1
 192 128 l 1,22,-1
320 256 m 1,28,-1
 256 256 l 1,29,-1
 256 320 l 1,30,-1
 256 384 l 1,31,-1
 320 384 l 1,32,-1
 320 320 l 1,33,-1
 320 256 l 1,28,-1
192 256 m 1,34,-1
 128 256 l 1,35,-1
 64 256 l 1,36,-1
 0 256 l 1,37,-1
 0 320 l 1,38,-1
 0 384 l 1,39,-1
 0 448 l 1,40,-1
 64 448 l 1,41,-1
 128 448 l 1,42,-1
 192 448 l 1,43,-1
 192 384 l 1,44,-1
 192 320 l 1,45,-1
 192 256 l 1,34,-1
128 320 m 1,46,-1
 128 384 l 1,47,-1
 64 384 l 1,48,-1
 64 320 l 1,49,-1
 128 320 l 1,46,-1
320 384 m 1,50,-1
 320 448 l 1,51,-1
 384 448 l 1,52,-1
 384 384 l 1,53,-1
 320 384 l 1,50,-1
EndSplineSet
Validated: 5
EndChar

StartChar: ampersand
Encoding: 38 38 9
Width: 512
GlyphClass: 2
Flags: W
LayerCount: 2
Fore
SplineSet
384 0 m 1,0,-1
 384 64 l 1,1,-1
 448 64 l 1,2,-1
 448 0 l 1,3,-1
 384 0 l 1,0,-1
192 64 m 1,4,-1
 256 64 l 1,5,-1
 256 0 l 1,6,-1
 192 0 l 1,7,-1
 128 0 l 1,8,-1
 64 0 l 1,9,-1
 64 64 l 1,10,-1
 128 64 l 1,11,-1
 192 64 l 1,4,-1
384 64 m 1,12,-1
 320 64 l 1,13,-1
 256 64 l 1,14,-1
 256 128 l 1,15,-1
 256 192 l 1,16,-1
 320 192 l 1,17,-1
 384 192 l 1,18,-1
 384 128 l 1,19,-1
 384 64 l 1,12,-1
64 64 m 1,20,-1
 0 64 l 1,21,-1
 0 128 l 1,22,-1
 0 192 l 1,23,-1
 64 192 l 1,24,-1
 64 128 l 1,25,-1
 64 64 l 1,20,-1
384 192 m 1,26,-1
 384 256 l 1,27,-1
 448 256 l 1,28,-1
 448 192 l 1,29,-1
 384 192 l 1,26,-1
256 192 m 1,30,-1
 192 192 l 1,31,-1
 192 256 l 1,32,-1
 128 256 l 1,33,-1
 128 192 l 1,34,-1
 64 192 l 1,35,-1
 64 256 l 1,36,-1
 128 256 l 1,37,-1
 128 320 l 1,38,-1
 192 320 l 1,39,-1
 256 320 l 1,40,-1
 256 256 l 1,41,-1
 256 192 l 1,30,-1
256 320 m 1,42,-1
 256 384 l 1,43,-1
 256 448 l 1,44,-1
 320 448 l 1,45,-1
 320 384 l 1,46,-1
 320 320 l 1,47,-1
 256 320 l 1,42,-1
128 320 m 1,48,-1
 64 320 l 1,49,-1
 64 384 l 1,50,-1
 64 448 l 1,51,-1
 128 448 l 1,52,-1
 128 384 l 1,53,-1
 128 320 l 1,48,-1
256 448 m 1,54,-1
 192 448 l 1,55,-1
 128 448 l 1,56,-1
 128 512 l 1,57,-1
 192 512 l 1,58,-1
 256 512 l 1,59,-1
 256 448 l 1,54,-1
EndSplineSet
Validated: 5
EndChar

StartChar: quotesingle
Encoding: 39 39 10
Width: 128
GlyphClass: 2
Flags: W
LayerCount: 2
Fore
SplineSet
0 320 m 1,0,-1
 0 384 l 1,1,-1
 0 448 l 1,2,-1
 64 448 l 1,3,-1
 64 384 l 1,4,-1
 64 320 l 1,5,-1
 0 320 l 1,0,-1
EndSplineSet
Validated: 1
EndChar

StartChar: parenleft
Encoding: 40 40 11
Width: 256
GlyphClass: 2
Flags: W
LayerCount: 2
Fore
SplineSet
128 -64 m 1,0,-1
 128 0 l 1,1,-1
 192 0 l 1,2,-1
 192 -64 l 1,3,-1
 128 -64 l 1,0,-1
128 0 m 1,4,-1
 64 0 l 1,5,-1
 64 64 l 1,6,-1
 128 64 l 1,7,-1
 128 0 l 1,4,-1
64 64 m 1,8,-1
 0 64 l 1,9,-1
 0 128 l 1,10,-1
 0 192 l 1,11,-1
 0 256 l 1,12,-1
 0 320 l 1,13,-1
 64 320 l 1,14,-1
 64 256 l 1,15,-1
 64 192 l 1,16,-1
 64 128 l 1,17,-1
 64 64 l 1,8,-1
64 320 m 1,18,-1
 64 384 l 1,19,-1
 128 384 l 1,20,-1
 128 320 l 1,21,-1
 64 320 l 1,18,-1
128 384 m 1,22,-1
 128 448 l 1,23,-1
 192 448 l 1,24,-1
 192 384 l 1,25,-1
 128 384 l 1,22,-1
EndSplineSet
Validated: 5
EndChar

StartChar: parenright
Encoding: 41 41 12
Width: 256
GlyphClass: 2
Flags: W
LayerCount: 2
Fore
SplineSet
0 -64 m 1,0,-1
 0 0 l 1,1,-1
 64 0 l 1,2,-1
 64 -64 l 1,3,-1
 0 -64 l 1,0,-1
64 0 m 1,4,-1
 64 64 l 1,5,-1
 128 64 l 1,6,-1
 128 0 l 1,7,-1
 64 0 l 1,4,-1
128 64 m 1,8,-1
 128 128 l 1,9,-1
 128 192 l 1,10,-1
 128 256 l 1,11,-1
 128 320 l 1,12,-1
 192 320 l 1,13,-1
 192 256 l 1,14,-1
 192 192 l 1,15,-1
 192 128 l 1,16,-1
 192 64 l 1,17,-1
 128 64 l 1,8,-1
128 320 m 1,18,-1
 64 320 l 1,19,-1
 64 384 l 1,20,-1
 128 384 l 1,21,-1
 128 320 l 1,18,-1
64 384 m 1,22,-1
 0 384 l 1,23,-1
 0 448 l 1,24,-1
 64 448 l 1,25,-1
 64 384 l 1,22,-1
EndSplineSet
Validated: 5
EndChar

StartChar: asterisk
Encoding: 42 42 13
Width: 384
GlyphClass: 2
Flags: W
LayerCount: 2
Fore
SplineSet
256 256 m 1,0,-1
 256 320 l 1,1,-1
 320 320 l 1,2,-1
 320 256 l 1,3,-1
 256 256 l 1,0,-1
128 256 m 1,4,-1
 128 320 l 1,5,-1
 64 320 l 1,6,-1
 64 256 l 1,7,-1
 0 256 l 1,8,-1
 0 320 l 1,9,-1
 64 320 l 1,10,-1
 64 384 l 1,11,-1
 128 384 l 1,12,-1
 128 448 l 1,13,-1
 192 448 l 1,14,-1
 192 384 l 1,15,-1
 256 384 l 1,16,-1
 256 320 l 1,17,-1
 192 320 l 1,18,-1
 192 256 l 1,19,-1
 128 256 l 1,4,-1
256 384 m 1,20,-1
 256 448 l 1,21,-1
 320 448 l 1,22,-1
 320 384 l 1,23,-1
 256 384 l 1,20,-1
64 384 m 1,24,-1
 0 384 l 1,25,-1
 0 448 l 1,26,-1
 64 448 l 1,27,-1
 64 384 l 1,24,-1
EndSplineSet
Validated: 5
EndChar

StartChar: plus
Encoding: 43 43 14
Width: 384
GlyphClass: 2
Flags: W
LayerCount: 2
Fore
SplineSet
128 64 m 1,0,-1
 128 128 l 1,1,-1
 128 192 l 1,2,-1
 64 192 l 1,3,-1
 0 192 l 1,4,-1
 0 256 l 1,5,-1
 64 256 l 1,6,-1
 128 256 l 1,7,-1
 128 320 l 1,8,-1
 128 384 l 1,9,-1
 192 384 l 1,10,-1
 192 320 l 1,11,-1
 192 256 l 1,12,-1
 256 256 l 1,13,-1
 320 256 l 1,14,-1
 320 192 l 1,15,-1
 256 192 l 1,16,-1
 192 192 l 1,17,-1
 192 128 l 1,18,-1
 192 64 l 1,19,-1
 128 64 l 1,0,-1
EndSplineSet
Validated: 1
EndChar

StartChar: comma
Encoding: 44 44 15
Width: 192
GlyphClass: 2
Flags: W
LayerCount: 2
Fore
SplineSet
0 -64 m 1,0,-1
 0 0 l 1,1,-1
 64 0 l 1,2,-1
 64 -64 l 1,3,-1
 0 -64 l 1,0,-1
64 0 m 1,4,-1
 64 64 l 1,5,-1
 64 128 l 1,6,-1
 128 128 l 1,7,-1
 128 64 l 1,8,-1
 128 0 l 1,9,-1
 64 0 l 1,4,-1
EndSplineSet
Validated: 5
EndChar

StartChar: hyphen
Encoding: 45 45 16
Width: 256
GlyphClass: 2
Flags: W
LayerCount: 2
Fore
SplineSet
128 192 m 1,0,-1
 192 192 l 1,1,-1
 192 128 l 1,2,-1
 128 128 l 1,3,-1
 64 128 l 1,4,-1
 0 128 l 1,5,-1
 0 192 l 1,6,-1
 64 192 l 1,7,-1
 128 192 l 1,0,-1
EndSplineSet
Validated: 1
EndChar

StartChar: period
Encoding: 46 46 17
Width: 128
GlyphClass: 2
Flags: W
LayerCount: 2
Fore
SplineSet
0 0 m 1,0,-1
 0 64 l 1,1,-1
 0 128 l 1,2,-1
 64 128 l 1,3,-1
 64 64 l 1,4,-1
 64 0 l 1,5,-1
 0 0 l 1,0,-1
EndSplineSet
Validated: 1
EndChar

StartChar: slash
Encoding: 47 47 18
Width: 256
GlyphClass: 2
Flags: W
LayerCount: 2
Fore
SplineSet
0 0 m 1,0,-1
 0 64 l 1,1,-1
 0 128 l 1,2,-1
 64 128 l 1,3,-1
 64 64 l 1,4,-1
 64 0 l 1,5,-1
 0 0 l 1,0,-1
64 128 m 1,6,-1
 64 192 l 1,7,-1
 64 256 l 1,8,-1
 64 320 l 1,9,-1
 128 320 l 1,10,-1
 128 256 l 1,11,-1
 128 192 l 1,12,-1
 128 128 l 1,13,-1
 64 128 l 1,6,-1
128 320 m 1,14,-1
 128 384 l 1,15,-1
 128 448 l 1,16,-1
 192 448 l 1,17,-1
 192 384 l 1,18,-1
 192 320 l 1,19,-1
 128 320 l 1,14,-1
EndSplineSet
Validated: 5
EndChar

StartChar: zero
Encoding: 48 48 19
Width: 384
GlyphClass: 2
Flags: W
LayerCount: 2
Fore
SplineSet
192 64 m 1,0,-1
 256 64 l 1,1,-1
 256 0 l 1,2,-1
 192 0 l 1,3,-1
 128 0 l 1,4,-1
 64 0 l 1,5,-1
 64 64 l 1,6,-1
 128 64 l 1,7,-1
 192 64 l 1,0,-1
256 64 m 1,8,-1
 256 128 l 1,9,-1
 256 192 l 1,10,-1
 256 256 l 1,11,-1
 256 320 l 1,12,-1
 256 384 l 1,13,-1
 320 384 l 1,14,-1
 320 320 l 1,15,-1
 320 256 l 1,16,-1
 320 192 l 1,17,-1
 320 128 l 1,18,-1
 320 64 l 1,19,-1
 256 64 l 1,8,-1
64 64 m 1,20,-1
 0 64 l 1,21,-1
 0 128 l 1,22,-1
 0 192 l 1,23,-1
 0 256 l 1,24,-1
 0 320 l 1,25,-1
 0 384 l 1,26,-1
 64 384 l 1,27,-1
 64 320 l 1,28,-1
 64 256 l 1,29,-1
 64 192 l 1,30,-1
 64 128 l 1,31,-1
 64 64 l 1,20,-1
256 384 m 1,32,-1
 192 384 l 1,33,-1
 128 384 l 1,34,-1
 64 384 l 1,35,-1
 64 448 l 1,36,-1
 128 448 l 1,37,-1
 192 448 l 1,38,-1
 256 448 l 1,39,-1
 256 384 l 1,32,-1
EndSplineSet
Validated: 5
EndChar

StartChar: one
Encoding: 49 49 20
Width: 384
GlyphClass: 2
Flags: W
LayerCount: 2
Fore
SplineSet
256 64 m 1,0,-1
 320 64 l 1,1,-1
 320 0 l 1,2,-1
 256 0 l 1,3,-1
 192 0 l 1,4,-1
 128 0 l 1,5,-1
 64 0 l 1,6,-1
 0 0 l 1,7,-1
 0 64 l 1,8,-1
 64 64 l 1,9,-1
 128 64 l 1,10,-1
 128 128 l 1,11,-1
 128 192 l 1,12,-1
 128 256 l 1,13,-1
 128 320 l 1,14,-1
 64 320 l 1,15,-1
 64 384 l 1,16,-1
 128 384 l 1,17,-1
 128 448 l 1,18,-1
 192 448 l 1,19,-1
 192 384 l 1,20,-1
 192 320 l 1,21,-1
 192 256 l 1,22,-1
 192 192 l 1,23,-1
 192 128 l 1,24,-1
 192 64 l 1,25,-1
 256 64 l 1,0,-1
EndSplineSet
Validated: 1
EndChar

StartChar: two
Encoding: 50 50 21
Width: 384
GlyphClass: 2
Flags: W
LayerCount: 2
Fore
SplineSet
0 320 m 1,0,-1
 0 384 l 1,1,-1
 64 384 l 1,2,-1
 64 320 l 1,3,-1
 0 320 l 1,0,-1
256 64 m 1,4,-1
 320 64 l 1,5,-1
 320 0 l 1,6,-1
 256 0 l 1,7,-1
 192 0 l 1,8,-1
 128 0 l 1,9,-1
 64 0 l 1,10,-1
 0 0 l 1,11,-1
 0 64 l 1,12,-1
 64 64 l 1,13,-1
 64 128 l 1,14,-1
 128 128 l 1,15,-1
 128 64 l 1,16,-1
 192 64 l 1,17,-1
 256 64 l 1,4,-1
128 128 m 1,18,-1
 128 192 l 1,19,-1
 192 192 l 1,20,-1
 192 128 l 1,21,-1
 128 128 l 1,18,-1
192 192 m 1,22,-1
 192 256 l 1,23,-1
 256 256 l 1,24,-1
 256 192 l 1,25,-1
 192 192 l 1,22,-1
256 256 m 1,26,-1
 256 320 l 1,27,-1
 256 384 l 1,28,-1
 320 384 l 1,29,-1
 320 320 l 1,30,-1
 320 256 l 1,31,-1
 256 256 l 1,26,-1
256 384 m 1,32,-1
 192 384 l 1,33,-1
 128 384 l 1,34,-1
 64 384 l 1,35,-1
 64 448 l 1,36,-1
 128 448 l 1,37,-1
 192 448 l 1,38,-1
 256 448 l 1,39,-1
 256 384 l 1,32,-1
EndSplineSet
Validated: 5
EndChar

StartChar: three
Encoding: 51 51 22
Width: 384
GlyphClass: 2
Flags: W
LayerCount: 2
Fore
SplineSet
192 64 m 1,0,-1
 256 64 l 1,1,-1
 256 0 l 1,2,-1
 192 0 l 1,3,-1
 128 0 l 1,4,-1
 64 0 l 1,5,-1
 0 0 l 1,6,-1
 0 64 l 1,7,-1
 64 64 l 1,8,-1
 128 64 l 1,9,-1
 192 64 l 1,0,-1
256 64 m 1,10,-1
 256 128 l 1,11,-1
 256 192 l 1,12,-1
 320 192 l 1,13,-1
 320 128 l 1,14,-1
 320 64 l 1,15,-1
 256 64 l 1,10,-1
256 192 m 1,16,-1
 192 192 l 1,17,-1
 128 192 l 1,18,-1
 128 256 l 1,19,-1
 192 256 l 1,20,-1
 256 256 l 1,21,-1
 256 192 l 1,16,-1
256 256 m 1,22,-1
 256 320 l 1,23,-1
 256 384 l 1,24,-1
 320 384 l 1,25,-1
 320 320 l 1,26,-1
 320 256 l 1,27,-1
 256 256 l 1,22,-1
256 384 m 1,28,-1
 192 384 l 1,29,-1
 128 384 l 1,30,-1
 64 384 l 1,31,-1
 0 384 l 1,32,-1
 0 448 l 1,33,-1
 64 448 l 1,34,-1
 128 448 l 1,35,-1
 192 448 l 1,36,-1
 256 448 l 1,37,-1
 256 384 l 1,28,-1
EndSplineSet
Validated: 5
EndChar

StartChar: four
Encoding: 52 52 23
Width: 384
GlyphClass: 2
Flags: W
LayerCount: 2
Fore
SplineSet
192 0 m 1,0,-1
 192 64 l 1,1,-1
 192 128 l 1,2,-1
 128 128 l 1,3,-1
 64 128 l 1,4,-1
 0 128 l 1,5,-1
 0 192 l 1,6,-1
 0 256 l 1,7,-1
 64 256 l 1,8,-1
 64 320 l 1,9,-1
 128 320 l 1,10,-1
 128 384 l 1,11,-1
 192 384 l 1,12,-1
 192 448 l 1,13,-1
 256 448 l 1,14,-1
 256 384 l 1,15,-1
 256 320 l 1,16,-1
 256 256 l 1,17,-1
 256 192 l 1,18,-1
 320 192 l 1,19,-1
 320 128 l 1,20,-1
 256 128 l 1,21,-1
 256 64 l 1,22,-1
 256 0 l 1,23,-1
 192 0 l 1,0,-1
128 192 m 1,24,-1
 192 192 l 1,25,-1
 192 256 l 1,26,-1
 192 320 l 1,27,-1
 128 320 l 1,28,-1
 128 256 l 1,29,-1
 64 256 l 1,30,-1
 64 192 l 1,31,-1
 128 192 l 1,24,-1
EndSplineSet
Validated: 5
EndChar

StartChar: five
Encoding: 53 53 24
Width: 384
GlyphClass: 2
Flags: W
LayerCount: 2
Fore
SplineSet
192 64 m 1,0,-1
 256 64 l 1,1,-1
 256 0 l 1,2,-1
 192 0 l 1,3,-1
 128 0 l 1,4,-1
 64 0 l 1,5,-1
 64 64 l 1,6,-1
 128 64 l 1,7,-1
 192 64 l 1,0,-1
256 64 m 1,8,-1
 256 128 l 1,9,-1
 256 192 l 1,10,-1
 320 192 l 1,11,-1
 320 128 l 1,12,-1
 320 64 l 1,13,-1
 256 64 l 1,8,-1
64 64 m 1,14,-1
 0 64 l 1,15,-1
 0 128 l 1,16,-1
 64 128 l 1,17,-1
 64 64 l 1,14,-1
256 192 m 1,18,-1
 192 192 l 1,19,-1
 128 192 l 1,20,-1
 64 192 l 1,21,-1
 0 192 l 1,22,-1
 0 256 l 1,23,-1
 0 320 l 1,24,-1
 0 384 l 1,25,-1
 0 448 l 1,26,-1
 64 448 l 1,27,-1
 128 448 l 1,28,-1
 192 448 l 1,29,-1
 256 448 l 1,30,-1
 320 448 l 1,31,-1
 320 384 l 1,32,-1
 256 384 l 1,33,-1
 192 384 l 1,34,-1
 128 384 l 1,35,-1
 64 384 l 1,36,-1
 64 320 l 1,37,-1
 64 256 l 1,38,-1
 128 256 l 1,39,-1
 192 256 l 1,40,-1
 256 256 l 1,41,-1
 256 192 l 1,18,-1
EndSplineSet
Validated: 5
EndChar

StartChar: six
Encoding: 54 54 25
Width: 384
GlyphClass: 2
Flags: W
LayerCount: 2
Fore
SplineSet
256 320 m 1,0,-1
 256 384 l 1,1,-1
 320 384 l 1,2,-1
 320 320 l 1,3,-1
 256 320 l 1,0,-1
192 64 m 1,4,-1
 256 64 l 1,5,-1
 256 0 l 1,6,-1
 192 0 l 1,7,-1
 128 0 l 1,8,-1
 64 0 l 1,9,-1
 64 64 l 1,10,-1
 128 64 l 1,11,-1
 192 64 l 1,4,-1
256 64 m 1,12,-1
 256 128 l 1,13,-1
 256 192 l 1,14,-1
 320 192 l 1,15,-1
 320 128 l 1,16,-1
 320 64 l 1,17,-1
 256 64 l 1,12,-1
64 64 m 1,18,-1
 0 64 l 1,19,-1
 0 128 l 1,20,-1
 0 192 l 1,21,-1
 0 256 l 1,22,-1
 0 320 l 1,23,-1
 0 384 l 1,24,-1
 64 384 l 1,25,-1
 64 320 l 1,26,-1
 64 256 l 1,27,-1
 128 256 l 1,28,-1
 192 256 l 1,29,-1
 256 256 l 1,30,-1
 256 192 l 1,31,-1
 192 192 l 1,32,-1
 128 192 l 1,33,-1
 64 192 l 1,34,-1
 64 128 l 1,35,-1
 64 64 l 1,18,-1
256 384 m 1,36,-1
 192 384 l 1,37,-1
 128 384 l 1,38,-1
 64 384 l 1,39,-1
 64 448 l 1,40,-1
 128 448 l 1,41,-1
 192 448 l 1,42,-1
 256 448 l 1,43,-1
 256 384 l 1,36,-1
EndSplineSet
Validated: 5
EndChar

StartChar: seven
Encoding: 55 55 26
Width: 384
GlyphClass: 2
Flags: W
LayerCount: 2
Fore
SplineSet
64 0 m 1,0,-1
 64 64 l 1,1,-1
 64 128 l 1,2,-1
 128 128 l 1,3,-1
 128 64 l 1,4,-1
 128 0 l 1,5,-1
 64 0 l 1,0,-1
128 128 m 1,6,-1
 128 192 l 1,7,-1
 128 256 l 1,8,-1
 192 256 l 1,9,-1
 192 192 l 1,10,-1
 192 128 l 1,11,-1
 128 128 l 1,6,-1
192 256 m 1,12,-1
 192 320 l 1,13,-1
 256 320 l 1,14,-1
 256 256 l 1,15,-1
 192 256 l 1,12,-1
256 320 m 1,16,-1
 256 384 l 1,17,-1
 192 384 l 1,18,-1
 128 384 l 1,19,-1
 64 384 l 1,20,-1
 0 384 l 1,21,-1
 0 448 l 1,22,-1
 64 448 l 1,23,-1
 128 448 l 1,24,-1
 192 448 l 1,25,-1
 256 448 l 1,26,-1
 320 448 l 1,27,-1
 320 384 l 1,28,-1
 320 320 l 1,29,-1
 256 320 l 1,16,-1
EndSplineSet
Validated: 5
EndChar

StartChar: eight
Encoding: 56 56 27
Width: 384
GlyphClass: 2
Flags: W
LayerCount: 2
Fore
SplineSet
192 64 m 1,0,-1
 256 64 l 1,1,-1
 256 0 l 1,2,-1
 192 0 l 1,3,-1
 128 0 l 1,4,-1
 64 0 l 1,5,-1
 64 64 l 1,6,-1
 128 64 l 1,7,-1
 192 64 l 1,0,-1
256 64 m 1,8,-1
 256 128 l 1,9,-1
 256 192 l 1,10,-1
 320 192 l 1,11,-1
 320 128 l 1,12,-1
 320 64 l 1,13,-1
 256 64 l 1,8,-1
64 64 m 1,14,-1
 0 64 l 1,15,-1
 0 128 l 1,16,-1
 0 192 l 1,17,-1
 64 192 l 1,18,-1
 64 128 l 1,19,-1
 64 64 l 1,14,-1
256 192 m 1,20,-1
 192 192 l 1,21,-1
 128 192 l 1,22,-1
 64 192 l 1,23,-1
 64 256 l 1,24,-1
 128 256 l 1,25,-1
 192 256 l 1,26,-1
 256 256 l 1,27,-1
 256 192 l 1,20,-1
256 256 m 1,28,-1
 256 320 l 1,29,-1
 256 384 l 1,30,-1
 320 384 l 1,31,-1
 320 320 l 1,32,-1
 320 256 l 1,33,-1
 256 256 l 1,28,-1
64 256 m 1,34,-1
 0 256 l 1,35,-1
 0 320 l 1,36,-1
 0 384 l 1,37,-1
 64 384 l 1,38,-1
 64 320 l 1,39,-1
 64 256 l 1,34,-1
256 384 m 1,40,-1
 192 384 l 1,41,-1
 128 384 l 1,42,-1
 64 384 l 1,43,-1
 64 448 l 1,44,-1
 128 448 l 1,45,-1
 192 448 l 1,46,-1
 256 448 l 1,47,-1
 256 384 l 1,40,-1
EndSplineSet
Validated: 5
EndChar

StartChar: nine
Encoding: 57 57 28
Width: 384
GlyphClass: 2
Flags: W
LayerCount: 2
Fore
SplineSet
192 64 m 1,0,-1
 256 64 l 1,1,-1
 256 0 l 1,2,-1
 192 0 l 1,3,-1
 128 0 l 1,4,-1
 64 0 l 1,5,-1
 64 64 l 1,6,-1
 128 64 l 1,7,-1
 192 64 l 1,0,-1
256 64 m 1,8,-1
 256 128 l 1,9,-1
 256 192 l 1,10,-1
 192 192 l 1,11,-1
 128 192 l 1,12,-1
 64 192 l 1,13,-1
 64 256 l 1,14,-1
 128 256 l 1,15,-1
 192 256 l 1,16,-1
 256 256 l 1,17,-1
 256 320 l 1,18,-1
 256 384 l 1,19,-1
 320 384 l 1,20,-1
 320 320 l 1,21,-1
 320 256 l 1,22,-1
 320 192 l 1,23,-1
 320 128 l 1,24,-1
 320 64 l 1,25,-1
 256 64 l 1,8,-1
64 256 m 1,26,-1
 0 256 l 1,27,-1
 0 320 l 1,28,-1
 0 384 l 1,29,-1
 64 384 l 1,30,-1
 64 320 l 1,31,-1
 64 256 l 1,26,-1
256 384 m 1,32,-1
 192 384 l 1,33,-1
 128 384 l 1,34,-1
 64 384 l 1,35,-1
 64 448 l 1,36,-1
 128 448 l 1,37,-1
 192 448 l 1,38,-1
 256 448 l 1,39,-1
 256 384 l 1,32,-1
EndSplineSet
Validated: 5
EndChar

StartChar: colon
Encoding: 58 58 29
Width: 128
GlyphClass: 2
Flags: W
LayerCount: 2
Fore
SplineSet
0 0 m 1,0,-1
 0 64 l 1,1,-1
 64 64 l 1,2,-1
 64 0 l 1,3,-1
 0 0 l 1,0,-1
0 256 m 1,4,-1
 0 320 l 1,5,-1
 64 320 l 1,6,-1
 64 256 l 1,7,-1
 0 256 l 1,4,-1
EndSplineSet
Validated: 1
EndChar

StartChar: semicolon
Encoding: 59 59 30
Width: 192
GlyphClass: 2
Flags: W
LayerCount: 2
Fore
SplineSet
0 -64 m 1,0,-1
 0 0 l 1,1,-1
 64 0 l 1,2,-1
 64 -64 l 1,3,-1
 0 -64 l 1,0,-1
64 256 m 1,4,-1
 64 320 l 1,5,-1
 128 320 l 1,6,-1
 128 256 l 1,7,-1
 64 256 l 1,4,-1
64 0 m 1,8,-1
 64 64 l 1,9,-1
 64 128 l 1,10,-1
 128 128 l 1,11,-1
 128 64 l 1,12,-1
 128 0 l 1,13,-1
 64 0 l 1,8,-1
EndSplineSet
Validated: 5
EndChar

StartChar: less
Encoding: 60 60 31
Width: 384
GlyphClass: 2
Flags: W
LayerCount: 2
Fore
SplineSet
256 64 m 1,0,-1
 320 64 l 1,1,-1
 320 0 l 1,2,-1
 256 0 l 1,3,-1
 192 0 l 1,4,-1
 192 64 l 1,5,-1
 256 64 l 1,0,-1
192 64 m 1,6,-1
 128 64 l 1,7,-1
 64 64 l 1,8,-1
 64 128 l 1,9,-1
 128 128 l 1,10,-1
 192 128 l 1,11,-1
 192 64 l 1,6,-1
64 128 m 1,12,-1
 0 128 l 1,13,-1
 0 192 l 1,14,-1
 64 192 l 1,15,-1
 64 128 l 1,12,-1
128 256 m 1,16,-1
 192 256 l 1,17,-1
 192 192 l 1,18,-1
 128 192 l 1,19,-1
 64 192 l 1,20,-1
 64 256 l 1,21,-1
 128 256 l 1,16,-1
256 320 m 1,22,-1
 320 320 l 1,23,-1
 320 256 l 1,24,-1
 256 256 l 1,25,-1
 192 256 l 1,26,-1
 192 320 l 1,27,-1
 256 320 l 1,22,-1
EndSplineSet
Validated: 5
EndChar

StartChar: equal
Encoding: 61 61 32
Width: 320
GlyphClass: 2
Flags: W
LayerCount: 2
Fore
SplineSet
192 128 m 1,0,-1
 256 128 l 1,1,-1
 256 64 l 1,2,-1
 192 64 l 1,3,-1
 128 64 l 1,4,-1
 64 64 l 1,5,-1
 0 64 l 1,6,-1
 0 128 l 1,7,-1
 64 128 l 1,8,-1
 128 128 l 1,9,-1
 192 128 l 1,0,-1
192 256 m 1,10,-1
 256 256 l 1,11,-1
 256 192 l 1,12,-1
 192 192 l 1,13,-1
 128 192 l 1,14,-1
 64 192 l 1,15,-1
 0 192 l 1,16,-1
 0 256 l 1,17,-1
 64 256 l 1,18,-1
 128 256 l 1,19,-1
 192 256 l 1,10,-1
EndSplineSet
Validated: 1
EndChar

StartChar: greater
Encoding: 62 62 33
Width: 384
GlyphClass: 2
Flags: W
LayerCount: 2
Fore
SplineSet
64 64 m 1,0,-1
 128 64 l 1,1,-1
 128 0 l 1,2,-1
 64 0 l 1,3,-1
 0 0 l 1,4,-1
 0 64 l 1,5,-1
 64 64 l 1,0,-1
192 128 m 1,6,-1
 256 128 l 1,7,-1
 256 64 l 1,8,-1
 192 64 l 1,9,-1
 128 64 l 1,10,-1
 128 128 l 1,11,-1
 192 128 l 1,6,-1
256 128 m 1,12,-1
 256 192 l 1,13,-1
 320 192 l 1,14,-1
 320 128 l 1,15,-1
 256 128 l 1,12,-1
256 192 m 1,16,-1
 192 192 l 1,17,-1
 128 192 l 1,18,-1
 128 256 l 1,19,-1
 192 256 l 1,20,-1
 256 256 l 1,21,-1
 256 192 l 1,16,-1
128 256 m 1,22,-1
 64 256 l 1,23,-1
 0 256 l 1,24,-1
 0 320 l 1,25,-1
 64 320 l 1,26,-1
 128 320 l 1,27,-1
 128 256 l 1,22,-1
EndSplineSet
Validated: 5
EndChar

StartChar: question
Encoding: 63 63 34
Width: 384
GlyphClass: 2
Flags: W
LayerCount: 2
Fore
SplineSet
128 0 m 1,0,-1
 128 64 l 1,1,-1
 192 64 l 1,2,-1
 192 0 l 1,3,-1
 128 0 l 1,0,-1
128 128 m 1,4,-1
 128 192 l 1,5,-1
 192 192 l 1,6,-1
 192 128 l 1,7,-1
 128 128 l 1,4,-1
0 320 m 1,8,-1
 0 384 l 1,9,-1
 64 384 l 1,10,-1
 64 320 l 1,11,-1
 0 320 l 1,8,-1
192 192 m 1,12,-1
 192 256 l 1,13,-1
 256 256 l 1,14,-1
 256 192 l 1,15,-1
 192 192 l 1,12,-1
256 256 m 1,16,-1
 256 320 l 1,17,-1
 256 384 l 1,18,-1
 320 384 l 1,19,-1
 320 320 l 1,20,-1
 320 256 l 1,21,-1
 256 256 l 1,16,-1
256 384 m 1,22,-1
 192 384 l 1,23,-1
 128 384 l 1,24,-1
 64 384 l 1,25,-1
 64 448 l 1,26,-1
 128 448 l 1,27,-1
 192 448 l 1,28,-1
 256 448 l 1,29,-1
 256 384 l 1,22,-1
EndSplineSet
Validated: 5
EndChar

StartChar: at
Encoding: 64 64 35
Width: 576
GlyphClass: 2
Flags: W
LayerCount: 2
Fore
SplineSet
384 0 m 1,0,-1
 448 0 l 1,1,-1
 448 -64 l 1,2,-1
 384 -64 l 1,3,-1
 320 -64 l 1,4,-1
 256 -64 l 1,5,-1
 192 -64 l 1,6,-1
 128 -64 l 1,7,-1
 128 0 l 1,8,-1
 192 0 l 1,9,-1
 256 0 l 1,10,-1
 320 0 l 1,11,-1
 384 0 l 1,0,-1
448 0 m 1,12,-1
 448 64 l 1,13,-1
 512 64 l 1,14,-1
 512 0 l 1,15,-1
 448 0 l 1,12,-1
128 0 m 1,16,-1
 64 0 l 1,17,-1
 64 64 l 1,18,-1
 128 64 l 1,19,-1
 128 0 l 1,16,-1
448 64 m 1,20,-1
 384 64 l 1,21,-1
 320 64 l 1,22,-1
 256 64 l 1,23,-1
 192 64 l 1,24,-1
 192 128 l 1,25,-1
 128 128 l 1,26,-1
 128 192 l 1,27,-1
 128 256 l 1,28,-1
 192 256 l 1,29,-1
 192 320 l 1,30,-1
 256 320 l 1,31,-1
 320 320 l 1,32,-1
 384 320 l 1,33,-1
 384 256 l 1,34,-1
 384 192 l 1,35,-1
 384 128 l 1,36,-1
 448 128 l 1,37,-1
 448 64 l 1,20,-1
256 128 m 1,38,-1
 320 128 l 1,39,-1
 320 192 l 1,40,-1
 320 256 l 1,41,-1
 256 256 l 1,42,-1
 192 256 l 1,43,-1
 192 192 l 1,44,-1
 192 128 l 1,45,-1
 256 128 l 1,38,-1
64 64 m 1,46,-1
 0 64 l 1,47,-1
 0 128 l 1,48,-1
 0 192 l 1,49,-1
 0 256 l 1,50,-1
 0 320 l 1,51,-1
 64 320 l 1,52,-1
 64 256 l 1,53,-1
 64 192 l 1,54,-1
 64 128 l 1,55,-1
 64 64 l 1,46,-1
448 128 m 1,56,-1
 448 192 l 1,57,-1
 448 256 l 1,58,-1
 448 320 l 1,59,-1
 512 320 l 1,60,-1
 512 256 l 1,61,-1
 512 192 l 1,62,-1
 512 128 l 1,63,-1
 448 128 l 1,56,-1
448 320 m 1,64,-1
 384 320 l 1,65,-1
 384 384 l 1,66,-1
 448 384 l 1,67,-1
 448 320 l 1,64,-1
64 320 m 1,68,-1
 64 384 l 1,69,-1
 128 384 l 1,70,-1
 128 320 l 1,71,-1
 64 320 l 1,68,-1
384 384 m 1,72,-1
 320 384 l 1,73,-1
 256 384 l 1,74,-1
 192 384 l 1,75,-1
 128 384 l 1,76,-1
 128 448 l 1,77,-1
 192 448 l 1,78,-1
 256 448 l 1,79,-1
 320 448 l 1,80,-1
 384 448 l 1,81,-1
 384 384 l 1,72,-1
EndSplineSet
Validated: 5
EndChar

StartChar: A
Encoding: 65 65 36
Width: 384
GlyphClass: 2
Flags: W
LayerCount: 2
Fore
SplineSet
256 0 m 1,0,-1
 256 64 l 1,1,-1
 256 128 l 1,2,-1
 256 192 l 1,3,-1
 192 192 l 1,4,-1
 128 192 l 1,5,-1
 64 192 l 1,6,-1
 64 128 l 1,7,-1
 64 64 l 1,8,-1
 64 0 l 1,9,-1
 0 0 l 1,10,-1
 0 64 l 1,11,-1
 0 128 l 1,12,-1
 0 192 l 1,13,-1
 0 256 l 1,14,-1
 0 320 l 1,15,-1
 0 384 l 1,16,-1
 64 384 l 1,17,-1
 64 320 l 1,18,-1
 64 256 l 1,19,-1
 128 256 l 1,20,-1
 192 256 l 1,21,-1
 256 256 l 1,22,-1
 256 320 l 1,23,-1
 256 384 l 1,24,-1
 320 384 l 1,25,-1
 320 320 l 1,26,-1
 320 256 l 1,27,-1
 320 192 l 1,28,-1
 320 128 l 1,29,-1
 320 64 l 1,30,-1
 320 0 l 1,31,-1
 256 0 l 1,0,-1
256 384 m 1,32,-1
 192 384 l 1,33,-1
 128 384 l 1,34,-1
 64 384 l 1,35,-1
 64 448 l 1,36,-1
 128 448 l 1,37,-1
 192 448 l 1,38,-1
 256 448 l 1,39,-1
 256 384 l 1,32,-1
EndSplineSet
Validated: 5
EndChar

StartChar: B
Encoding: 66 66 37
Width: 384
GlyphClass: 2
Flags: W
LayerCount: 2
Fore
SplineSet
192 64 m 1,0,-1
 256 64 l 1,1,-1
 256 128 l 1,2,-1
 256 192 l 1,3,-1
 192 192 l 1,4,-1
 128 192 l 1,5,-1
 64 192 l 1,6,-1
 64 128 l 1,7,-1
 64 64 l 1,8,-1
 128 64 l 1,9,-1
 192 64 l 1,0,-1
192 0 m 1,10,-1
 128 0 l 1,11,-1
 64 0 l 1,12,-1
 0 0 l 1,13,-1
 0 64 l 1,14,-1
 0 128 l 1,15,-1
 0 192 l 1,16,-1
 0 256 l 1,17,-1
 0 320 l 1,18,-1
 0 384 l 1,19,-1
 0 448 l 1,20,-1
 64 448 l 1,21,-1
 128 448 l 1,22,-1
 192 448 l 1,23,-1
 256 448 l 1,24,-1
 256 384 l 1,25,-1
 320 384 l 1,26,-1
 320 320 l 1,27,-1
 320 256 l 1,28,-1
 256 256 l 1,29,-1
 256 320 l 1,30,-1
 256 384 l 1,31,-1
 192 384 l 1,32,-1
 128 384 l 1,33,-1
 64 384 l 1,34,-1
 64 320 l 1,35,-1
 64 256 l 1,36,-1
 128 256 l 1,37,-1
 192 256 l 1,38,-1
 256 256 l 1,39,-1
 256 192 l 1,40,-1
 320 192 l 1,41,-1
 320 128 l 1,42,-1
 320 64 l 1,43,-1
 256 64 l 1,44,-1
 256 0 l 1,45,-1
 192 0 l 1,10,-1
EndSplineSet
Validated: 5
EndChar

StartChar: C
Encoding: 67 67 38
Width: 384
GlyphClass: 2
Flags: W
LayerCount: 2
Fore
SplineSet
256 320 m 1,0,-1
 256 384 l 1,1,-1
 320 384 l 1,2,-1
 320 320 l 1,3,-1
 256 320 l 1,0,-1
192 64 m 1,4,-1
 256 64 l 1,5,-1
 256 0 l 1,6,-1
 192 0 l 1,7,-1
 128 0 l 1,8,-1
 64 0 l 1,9,-1
 64 64 l 1,10,-1
 128 64 l 1,11,-1
 192 64 l 1,4,-1
256 64 m 1,12,-1
 256 128 l 1,13,-1
 320 128 l 1,14,-1
 320 64 l 1,15,-1
 256 64 l 1,12,-1
64 64 m 1,16,-1
 0 64 l 1,17,-1
 0 128 l 1,18,-1
 0 192 l 1,19,-1
 0 256 l 1,20,-1
 0 320 l 1,21,-1
 0 384 l 1,22,-1
 64 384 l 1,23,-1
 64 320 l 1,24,-1
 64 256 l 1,25,-1
 64 192 l 1,26,-1
 64 128 l 1,27,-1
 64 64 l 1,16,-1
256 384 m 1,28,-1
 192 384 l 1,29,-1
 128 384 l 1,30,-1
 64 384 l 1,31,-1
 64 448 l 1,32,-1
 128 448 l 1,33,-1
 192 448 l 1,34,-1
 256 448 l 1,35,-1
 256 384 l 1,28,-1
EndSplineSet
Validated: 5
EndChar

StartChar: D
Encoding: 68 68 39
Width: 384
GlyphClass: 2
Flags: W
LayerCount: 2
Fore
SplineSet
192 64 m 1,0,-1
 256 64 l 1,1,-1
 256 128 l 1,2,-1
 256 192 l 1,3,-1
 256 256 l 1,4,-1
 256 320 l 1,5,-1
 256 384 l 1,6,-1
 192 384 l 1,7,-1
 128 384 l 1,8,-1
 64 384 l 1,9,-1
 64 320 l 1,10,-1
 64 256 l 1,11,-1
 64 192 l 1,12,-1
 64 128 l 1,13,-1
 64 64 l 1,14,-1
 128 64 l 1,15,-1
 192 64 l 1,0,-1
192 0 m 1,16,-1
 128 0 l 1,17,-1
 64 0 l 1,18,-1
 0 0 l 1,19,-1
 0 64 l 1,20,-1
 0 128 l 1,21,-1
 0 192 l 1,22,-1
 0 256 l 1,23,-1
 0 320 l 1,24,-1
 0 384 l 1,25,-1
 0 448 l 1,26,-1
 64 448 l 1,27,-1
 128 448 l 1,28,-1
 192 448 l 1,29,-1
 256 448 l 1,30,-1
 256 384 l 1,31,-1
 320 384 l 1,32,-1
 320 320 l 1,33,-1
 320 256 l 1,34,-1
 320 192 l 1,35,-1
 320 128 l 1,36,-1
 320 64 l 1,37,-1
 256 64 l 1,38,-1
 256 0 l 1,39,-1
 192 0 l 1,16,-1
EndSplineSet
Validated: 5
EndChar

StartChar: E
Encoding: 69 69 40
Width: 384
GlyphClass: 2
Flags: W
LayerCount: 2
Fore
SplineSet
256 64 m 1,0,-1
 320 64 l 1,1,-1
 320 0 l 1,2,-1
 256 0 l 1,3,-1
 192 0 l 1,4,-1
 128 0 l 1,5,-1
 64 0 l 1,6,-1
 0 0 l 1,7,-1
 0 64 l 1,8,-1
 0 128 l 1,9,-1
 0 192 l 1,10,-1
 0 256 l 1,11,-1
 0 320 l 1,12,-1
 0 384 l 1,13,-1
 0 448 l 1,14,-1
 64 448 l 1,15,-1
 128 448 l 1,16,-1
 192 448 l 1,17,-1
 256 448 l 1,18,-1
 320 448 l 1,19,-1
 320 384 l 1,20,-1
 256 384 l 1,21,-1
 192 384 l 1,22,-1
 128 384 l 1,23,-1
 64 384 l 1,24,-1
 64 320 l 1,25,-1
 64 256 l 1,26,-1
 128 256 l 1,27,-1
 192 256 l 1,28,-1
 256 256 l 1,29,-1
 256 192 l 1,30,-1
 192 192 l 1,31,-1
 128 192 l 1,32,-1
 64 192 l 1,33,-1
 64 128 l 1,34,-1
 64 64 l 1,35,-1
 128 64 l 1,36,-1
 192 64 l 1,37,-1
 256 64 l 1,0,-1
EndSplineSet
Validated: 1
EndChar

StartChar: F
Encoding: 70 70 41
Width: 384
GlyphClass: 2
Flags: W
LayerCount: 2
Fore
SplineSet
0 0 m 1,0,-1
 0 64 l 1,1,-1
 0 128 l 1,2,-1
 0 192 l 1,3,-1
 0 256 l 1,4,-1
 0 320 l 1,5,-1
 0 384 l 1,6,-1
 0 448 l 1,7,-1
 64 448 l 1,8,-1
 128 448 l 1,9,-1
 192 448 l 1,10,-1
 256 448 l 1,11,-1
 320 448 l 1,12,-1
 320 384 l 1,13,-1
 256 384 l 1,14,-1
 192 384 l 1,15,-1
 128 384 l 1,16,-1
 64 384 l 1,17,-1
 64 320 l 1,18,-1
 64 256 l 1,19,-1
 128 256 l 1,20,-1
 192 256 l 1,21,-1
 256 256 l 1,22,-1
 256 192 l 1,23,-1
 192 192 l 1,24,-1
 128 192 l 1,25,-1
 64 192 l 1,26,-1
 64 128 l 1,27,-1
 64 64 l 1,28,-1
 64 0 l 1,29,-1
 0 0 l 1,0,-1
EndSplineSet
Validated: 1
EndChar

StartChar: G
Encoding: 71 71 42
Width: 384
GlyphClass: 2
Flags: W
LayerCount: 2
Fore
SplineSet
256 320 m 1,0,-1
 256 384 l 1,1,-1
 320 384 l 1,2,-1
 320 320 l 1,3,-1
 256 320 l 1,0,-1
192 64 m 1,4,-1
 256 64 l 1,5,-1
 256 0 l 1,6,-1
 192 0 l 1,7,-1
 128 0 l 1,8,-1
 64 0 l 1,9,-1
 64 64 l 1,10,-1
 128 64 l 1,11,-1
 192 64 l 1,4,-1
256 64 m 1,12,-1
 256 128 l 1,13,-1
 256 192 l 1,14,-1
 192 192 l 1,15,-1
 128 192 l 1,16,-1
 128 256 l 1,17,-1
 192 256 l 1,18,-1
 256 256 l 1,19,-1
 320 256 l 1,20,-1
 320 192 l 1,21,-1
 320 128 l 1,22,-1
 320 64 l 1,23,-1
 256 64 l 1,12,-1
64 64 m 1,24,-1
 0 64 l 1,25,-1
 0 128 l 1,26,-1
 0 192 l 1,27,-1
 0 256 l 1,28,-1
 0 320 l 1,29,-1
 0 384 l 1,30,-1
 64 384 l 1,31,-1
 64 320 l 1,32,-1
 64 256 l 1,33,-1
 64 192 l 1,34,-1
 64 128 l 1,35,-1
 64 64 l 1,24,-1
256 384 m 1,36,-1
 192 384 l 1,37,-1
 128 384 l 1,38,-1
 64 384 l 1,39,-1
 64 448 l 1,40,-1
 128 448 l 1,41,-1
 192 448 l 1,42,-1
 256 448 l 1,43,-1
 256 384 l 1,36,-1
EndSplineSet
Validated: 5
EndChar

StartChar: H
Encoding: 72 72 43
Width: 384
GlyphClass: 2
Flags: W
LayerCount: 2
Fore
SplineSet
256 0 m 1,0,-1
 256 64 l 1,1,-1
 256 128 l 1,2,-1
 256 192 l 1,3,-1
 192 192 l 1,4,-1
 128 192 l 1,5,-1
 64 192 l 1,6,-1
 64 128 l 1,7,-1
 64 64 l 1,8,-1
 64 0 l 1,9,-1
 0 0 l 1,10,-1
 0 64 l 1,11,-1
 0 128 l 1,12,-1
 0 192 l 1,13,-1
 0 256 l 1,14,-1
 0 320 l 1,15,-1
 0 384 l 1,16,-1
 0 448 l 1,17,-1
 64 448 l 1,18,-1
 64 384 l 1,19,-1
 64 320 l 1,20,-1
 64 256 l 1,21,-1
 128 256 l 1,22,-1
 192 256 l 1,23,-1
 256 256 l 1,24,-1
 256 320 l 1,25,-1
 256 384 l 1,26,-1
 256 448 l 1,27,-1
 320 448 l 1,28,-1
 320 384 l 1,29,-1
 320 320 l 1,30,-1
 320 256 l 1,31,-1
 320 192 l 1,32,-1
 320 128 l 1,33,-1
 320 64 l 1,34,-1
 320 0 l 1,35,-1
 256 0 l 1,0,-1
EndSplineSet
Validated: 1
EndChar

StartChar: I
Encoding: 73 73 44
Width: 256
GlyphClass: 2
Flags: W
LayerCount: 2
Fore
SplineSet
128 0 m 1,0,-1
 64 0 l 1,1,-1
 0 0 l 1,2,-1
 0 64 l 1,3,-1
 64 64 l 1,4,-1
 64 128 l 1,5,-1
 64 192 l 1,6,-1
 64 256 l 1,7,-1
 64 320 l 1,8,-1
 64 384 l 1,9,-1
 0 384 l 1,10,-1
 0 448 l 1,11,-1
 64 448 l 1,12,-1
 128 448 l 1,13,-1
 192 448 l 1,14,-1
 192 384 l 1,15,-1
 128 384 l 1,16,-1
 128 320 l 1,17,-1
 128 256 l 1,18,-1
 128 192 l 1,19,-1
 128 128 l 1,20,-1
 128 64 l 1,21,-1
 192 64 l 1,22,-1
 192 0 l 1,23,-1
 128 0 l 1,0,-1
EndSplineSet
Validated: 1
EndChar

StartChar: J
Encoding: 74 74 45
Width: 384
GlyphClass: 2
Flags: W
LayerCount: 2
Fore
SplineSet
192 64 m 1,0,-1
 256 64 l 1,1,-1
 256 0 l 1,2,-1
 192 0 l 1,3,-1
 128 0 l 1,4,-1
 64 0 l 1,5,-1
 64 64 l 1,6,-1
 128 64 l 1,7,-1
 192 64 l 1,0,-1
256 64 m 1,8,-1
 256 128 l 1,9,-1
 256 192 l 1,10,-1
 256 256 l 1,11,-1
 256 320 l 1,12,-1
 256 384 l 1,13,-1
 256 448 l 1,14,-1
 320 448 l 1,15,-1
 320 384 l 1,16,-1
 320 320 l 1,17,-1
 320 256 l 1,18,-1
 320 192 l 1,19,-1
 320 128 l 1,20,-1
 320 64 l 1,21,-1
 256 64 l 1,8,-1
64 64 m 1,22,-1
 0 64 l 1,23,-1
 0 128 l 1,24,-1
 64 128 l 1,25,-1
 64 64 l 1,22,-1
EndSplineSet
Validated: 5
EndChar

StartChar: K
Encoding: 75 75 46
Width: 384
GlyphClass: 2
Flags: W
LayerCount: 2
Fore
SplineSet
256 0 m 1,0,-1
 256 64 l 1,1,-1
 320 64 l 1,2,-1
 320 0 l 1,3,-1
 256 0 l 1,0,-1
0 0 m 1,4,-1
 0 64 l 1,5,-1
 0 128 l 1,6,-1
 0 192 l 1,7,-1
 0 256 l 1,8,-1
 0 320 l 1,9,-1
 0 384 l 1,10,-1
 0 448 l 1,11,-1
 64 448 l 1,12,-1
 64 384 l 1,13,-1
 64 320 l 1,14,-1
 64 256 l 1,15,-1
 128 256 l 1,16,-1
 128 192 l 1,17,-1
 192 192 l 1,18,-1
 192 128 l 1,19,-1
 256 128 l 1,20,-1
 256 64 l 1,21,-1
 192 64 l 1,22,-1
 192 128 l 1,23,-1
 128 128 l 1,24,-1
 128 192 l 1,25,-1
 64 192 l 1,26,-1
 64 128 l 1,27,-1
 64 64 l 1,28,-1
 64 0 l 1,29,-1
 0 0 l 1,4,-1
128 256 m 1,30,-1
 128 320 l 1,31,-1
 192 320 l 1,32,-1
 192 256 l 1,33,-1
 128 256 l 1,30,-1
192 320 m 1,34,-1
 192 384 l 1,35,-1
 256 384 l 1,36,-1
 256 320 l 1,37,-1
 192 320 l 1,34,-1
256 384 m 1,38,-1
 256 448 l 1,39,-1
 320 448 l 1,40,-1
 320 384 l 1,41,-1
 256 384 l 1,38,-1
EndSplineSet
Validated: 5
EndChar

StartChar: L
Encoding: 76 76 47
Width: 384
GlyphClass: 2
Flags: W
LayerCount: 2
Fore
SplineSet
256 64 m 1,0,-1
 320 64 l 1,1,-1
 320 0 l 1,2,-1
 256 0 l 1,3,-1
 192 0 l 1,4,-1
 128 0 l 1,5,-1
 64 0 l 1,6,-1
 0 0 l 1,7,-1
 0 64 l 1,8,-1
 0 128 l 1,9,-1
 0 192 l 1,10,-1
 0 256 l 1,11,-1
 0 320 l 1,12,-1
 0 384 l 1,13,-1
 0 448 l 1,14,-1
 64 448 l 1,15,-1
 64 384 l 1,16,-1
 64 320 l 1,17,-1
 64 256 l 1,18,-1
 64 192 l 1,19,-1
 64 128 l 1,20,-1
 64 64 l 1,21,-1
 128 64 l 1,22,-1
 192 64 l 1,23,-1
 256 64 l 1,0,-1
EndSplineSet
Validated: 1
EndChar

StartChar: M
Encoding: 77 77 48
Width: 512
GlyphClass: 2
Flags: W
LayerCount: 2
Fore
SplineSet
384 0 m 1,0,-1
 384 64 l 1,1,-1
 384 128 l 1,2,-1
 384 192 l 1,3,-1
 384 256 l 1,4,-1
 384 320 l 1,5,-1
 320 320 l 1,6,-1
 320 256 l 1,7,-1
 256 256 l 1,8,-1
 256 192 l 1,9,-1
 192 192 l 1,10,-1
 192 256 l 1,11,-1
 256 256 l 1,12,-1
 256 320 l 1,13,-1
 320 320 l 1,14,-1
 320 384 l 1,15,-1
 384 384 l 1,16,-1
 384 448 l 1,17,-1
 448 448 l 1,18,-1
 448 384 l 1,19,-1
 448 320 l 1,20,-1
 448 256 l 1,21,-1
 448 192 l 1,22,-1
 448 128 l 1,23,-1
 448 64 l 1,24,-1
 448 0 l 1,25,-1
 384 0 l 1,0,-1
0 0 m 1,26,-1
 0 64 l 1,27,-1
 0 128 l 1,28,-1
 0 192 l 1,29,-1
 0 256 l 1,30,-1
 0 320 l 1,31,-1
 0 384 l 1,32,-1
 0 448 l 1,33,-1
 64 448 l 1,34,-1
 64 384 l 1,35,-1
 128 384 l 1,36,-1
 128 320 l 1,37,-1
 192 320 l 1,38,-1
 192 256 l 1,39,-1
 128 256 l 1,40,-1
 128 320 l 1,41,-1
 64 320 l 1,42,-1
 64 256 l 1,43,-1
 64 192 l 1,44,-1
 64 128 l 1,45,-1
 64 64 l 1,46,-1
 64 0 l 1,47,-1
 0 0 l 1,26,-1
EndSplineSet
Validated: 5
EndChar

StartChar: N
Encoding: 78 78 49
Width: 448
GlyphClass: 2
Flags: W
LayerCount: 2
Fore
SplineSet
320 0 m 1,0,-1
 320 64 l 1,1,-1
 320 128 l 1,2,-1
 256 128 l 1,3,-1
 256 192 l 1,4,-1
 320 192 l 1,5,-1
 320 256 l 1,6,-1
 320 320 l 1,7,-1
 320 384 l 1,8,-1
 320 448 l 1,9,-1
 384 448 l 1,10,-1
 384 384 l 1,11,-1
 384 320 l 1,12,-1
 384 256 l 1,13,-1
 384 192 l 1,14,-1
 384 128 l 1,15,-1
 384 64 l 1,16,-1
 384 0 l 1,17,-1
 320 0 l 1,0,-1
0 0 m 1,18,-1
 0 64 l 1,19,-1
 0 128 l 1,20,-1
 0 192 l 1,21,-1
 0 256 l 1,22,-1
 0 320 l 1,23,-1
 0 384 l 1,24,-1
 0 448 l 1,25,-1
 64 448 l 1,26,-1
 64 384 l 1,27,-1
 128 384 l 1,28,-1
 128 320 l 1,29,-1
 192 320 l 1,30,-1
 192 256 l 1,31,-1
 256 256 l 1,32,-1
 256 192 l 1,33,-1
 192 192 l 1,34,-1
 192 256 l 1,35,-1
 128 256 l 1,36,-1
 128 320 l 1,37,-1
 64 320 l 1,38,-1
 64 256 l 1,39,-1
 64 192 l 1,40,-1
 64 128 l 1,41,-1
 64 64 l 1,42,-1
 64 0 l 1,43,-1
 0 0 l 1,18,-1
EndSplineSet
Validated: 5
EndChar

StartChar: O
Encoding: 79 79 50
Width: 384
GlyphClass: 2
Flags: W
LayerCount: 2
Fore
SplineSet
192 64 m 1,0,-1
 256 64 l 1,1,-1
 256 0 l 1,2,-1
 192 0 l 1,3,-1
 128 0 l 1,4,-1
 64 0 l 1,5,-1
 64 64 l 1,6,-1
 128 64 l 1,7,-1
 192 64 l 1,0,-1
256 64 m 1,8,-1
 256 128 l 1,9,-1
 256 192 l 1,10,-1
 256 256 l 1,11,-1
 256 320 l 1,12,-1
 256 384 l 1,13,-1
 320 384 l 1,14,-1
 320 320 l 1,15,-1
 320 256 l 1,16,-1
 320 192 l 1,17,-1
 320 128 l 1,18,-1
 320 64 l 1,19,-1
 256 64 l 1,8,-1
64 64 m 1,20,-1
 0 64 l 1,21,-1
 0 128 l 1,22,-1
 0 192 l 1,23,-1
 0 256 l 1,24,-1
 0 320 l 1,25,-1
 0 384 l 1,26,-1
 64 384 l 1,27,-1
 64 320 l 1,28,-1
 64 256 l 1,29,-1
 64 192 l 1,30,-1
 64 128 l 1,31,-1
 64 64 l 1,20,-1
256 384 m 1,32,-1
 192 384 l 1,33,-1
 128 384 l 1,34,-1
 64 384 l 1,35,-1
 64 448 l 1,36,-1
 128 448 l 1,37,-1
 192 448 l 1,38,-1
 256 448 l 1,39,-1
 256 384 l 1,32,-1
EndSplineSet
Validated: 5
EndChar

StartChar: P
Encoding: 80 80 51
Width: 384
GlyphClass: 2
Flags: W
LayerCount: 2
Fore
SplineSet
0 0 m 1,0,-1
 0 64 l 1,1,-1
 0 128 l 1,2,-1
 0 192 l 1,3,-1
 0 256 l 1,4,-1
 0 320 l 1,5,-1
 0 384 l 1,6,-1
 0 448 l 1,7,-1
 64 448 l 1,8,-1
 128 448 l 1,9,-1
 192 448 l 1,10,-1
 256 448 l 1,11,-1
 256 384 l 1,12,-1
 320 384 l 1,13,-1
 320 320 l 1,14,-1
 320 256 l 1,15,-1
 256 256 l 1,16,-1
 256 320 l 1,17,-1
 256 384 l 1,18,-1
 192 384 l 1,19,-1
 128 384 l 1,20,-1
 64 384 l 1,21,-1
 64 320 l 1,22,-1
 64 256 l 1,23,-1
 128 256 l 1,24,-1
 192 256 l 1,25,-1
 256 256 l 1,26,-1
 256 192 l 1,27,-1
 192 192 l 1,28,-1
 128 192 l 1,29,-1
 64 192 l 1,30,-1
 64 128 l 1,31,-1
 64 64 l 1,32,-1
 64 0 l 1,33,-1
 0 0 l 1,0,-1
EndSplineSet
Validated: 5
EndChar

StartChar: Q
Encoding: 81 81 52
Width: 384
GlyphClass: 2
Flags: W
LayerCount: 2
Fore
SplineSet
256 -64 m 1,0,-1
 256 0 l 1,1,-1
 320 0 l 1,2,-1
 320 -64 l 1,3,-1
 256 -64 l 1,0,-1
256 0 m 1,4,-1
 192 0 l 1,5,-1
 128 0 l 1,6,-1
 64 0 l 1,7,-1
 64 64 l 1,8,-1
 128 64 l 1,9,-1
 192 64 l 1,10,-1
 256 64 l 1,11,-1
 256 0 l 1,4,-1
256 64 m 1,12,-1
 256 128 l 1,13,-1
 256 192 l 1,14,-1
 256 256 l 1,15,-1
 256 320 l 1,16,-1
 256 384 l 1,17,-1
 320 384 l 1,18,-1
 320 320 l 1,19,-1
 320 256 l 1,20,-1
 320 192 l 1,21,-1
 320 128 l 1,22,-1
 320 64 l 1,23,-1
 256 64 l 1,12,-1
64 64 m 1,24,-1
 0 64 l 1,25,-1
 0 128 l 1,26,-1
 0 192 l 1,27,-1
 0 256 l 1,28,-1
 0 320 l 1,29,-1
 0 384 l 1,30,-1
 64 384 l 1,31,-1
 64 320 l 1,32,-1
 64 256 l 1,33,-1
 64 192 l 1,34,-1
 64 128 l 1,35,-1
 64 64 l 1,24,-1
256 384 m 1,36,-1
 192 384 l 1,37,-1
 128 384 l 1,38,-1
 64 384 l 1,39,-1
 64 448 l 1,40,-1
 128 448 l 1,41,-1
 192 448 l 1,42,-1
 256 448 l 1,43,-1
 256 384 l 1,36,-1
EndSplineSet
Validated: 5
EndChar

StartChar: R
Encoding: 82 82 53
Width: 384
GlyphClass: 2
Flags: W
LayerCount: 2
Fore
SplineSet
256 0 m 1,0,-1
 256 64 l 1,1,-1
 320 64 l 1,2,-1
 320 0 l 1,3,-1
 256 0 l 1,0,-1
0 0 m 1,4,-1
 0 64 l 1,5,-1
 0 128 l 1,6,-1
 0 192 l 1,7,-1
 0 256 l 1,8,-1
 0 320 l 1,9,-1
 0 384 l 1,10,-1
 0 448 l 1,11,-1
 64 448 l 1,12,-1
 128 448 l 1,13,-1
 192 448 l 1,14,-1
 256 448 l 1,15,-1
 256 384 l 1,16,-1
 320 384 l 1,17,-1
 320 320 l 1,18,-1
 320 256 l 1,19,-1
 256 256 l 1,20,-1
 256 320 l 1,21,-1
 256 384 l 1,22,-1
 192 384 l 1,23,-1
 128 384 l 1,24,-1
 64 384 l 1,25,-1
 64 320 l 1,26,-1
 64 256 l 1,27,-1
 128 256 l 1,28,-1
 192 256 l 1,29,-1
 256 256 l 1,30,-1
 256 192 l 1,31,-1
 192 192 l 1,32,-1
 192 128 l 1,33,-1
 256 128 l 1,34,-1
 256 64 l 1,35,-1
 192 64 l 1,36,-1
 192 128 l 1,37,-1
 128 128 l 1,38,-1
 128 192 l 1,39,-1
 64 192 l 1,40,-1
 64 128 l 1,41,-1
 64 64 l 1,42,-1
 64 0 l 1,43,-1
 0 0 l 1,4,-1
EndSplineSet
Validated: 5
EndChar

StartChar: S
Encoding: 83 83 54
Width: 384
GlyphClass: 2
Flags: W
LayerCount: 2
Fore
SplineSet
256 320 m 1,0,-1
 256 384 l 1,1,-1
 320 384 l 1,2,-1
 320 320 l 1,3,-1
 256 320 l 1,0,-1
192 64 m 1,4,-1
 256 64 l 1,5,-1
 256 0 l 1,6,-1
 192 0 l 1,7,-1
 128 0 l 1,8,-1
 64 0 l 1,9,-1
 64 64 l 1,10,-1
 128 64 l 1,11,-1
 192 64 l 1,4,-1
256 64 m 1,12,-1
 256 128 l 1,13,-1
 256 192 l 1,14,-1
 320 192 l 1,15,-1
 320 128 l 1,16,-1
 320 64 l 1,17,-1
 256 64 l 1,12,-1
64 64 m 1,18,-1
 0 64 l 1,19,-1
 0 128 l 1,20,-1
 64 128 l 1,21,-1
 64 64 l 1,18,-1
256 192 m 1,22,-1
 192 192 l 1,23,-1
 128 192 l 1,24,-1
 64 192 l 1,25,-1
 64 256 l 1,26,-1
 128 256 l 1,27,-1
 192 256 l 1,28,-1
 256 256 l 1,29,-1
 256 192 l 1,22,-1
64 256 m 1,30,-1
 0 256 l 1,31,-1
 0 320 l 1,32,-1
 0 384 l 1,33,-1
 64 384 l 1,34,-1
 64 320 l 1,35,-1
 64 256 l 1,30,-1
256 384 m 1,36,-1
 192 384 l 1,37,-1
 128 384 l 1,38,-1
 64 384 l 1,39,-1
 64 448 l 1,40,-1
 128 448 l 1,41,-1
 192 448 l 1,42,-1
 256 448 l 1,43,-1
 256 384 l 1,36,-1
EndSplineSet
Validated: 5
EndChar

StartChar: T
Encoding: 84 84 55
Width: 384
GlyphClass: 2
Flags: W
LayerCount: 2
Fore
SplineSet
128 0 m 1,0,-1
 128 64 l 1,1,-1
 128 128 l 1,2,-1
 128 192 l 1,3,-1
 128 256 l 1,4,-1
 128 320 l 1,5,-1
 128 384 l 1,6,-1
 64 384 l 1,7,-1
 0 384 l 1,8,-1
 0 448 l 1,9,-1
 64 448 l 1,10,-1
 128 448 l 1,11,-1
 192 448 l 1,12,-1
 256 448 l 1,13,-1
 320 448 l 1,14,-1
 320 384 l 1,15,-1
 256 384 l 1,16,-1
 192 384 l 1,17,-1
 192 320 l 1,18,-1
 192 256 l 1,19,-1
 192 192 l 1,20,-1
 192 128 l 1,21,-1
 192 64 l 1,22,-1
 192 0 l 1,23,-1
 128 0 l 1,0,-1
EndSplineSet
Validated: 1
EndChar

StartChar: U
Encoding: 85 85 56
Width: 384
GlyphClass: 2
Flags: W
LayerCount: 2
Fore
SplineSet
192 64 m 1,0,-1
 256 64 l 1,1,-1
 256 0 l 1,2,-1
 192 0 l 1,3,-1
 128 0 l 1,4,-1
 64 0 l 1,5,-1
 64 64 l 1,6,-1
 128 64 l 1,7,-1
 192 64 l 1,0,-1
256 64 m 1,8,-1
 256 128 l 1,9,-1
 256 192 l 1,10,-1
 256 256 l 1,11,-1
 256 320 l 1,12,-1
 256 384 l 1,13,-1
 256 448 l 1,14,-1
 320 448 l 1,15,-1
 320 384 l 1,16,-1
 320 320 l 1,17,-1
 320 256 l 1,18,-1
 320 192 l 1,19,-1
 320 128 l 1,20,-1
 320 64 l 1,21,-1
 256 64 l 1,8,-1
64 64 m 1,22,-1
 0 64 l 1,23,-1
 0 128 l 1,24,-1
 0 192 l 1,25,-1
 0 256 l 1,26,-1
 0 320 l 1,27,-1
 0 384 l 1,28,-1
 0 448 l 1,29,-1
 64 448 l 1,30,-1
 64 384 l 1,31,-1
 64 320 l 1,32,-1
 64 256 l 1,33,-1
 64 192 l 1,34,-1
 64 128 l 1,35,-1
 64 64 l 1,22,-1
EndSplineSet
Validated: 5
EndChar

StartChar: V
Encoding: 86 86 57
Width: 512
GlyphClass: 2
Flags: W
LayerCount: 2
Fore
SplineSet
192 0 m 1,0,-1
 192 64 l 1,1,-1
 192 128 l 1,2,-1
 256 128 l 1,3,-1
 256 64 l 1,4,-1
 256 0 l 1,5,-1
 192 0 l 1,0,-1
256 128 m 1,6,-1
 256 192 l 1,7,-1
 256 256 l 1,8,-1
 320 256 l 1,9,-1
 320 192 l 1,10,-1
 320 128 l 1,11,-1
 256 128 l 1,6,-1
192 128 m 1,12,-1
 128 128 l 1,13,-1
 128 192 l 1,14,-1
 128 256 l 1,15,-1
 192 256 l 1,16,-1
 192 192 l 1,17,-1
 192 128 l 1,12,-1
320 256 m 1,18,-1
 320 320 l 1,19,-1
 320 384 l 1,20,-1
 384 384 l 1,21,-1
 384 320 l 1,22,-1
 384 256 l 1,23,-1
 320 256 l 1,18,-1
128 256 m 1,24,-1
 64 256 l 1,25,-1
 64 320 l 1,26,-1
 64 384 l 1,27,-1
 128 384 l 1,28,-1
 128 320 l 1,29,-1
 128 256 l 1,24,-1
384 384 m 1,30,-1
 384 448 l 1,31,-1
 448 448 l 1,32,-1
 448 384 l 1,33,-1
 384 384 l 1,30,-1
64 384 m 1,34,-1
 0 384 l 1,35,-1
 0 448 l 1,36,-1
 64 448 l 1,37,-1
 64 384 l 1,34,-1
EndSplineSet
Validated: 5
EndChar

StartChar: W
Encoding: 87 87 58
Width: 512
GlyphClass: 2
Flags: W
LayerCount: 2
Fore
SplineSet
384 0 m 1,0,-1
 384 64 l 1,1,-1
 320 64 l 1,2,-1
 320 128 l 1,3,-1
 384 128 l 1,4,-1
 384 192 l 1,5,-1
 384 256 l 1,6,-1
 384 320 l 1,7,-1
 384 384 l 1,8,-1
 384 448 l 1,9,-1
 448 448 l 1,10,-1
 448 384 l 1,11,-1
 448 320 l 1,12,-1
 448 256 l 1,13,-1
 448 192 l 1,14,-1
 448 128 l 1,15,-1
 448 64 l 1,16,-1
 448 0 l 1,17,-1
 384 0 l 1,0,-1
0 0 m 1,18,-1
 0 64 l 1,19,-1
 0 128 l 1,20,-1
 0 192 l 1,21,-1
 0 256 l 1,22,-1
 0 320 l 1,23,-1
 0 384 l 1,24,-1
 0 448 l 1,25,-1
 64 448 l 1,26,-1
 64 384 l 1,27,-1
 64 320 l 1,28,-1
 64 256 l 1,29,-1
 64 192 l 1,30,-1
 64 128 l 1,31,-1
 128 128 l 1,32,-1
 128 64 l 1,33,-1
 64 64 l 1,34,-1
 64 0 l 1,35,-1
 0 0 l 1,18,-1
320 128 m 1,36,-1
 256 128 l 1,37,-1
 256 192 l 1,38,-1
 320 192 l 1,39,-1
 320 128 l 1,36,-1
128 128 m 1,40,-1
 128 192 l 1,41,-1
 192 192 l 1,42,-1
 192 128 l 1,43,-1
 128 128 l 1,40,-1
256 192 m 1,44,-1
 192 192 l 1,45,-1
 192 256 l 1,46,-1
 256 256 l 1,47,-1
 256 192 l 1,44,-1
EndSplineSet
Validated: 5
EndChar

StartChar: X
Encoding: 88 88 59
Width: 384
GlyphClass: 2
Flags: W
LayerCount: 2
Fore
SplineSet
256 0 m 1,0,-1
 256 64 l 1,1,-1
 256 128 l 1,2,-1
 320 128 l 1,3,-1
 320 64 l 1,4,-1
 320 0 l 1,5,-1
 256 0 l 1,0,-1
0 0 m 1,6,-1
 0 64 l 1,7,-1
 0 128 l 1,8,-1
 64 128 l 1,9,-1
 64 64 l 1,10,-1
 64 0 l 1,11,-1
 0 0 l 1,6,-1
256 128 m 1,12,-1
 192 128 l 1,13,-1
 192 192 l 1,14,-1
 256 192 l 1,15,-1
 256 128 l 1,12,-1
64 128 m 1,16,-1
 64 192 l 1,17,-1
 128 192 l 1,18,-1
 128 128 l 1,19,-1
 64 128 l 1,16,-1
192 192 m 1,20,-1
 128 192 l 1,21,-1
 128 256 l 1,22,-1
 192 256 l 1,23,-1
 192 192 l 1,20,-1
192 256 m 1,24,-1
 192 320 l 1,25,-1
 256 320 l 1,26,-1
 256 256 l 1,27,-1
 192 256 l 1,24,-1
128 256 m 1,28,-1
 64 256 l 1,29,-1
 64 320 l 1,30,-1
 128 320 l 1,31,-1
 128 256 l 1,28,-1
256 320 m 1,32,-1
 256 384 l 1,33,-1
 256 448 l 1,34,-1
 320 448 l 1,35,-1
 320 384 l 1,36,-1
 320 320 l 1,37,-1
 256 320 l 1,32,-1
64 320 m 1,38,-1
 0 320 l 1,39,-1
 0 384 l 1,40,-1
 0 448 l 1,41,-1
 64 448 l 1,42,-1
 64 384 l 1,43,-1
 64 320 l 1,38,-1
EndSplineSet
Validated: 5
EndChar

StartChar: Y
Encoding: 89 89 60
Width: 384
GlyphClass: 2
Flags: W
LayerCount: 2
Fore
SplineSet
128 0 m 1,0,-1
 128 64 l 1,1,-1
 128 128 l 1,2,-1
 128 192 l 1,3,-1
 192 192 l 1,4,-1
 192 128 l 1,5,-1
 192 64 l 1,6,-1
 192 0 l 1,7,-1
 128 0 l 1,0,-1
192 192 m 1,8,-1
 192 256 l 1,9,-1
 256 256 l 1,10,-1
 256 192 l 1,11,-1
 192 192 l 1,8,-1
128 192 m 1,12,-1
 64 192 l 1,13,-1
 64 256 l 1,14,-1
 128 256 l 1,15,-1
 128 192 l 1,12,-1
256 256 m 1,16,-1
 256 320 l 1,17,-1
 256 384 l 1,18,-1
 256 448 l 1,19,-1
 320 448 l 1,20,-1
 320 384 l 1,21,-1
 320 320 l 1,22,-1
 320 256 l 1,23,-1
 256 256 l 1,16,-1
64 256 m 1,24,-1
 0 256 l 1,25,-1
 0 320 l 1,26,-1
 0 384 l 1,27,-1
 0 448 l 1,28,-1
 64 448 l 1,29,-1
 64 384 l 1,30,-1
 64 320 l 1,31,-1
 64 256 l 1,24,-1
EndSplineSet
Validated: 5
EndChar

StartChar: Z
Encoding: 90 90 61
Width: 384
GlyphClass: 2
Flags: W
LayerCount: 2
Fore
SplineSet
256 64 m 1,0,-1
 320 64 l 1,1,-1
 320 0 l 1,2,-1
 256 0 l 1,3,-1
 192 0 l 1,4,-1
 128 0 l 1,5,-1
 64 0 l 1,6,-1
 0 0 l 1,7,-1
 0 64 l 1,8,-1
 0 128 l 1,9,-1
 64 128 l 1,10,-1
 64 64 l 1,11,-1
 128 64 l 1,12,-1
 192 64 l 1,13,-1
 256 64 l 1,0,-1
64 128 m 1,14,-1
 64 192 l 1,15,-1
 128 192 l 1,16,-1
 128 128 l 1,17,-1
 64 128 l 1,14,-1
128 192 m 1,18,-1
 128 256 l 1,19,-1
 192 256 l 1,20,-1
 192 192 l 1,21,-1
 128 192 l 1,18,-1
192 256 m 1,22,-1
 192 320 l 1,23,-1
 256 320 l 1,24,-1
 256 256 l 1,25,-1
 192 256 l 1,22,-1
256 320 m 1,26,-1
 256 384 l 1,27,-1
 192 384 l 1,28,-1
 128 384 l 1,29,-1
 64 384 l 1,30,-1
 0 384 l 1,31,-1
 0 448 l 1,32,-1
 64 448 l 1,33,-1
 128 448 l 1,34,-1
 192 448 l 1,35,-1
 256 448 l 1,36,-1
 320 448 l 1,37,-1
 320 384 l 1,38,-1
 320 320 l 1,39,-1
 256 320 l 1,26,-1
EndSplineSet
Validated: 5
EndChar

StartChar: bracketleft
Encoding: 91 91 62
Width: 192
GlyphClass: 2
Flags: W
LayerCount: 2
Fore
SplineSet
64 -64 m 1,0,-1
 0 -64 l 1,1,-1
 0 0 l 1,2,-1
 0 64 l 1,3,-1
 0 128 l 1,4,-1
 0 192 l 1,5,-1
 0 256 l 1,6,-1
 0 320 l 1,7,-1
 0 384 l 1,8,-1
 0 448 l 1,9,-1
 64 448 l 1,10,-1
 128 448 l 1,11,-1
 128 384 l 1,12,-1
 64 384 l 1,13,-1
 64 320 l 1,14,-1
 64 256 l 1,15,-1
 64 192 l 1,16,-1
 64 128 l 1,17,-1
 64 64 l 1,18,-1
 64 0 l 1,19,-1
 128 0 l 1,20,-1
 128 -64 l 1,21,-1
 64 -64 l 1,0,-1
EndSplineSet
Validated: 1
EndChar

StartChar: backslash
Encoding: 92 92 63
Width: 256
GlyphClass: 2
Flags: W
LayerCount: 2
Fore
SplineSet
128 0 m 1,0,-1
 128 64 l 1,1,-1
 128 128 l 1,2,-1
 192 128 l 1,3,-1
 192 64 l 1,4,-1
 192 0 l 1,5,-1
 128 0 l 1,0,-1
128 128 m 1,6,-1
 64 128 l 1,7,-1
 64 192 l 1,8,-1
 64 256 l 1,9,-1
 64 320 l 1,10,-1
 128 320 l 1,11,-1
 128 256 l 1,12,-1
 128 192 l 1,13,-1
 128 128 l 1,6,-1
64 320 m 1,14,-1
 0 320 l 1,15,-1
 0 384 l 1,16,-1
 0 448 l 1,17,-1
 64 448 l 1,18,-1
 64 384 l 1,19,-1
 64 320 l 1,14,-1
EndSplineSet
Validated: 5
EndChar

StartChar: bracketright
Encoding: 93 93 64
Width: 192
GlyphClass: 2
Flags: W
LayerCount: 2
Fore
SplineSet
64 -64 m 1,0,-1
 0 -64 l 1,1,-1
 0 0 l 1,2,-1
 64 0 l 1,3,-1
 64 64 l 1,4,-1
 64 128 l 1,5,-1
 64 192 l 1,6,-1
 64 256 l 1,7,-1
 64 320 l 1,8,-1
 64 384 l 1,9,-1
 0 384 l 1,10,-1
 0 448 l 1,11,-1
 64 448 l 1,12,-1
 128 448 l 1,13,-1
 128 384 l 1,14,-1
 128 320 l 1,15,-1
 128 256 l 1,16,-1
 128 192 l 1,17,-1
 128 128 l 1,18,-1
 128 64 l 1,19,-1
 128 0 l 1,20,-1
 128 -64 l 1,21,-1
 64 -64 l 1,0,-1
EndSplineSet
Validated: 1
EndChar

StartChar: asciicircum
Encoding: 94 94 65
Width: 384
GlyphClass: 2
Flags: W
LayerCount: 2
Fore
SplineSet
256 192 m 1,0,-1
 256 256 l 1,1,-1
 256 320 l 1,2,-1
 320 320 l 1,3,-1
 320 256 l 1,4,-1
 320 192 l 1,5,-1
 256 192 l 1,0,-1
0 192 m 1,6,-1
 0 256 l 1,7,-1
 0 320 l 1,8,-1
 64 320 l 1,9,-1
 64 256 l 1,10,-1
 64 192 l 1,11,-1
 0 192 l 1,6,-1
256 320 m 1,12,-1
 192 320 l 1,13,-1
 192 384 l 1,14,-1
 256 384 l 1,15,-1
 256 320 l 1,12,-1
64 320 m 1,16,-1
 64 384 l 1,17,-1
 128 384 l 1,18,-1
 128 320 l 1,19,-1
 64 320 l 1,16,-1
192 384 m 1,20,-1
 128 384 l 1,21,-1
 128 448 l 1,22,-1
 192 448 l 1,23,-1
 192 384 l 1,20,-1
EndSplineSet
Validated: 5
EndChar

StartChar: underscore
Encoding: 95 95 66
Width: 384
GlyphClass: 2
Flags: W
LayerCount: 2
Fore
SplineSet
256 0 m 1,0,-1
 320 0 l 1,1,-1
 320 -64 l 1,2,-1
 256 -64 l 1,3,-1
 192 -64 l 1,4,-1
 128 -64 l 1,5,-1
 64 -64 l 1,6,-1
 0 -64 l 1,7,-1
 0 0 l 1,8,-1
 64 0 l 1,9,-1
 128 0 l 1,10,-1
 192 0 l 1,11,-1
 256 0 l 1,0,-1
EndSplineSet
Validated: 1
EndChar

StartChar: grave
Encoding: 96 96 67
Width: 192
GlyphClass: 2
Flags: W
LayerCount: 2
Fore
SplineSet
64 320 m 1,0,-1
 64 384 l 1,1,-1
 128 384 l 1,2,-1
 128 320 l 1,3,-1
 64 320 l 1,0,-1
64 384 m 1,4,-1
 0 384 l 1,5,-1
 0 448 l 1,6,-1
 64 448 l 1,7,-1
 64 384 l 1,4,-1
EndSplineSet
Validated: 5
EndChar

StartChar: a
Encoding: 97 97 68
Width: 448
GlyphClass: 2
Flags: W
LayerCount: 2
Fore
SplineSet
320 0 m 1,0,-1
 320 64 l 1,1,-1
 384 64 l 1,2,-1
 384 0 l 1,3,-1
 320 0 l 1,0,-1
192 64 m 1,4,-1
 256 64 l 1,5,-1
 256 0 l 1,6,-1
 192 0 l 1,7,-1
 128 0 l 1,8,-1
 64 0 l 1,9,-1
 64 64 l 1,10,-1
 128 64 l 1,11,-1
 192 64 l 1,4,-1
320 64 m 1,12,-1
 256 64 l 1,13,-1
 256 128 l 1,14,-1
 192 128 l 1,15,-1
 128 128 l 1,16,-1
 64 128 l 1,17,-1
 64 64 l 1,18,-1
 0 64 l 1,19,-1
 0 128 l 1,20,-1
 64 128 l 1,21,-1
 64 192 l 1,22,-1
 128 192 l 1,23,-1
 192 192 l 1,24,-1
 256 192 l 1,25,-1
 256 256 l 1,26,-1
 320 256 l 1,27,-1
 320 192 l 1,28,-1
 320 128 l 1,29,-1
 320 64 l 1,12,-1
256 256 m 1,30,-1
 192 256 l 1,31,-1
 128 256 l 1,32,-1
 64 256 l 1,33,-1
 64 320 l 1,34,-1
 128 320 l 1,35,-1
 192 320 l 1,36,-1
 256 320 l 1,37,-1
 256 256 l 1,30,-1
EndSplineSet
Validated: 5
EndChar

StartChar: b
Encoding: 98 98 69
Width: 384
GlyphClass: 2
Flags: W
LayerCount: 2
Fore
SplineSet
0 0 m 1,0,-1
 0 64 l 1,1,-1
 0 128 l 1,2,-1
 0 192 l 1,3,-1
 0 256 l 1,4,-1
 0 320 l 1,5,-1
 0 384 l 1,6,-1
 0 448 l 1,7,-1
 64 448 l 1,8,-1
 64 384 l 1,9,-1
 64 320 l 1,10,-1
 128 320 l 1,11,-1
 192 320 l 1,12,-1
 256 320 l 1,13,-1
 256 256 l 1,14,-1
 320 256 l 1,15,-1
 320 192 l 1,16,-1
 320 128 l 1,17,-1
 320 64 l 1,18,-1
 256 64 l 1,19,-1
 256 128 l 1,20,-1
 256 192 l 1,21,-1
 256 256 l 1,22,-1
 192 256 l 1,23,-1
 128 256 l 1,24,-1
 64 256 l 1,25,-1
 64 192 l 1,26,-1
 64 128 l 1,27,-1
 128 128 l 1,28,-1
 128 64 l 1,29,-1
 192 64 l 1,30,-1
 256 64 l 1,31,-1
 256 0 l 1,32,-1
 192 0 l 1,33,-1
 128 0 l 1,34,-1
 128 64 l 1,35,-1
 64 64 l 1,36,-1
 64 0 l 1,37,-1
 0 0 l 1,0,-1
EndSplineSet
Validated: 5
EndChar

StartChar: c
Encoding: 99 99 70
Width: 384
GlyphClass: 2
Flags: W
LayerCount: 2
Fore
SplineSet
256 192 m 1,0,-1
 256 256 l 1,1,-1
 320 256 l 1,2,-1
 320 192 l 1,3,-1
 256 192 l 1,0,-1
192 64 m 1,4,-1
 256 64 l 1,5,-1
 256 0 l 1,6,-1
 192 0 l 1,7,-1
 128 0 l 1,8,-1
 64 0 l 1,9,-1
 64 64 l 1,10,-1
 128 64 l 1,11,-1
 192 64 l 1,4,-1
256 64 m 1,12,-1
 256 128 l 1,13,-1
 320 128 l 1,14,-1
 320 64 l 1,15,-1
 256 64 l 1,12,-1
64 64 m 1,16,-1
 0 64 l 1,17,-1
 0 128 l 1,18,-1
 0 192 l 1,19,-1
 0 256 l 1,20,-1
 64 256 l 1,21,-1
 64 192 l 1,22,-1
 64 128 l 1,23,-1
 64 64 l 1,16,-1
256 256 m 1,24,-1
 192 256 l 1,25,-1
 128 256 l 1,26,-1
 64 256 l 1,27,-1
 64 320 l 1,28,-1
 128 320 l 1,29,-1
 192 320 l 1,30,-1
 256 320 l 1,31,-1
 256 256 l 1,24,-1
EndSplineSet
Validated: 5
EndChar

StartChar: d
Encoding: 100 100 71
Width: 384
GlyphClass: 2
Flags: W
LayerCount: 2
Fore
SplineSet
256 0 m 1,0,-1
 256 64 l 1,1,-1
 192 64 l 1,2,-1
 192 128 l 1,3,-1
 256 128 l 1,4,-1
 256 192 l 1,5,-1
 256 256 l 1,6,-1
 192 256 l 1,7,-1
 128 256 l 1,8,-1
 64 256 l 1,9,-1
 64 192 l 1,10,-1
 64 128 l 1,11,-1
 64 64 l 1,12,-1
 128 64 l 1,13,-1
 192 64 l 1,14,-1
 192 0 l 1,15,-1
 128 0 l 1,16,-1
 64 0 l 1,17,-1
 64 64 l 1,18,-1
 0 64 l 1,19,-1
 0 128 l 1,20,-1
 0 192 l 1,21,-1
 0 256 l 1,22,-1
 64 256 l 1,23,-1
 64 320 l 1,24,-1
 128 320 l 1,25,-1
 192 320 l 1,26,-1
 256 320 l 1,27,-1
 256 384 l 1,28,-1
 256 448 l 1,29,-1
 320 448 l 1,30,-1
 320 384 l 1,31,-1
 320 320 l 1,32,-1
 320 256 l 1,33,-1
 320 192 l 1,34,-1
 320 128 l 1,35,-1
 320 64 l 1,36,-1
 320 0 l 1,37,-1
 256 0 l 1,0,-1
EndSplineSet
Validated: 5
EndChar

StartChar: e
Encoding: 101 101 72
Width: 384
GlyphClass: 2
Flags: W
LayerCount: 2
Fore
SplineSet
192 64 m 1,0,-1
 256 64 l 1,1,-1
 256 0 l 1,2,-1
 192 0 l 1,3,-1
 128 0 l 1,4,-1
 64 0 l 1,5,-1
 64 64 l 1,6,-1
 128 64 l 1,7,-1
 192 64 l 1,0,-1
64 64 m 1,8,-1
 0 64 l 1,9,-1
 0 128 l 1,10,-1
 0 192 l 1,11,-1
 0 256 l 1,12,-1
 64 256 l 1,13,-1
 64 192 l 1,14,-1
 128 192 l 1,15,-1
 192 192 l 1,16,-1
 256 192 l 1,17,-1
 256 256 l 1,18,-1
 320 256 l 1,19,-1
 320 192 l 1,20,-1
 320 128 l 1,21,-1
 256 128 l 1,22,-1
 192 128 l 1,23,-1
 128 128 l 1,24,-1
 64 128 l 1,25,-1
 64 64 l 1,8,-1
256 256 m 1,26,-1
 192 256 l 1,27,-1
 128 256 l 1,28,-1
 64 256 l 1,29,-1
 64 320 l 1,30,-1
 128 320 l 1,31,-1
 192 320 l 1,32,-1
 256 320 l 1,33,-1
 256 256 l 1,26,-1
EndSplineSet
Validated: 5
EndChar

StartChar: f
Encoding: 102 102 73
Width: 320
GlyphClass: 2
Flags: W
LayerCount: 2
Fore
SplineSet
64 0 m 1,0,-1
 64 64 l 1,1,-1
 64 128 l 1,2,-1
 64 192 l 1,3,-1
 64 256 l 1,4,-1
 0 256 l 1,5,-1
 0 320 l 1,6,-1
 64 320 l 1,7,-1
 64 384 l 1,8,-1
 128 384 l 1,9,-1
 128 320 l 1,10,-1
 192 320 l 1,11,-1
 192 256 l 1,12,-1
 128 256 l 1,13,-1
 128 192 l 1,14,-1
 128 128 l 1,15,-1
 128 64 l 1,16,-1
 128 0 l 1,17,-1
 64 0 l 1,0,-1
192 448 m 1,18,-1
 256 448 l 1,19,-1
 256 384 l 1,20,-1
 192 384 l 1,21,-1
 128 384 l 1,22,-1
 128 448 l 1,23,-1
 192 448 l 1,18,-1
EndSplineSet
Validated: 5
EndChar

StartChar: g
Encoding: 103 103 74
Width: 384
GlyphClass: 2
Flags: W
LayerCount: 2
Fore
SplineSet
192 0 m 1,0,-1
 256 0 l 1,1,-1
 256 -64 l 1,2,-1
 192 -64 l 1,3,-1
 128 -64 l 1,4,-1
 64 -64 l 1,5,-1
 64 0 l 1,6,-1
 128 0 l 1,7,-1
 192 0 l 1,0,-1
256 0 m 1,8,-1
 256 64 l 1,9,-1
 192 64 l 1,10,-1
 128 64 l 1,11,-1
 64 64 l 1,12,-1
 64 128 l 1,13,-1
 128 128 l 1,14,-1
 192 128 l 1,15,-1
 256 128 l 1,16,-1
 256 192 l 1,17,-1
 256 256 l 1,18,-1
 320 256 l 1,19,-1
 320 192 l 1,20,-1
 320 128 l 1,21,-1
 320 64 l 1,22,-1
 320 0 l 1,23,-1
 256 0 l 1,8,-1
64 128 m 1,24,-1
 0 128 l 1,25,-1
 0 192 l 1,26,-1
 0 256 l 1,27,-1
 64 256 l 1,28,-1
 64 192 l 1,29,-1
 64 128 l 1,24,-1
256 256 m 1,30,-1
 192 256 l 1,31,-1
 128 256 l 1,32,-1
 64 256 l 1,33,-1
 64 320 l 1,34,-1
 128 320 l 1,35,-1
 192 320 l 1,36,-1
 256 320 l 1,37,-1
 256 256 l 1,30,-1
EndSplineSet
Validated: 5
EndChar

StartChar: h
Encoding: 104 104 75
Width: 384
GlyphClass: 2
Flags: W
LayerCount: 2
Fore
SplineSet
256 0 m 1,0,-1
 256 64 l 1,1,-1
 256 128 l 1,2,-1
 256 192 l 1,3,-1
 256 256 l 1,4,-1
 320 256 l 1,5,-1
 320 192 l 1,6,-1
 320 128 l 1,7,-1
 320 64 l 1,8,-1
 320 0 l 1,9,-1
 256 0 l 1,0,-1
0 0 m 1,10,-1
 0 64 l 1,11,-1
 0 128 l 1,12,-1
 0 192 l 1,13,-1
 0 256 l 1,14,-1
 0 320 l 1,15,-1
 0 384 l 1,16,-1
 0 448 l 1,17,-1
 64 448 l 1,18,-1
 64 384 l 1,19,-1
 64 320 l 1,20,-1
 64 256 l 1,21,-1
 128 256 l 1,22,-1
 128 192 l 1,23,-1
 64 192 l 1,24,-1
 64 128 l 1,25,-1
 64 64 l 1,26,-1
 64 0 l 1,27,-1
 0 0 l 1,10,-1
256 256 m 1,28,-1
 192 256 l 1,29,-1
 128 256 l 1,30,-1
 128 320 l 1,31,-1
 192 320 l 1,32,-1
 256 320 l 1,33,-1
 256 256 l 1,28,-1
EndSplineSet
Validated: 5
EndChar

StartChar: i
Encoding: 105 105 76
Width: 256
GlyphClass: 2
Flags: W
LayerCount: 2
Fore
SplineSet
64 384 m 1,0,-1
 64 448 l 1,1,-1
 128 448 l 1,2,-1
 128 384 l 1,3,-1
 64 384 l 1,0,-1
128 0 m 1,4,-1
 64 0 l 1,5,-1
 0 0 l 1,6,-1
 0 64 l 1,7,-1
 64 64 l 1,8,-1
 64 128 l 1,9,-1
 64 192 l 1,10,-1
 64 256 l 1,11,-1
 0 256 l 1,12,-1
 0 320 l 1,13,-1
 64 320 l 1,14,-1
 128 320 l 1,15,-1
 128 256 l 1,16,-1
 128 192 l 1,17,-1
 128 128 l 1,18,-1
 128 64 l 1,19,-1
 192 64 l 1,20,-1
 192 0 l 1,21,-1
 128 0 l 1,4,-1
EndSplineSet
Validated: 1
EndChar

StartChar: j
Encoding: 106 106 77
Width: 256
GlyphClass: 2
Flags: W
LayerCount: 2
Fore
SplineSet
128 384 m 1,0,-1
 128 448 l 1,1,-1
 192 448 l 1,2,-1
 192 384 l 1,3,-1
 128 384 l 1,0,-1
64 0 m 1,4,-1
 128 0 l 1,5,-1
 128 -64 l 1,6,-1
 64 -64 l 1,7,-1
 0 -64 l 1,8,-1
 0 0 l 1,9,-1
 64 0 l 1,4,-1
128 0 m 1,10,-1
 128 64 l 1,11,-1
 128 128 l 1,12,-1
 128 192 l 1,13,-1
 128 256 l 1,14,-1
 128 320 l 1,15,-1
 192 320 l 1,16,-1
 192 256 l 1,17,-1
 192 192 l 1,18,-1
 192 128 l 1,19,-1
 192 64 l 1,20,-1
 192 0 l 1,21,-1
 128 0 l 1,10,-1
EndSplineSet
Validated: 5
EndChar

StartChar: k
Encoding: 107 107 78
Width: 320
GlyphClass: 2
Flags: W
LayerCount: 2
Fore
SplineSet
192 0 m 1,0,-1
 192 64 l 1,1,-1
 256 64 l 1,2,-1
 256 0 l 1,3,-1
 192 0 l 1,0,-1
0 0 m 1,4,-1
 0 64 l 1,5,-1
 0 128 l 1,6,-1
 0 192 l 1,7,-1
 0 256 l 1,8,-1
 0 320 l 1,9,-1
 0 384 l 1,10,-1
 0 448 l 1,11,-1
 64 448 l 1,12,-1
 64 384 l 1,13,-1
 64 320 l 1,14,-1
 64 256 l 1,15,-1
 64 192 l 1,16,-1
 128 192 l 1,17,-1
 128 128 l 1,18,-1
 192 128 l 1,19,-1
 192 64 l 1,20,-1
 128 64 l 1,21,-1
 128 128 l 1,22,-1
 64 128 l 1,23,-1
 64 64 l 1,24,-1
 64 0 l 1,25,-1
 0 0 l 1,4,-1
128 192 m 1,26,-1
 128 256 l 1,27,-1
 192 256 l 1,28,-1
 192 192 l 1,29,-1
 128 192 l 1,26,-1
192 256 m 1,30,-1
 192 320 l 1,31,-1
 256 320 l 1,32,-1
 256 256 l 1,33,-1
 192 256 l 1,30,-1
EndSplineSet
Validated: 5
EndChar

StartChar: l
Encoding: 108 108 79
Width: 192
GlyphClass: 2
Flags: W
LayerCount: 2
Fore
SplineSet
64 0 m 1,0,-1
 64 64 l 1,1,-1
 64 128 l 1,2,-1
 64 192 l 1,3,-1
 64 256 l 1,4,-1
 64 320 l 1,5,-1
 64 384 l 1,6,-1
 0 384 l 1,7,-1
 0 448 l 1,8,-1
 64 448 l 1,9,-1
 128 448 l 1,10,-1
 128 384 l 1,11,-1
 128 320 l 1,12,-1
 128 256 l 1,13,-1
 128 192 l 1,14,-1
 128 128 l 1,15,-1
 128 64 l 1,16,-1
 128 0 l 1,17,-1
 64 0 l 1,0,-1
EndSplineSet
Validated: 1
EndChar

StartChar: m
Encoding: 109 109 80
Width: 512
GlyphClass: 2
Flags: W
LayerCount: 2
Fore
SplineSet
384 0 m 1,0,-1
 384 64 l 1,1,-1
 384 128 l 1,2,-1
 384 192 l 1,3,-1
 384 256 l 1,4,-1
 448 256 l 1,5,-1
 448 192 l 1,6,-1
 448 128 l 1,7,-1
 448 64 l 1,8,-1
 448 0 l 1,9,-1
 384 0 l 1,0,-1
192 0 m 1,10,-1
 192 64 l 1,11,-1
 192 128 l 1,12,-1
 192 192 l 1,13,-1
 192 256 l 1,14,-1
 256 256 l 1,15,-1
 256 192 l 1,16,-1
 256 128 l 1,17,-1
 256 64 l 1,18,-1
 256 0 l 1,19,-1
 192 0 l 1,10,-1
0 0 m 1,20,-1
 0 64 l 1,21,-1
 0 128 l 1,22,-1
 0 192 l 1,23,-1
 0 256 l 1,24,-1
 0 320 l 1,25,-1
 64 320 l 1,26,-1
 128 320 l 1,27,-1
 192 320 l 1,28,-1
 192 256 l 1,29,-1
 128 256 l 1,30,-1
 64 256 l 1,31,-1
 64 192 l 1,32,-1
 64 128 l 1,33,-1
 64 64 l 1,34,-1
 64 0 l 1,35,-1
 0 0 l 1,20,-1
384 256 m 1,36,-1
 320 256 l 1,37,-1
 256 256 l 1,38,-1
 256 320 l 1,39,-1
 320 320 l 1,40,-1
 384 320 l 1,41,-1
 384 256 l 1,36,-1
EndSplineSet
Validated: 5
EndChar

StartChar: n
Encoding: 110 110 81
Width: 384
GlyphClass: 2
Flags: W
LayerCount: 2
Fore
SplineSet
256 0 m 1,0,-1
 256 64 l 1,1,-1
 256 128 l 1,2,-1
 256 192 l 1,3,-1
 256 256 l 1,4,-1
 320 256 l 1,5,-1
 320 192 l 1,6,-1
 320 128 l 1,7,-1
 320 64 l 1,8,-1
 320 0 l 1,9,-1
 256 0 l 1,0,-1
0 0 m 1,10,-1
 0 64 l 1,11,-1
 0 128 l 1,12,-1
 0 192 l 1,13,-1
 0 256 l 1,14,-1
 0 320 l 1,15,-1
 64 320 l 1,16,-1
 64 256 l 1,17,-1
 128 256 l 1,18,-1
 128 192 l 1,19,-1
 64 192 l 1,20,-1
 64 128 l 1,21,-1
 64 64 l 1,22,-1
 64 0 l 1,23,-1
 0 0 l 1,10,-1
256 256 m 1,24,-1
 192 256 l 1,25,-1
 128 256 l 1,26,-1
 128 320 l 1,27,-1
 192 320 l 1,28,-1
 256 320 l 1,29,-1
 256 256 l 1,24,-1
EndSplineSet
Validated: 5
EndChar

StartChar: o
Encoding: 111 111 82
Width: 384
GlyphClass: 2
Flags: W
LayerCount: 2
Fore
SplineSet
192 64 m 1,0,-1
 256 64 l 1,1,-1
 256 0 l 1,2,-1
 192 0 l 1,3,-1
 128 0 l 1,4,-1
 64 0 l 1,5,-1
 64 64 l 1,6,-1
 128 64 l 1,7,-1
 192 64 l 1,0,-1
256 64 m 1,8,-1
 256 128 l 1,9,-1
 256 192 l 1,10,-1
 256 256 l 1,11,-1
 320 256 l 1,12,-1
 320 192 l 1,13,-1
 320 128 l 1,14,-1
 320 64 l 1,15,-1
 256 64 l 1,8,-1
64 64 m 1,16,-1
 0 64 l 1,17,-1
 0 128 l 1,18,-1
 0 192 l 1,19,-1
 0 256 l 1,20,-1
 64 256 l 1,21,-1
 64 192 l 1,22,-1
 64 128 l 1,23,-1
 64 64 l 1,16,-1
256 256 m 1,24,-1
 192 256 l 1,25,-1
 128 256 l 1,26,-1
 64 256 l 1,27,-1
 64 320 l 1,28,-1
 128 320 l 1,29,-1
 192 320 l 1,30,-1
 256 320 l 1,31,-1
 256 256 l 1,24,-1
EndSplineSet
Validated: 5
EndChar

StartChar: p
Encoding: 112 112 83
Width: 384
GlyphClass: 2
Flags: W
LayerCount: 2
Fore
SplineSet
0 -64 m 1,0,-1
 0 0 l 1,1,-1
 0 64 l 1,2,-1
 0 128 l 1,3,-1
 0 192 l 1,4,-1
 0 256 l 1,5,-1
 0 320 l 1,6,-1
 64 320 l 1,7,-1
 128 320 l 1,8,-1
 192 320 l 1,9,-1
 256 320 l 1,10,-1
 256 256 l 1,11,-1
 320 256 l 1,12,-1
 320 192 l 1,13,-1
 320 128 l 1,14,-1
 256 128 l 1,15,-1
 256 192 l 1,16,-1
 256 256 l 1,17,-1
 192 256 l 1,18,-1
 128 256 l 1,19,-1
 64 256 l 1,20,-1
 64 192 l 1,21,-1
 64 128 l 1,22,-1
 128 128 l 1,23,-1
 192 128 l 1,24,-1
 256 128 l 1,25,-1
 256 64 l 1,26,-1
 192 64 l 1,27,-1
 128 64 l 1,28,-1
 64 64 l 1,29,-1
 64 0 l 1,30,-1
 64 -64 l 1,31,-1
 0 -64 l 1,0,-1
EndSplineSet
Validated: 5
EndChar

StartChar: q
Encoding: 113 113 84
Width: 384
GlyphClass: 2
Flags: W
LayerCount: 2
Fore
SplineSet
256 -64 m 1,0,-1
 256 0 l 1,1,-1
 256 64 l 1,2,-1
 192 64 l 1,3,-1
 128 64 l 1,4,-1
 64 64 l 1,5,-1
 64 128 l 1,6,-1
 0 128 l 1,7,-1
 0 192 l 1,8,-1
 0 256 l 1,9,-1
 64 256 l 1,10,-1
 64 320 l 1,11,-1
 128 320 l 1,12,-1
 192 320 l 1,13,-1
 256 320 l 1,14,-1
 320 320 l 1,15,-1
 320 256 l 1,16,-1
 320 192 l 1,17,-1
 320 128 l 1,18,-1
 320 64 l 1,19,-1
 320 0 l 1,20,-1
 320 -64 l 1,21,-1
 256 -64 l 1,0,-1
192 128 m 1,22,-1
 256 128 l 1,23,-1
 256 192 l 1,24,-1
 256 256 l 1,25,-1
 192 256 l 1,26,-1
 128 256 l 1,27,-1
 64 256 l 1,28,-1
 64 192 l 1,29,-1
 64 128 l 1,30,-1
 128 128 l 1,31,-1
 192 128 l 1,22,-1
EndSplineSet
Validated: 5
EndChar

StartChar: r
Encoding: 114 114 85
Width: 320
GlyphClass: 2
Flags: W
LayerCount: 2
Fore
SplineSet
0 0 m 1,0,-1
 0 64 l 1,1,-1
 0 128 l 1,2,-1
 0 192 l 1,3,-1
 0 256 l 1,4,-1
 0 320 l 1,5,-1
 64 320 l 1,6,-1
 64 256 l 1,7,-1
 128 256 l 1,8,-1
 128 192 l 1,9,-1
 64 192 l 1,10,-1
 64 128 l 1,11,-1
 64 64 l 1,12,-1
 64 0 l 1,13,-1
 0 0 l 1,0,-1
192 320 m 1,14,-1
 256 320 l 1,15,-1
 256 256 l 1,16,-1
 192 256 l 1,17,-1
 128 256 l 1,18,-1
 128 320 l 1,19,-1
 192 320 l 1,14,-1
EndSplineSet
Validated: 5
EndChar

StartChar: s
Encoding: 115 115 86
Width: 384
GlyphClass: 2
Flags: W
LayerCount: 2
Fore
SplineSet
192 64 m 1,0,-1
 256 64 l 1,1,-1
 256 0 l 1,2,-1
 192 0 l 1,3,-1
 128 0 l 1,4,-1
 64 0 l 1,5,-1
 0 0 l 1,6,-1
 0 64 l 1,7,-1
 64 64 l 1,8,-1
 128 64 l 1,9,-1
 192 64 l 1,0,-1
256 64 m 1,10,-1
 256 128 l 1,11,-1
 320 128 l 1,12,-1
 320 64 l 1,13,-1
 256 64 l 1,10,-1
256 128 m 1,14,-1
 192 128 l 1,15,-1
 128 128 l 1,16,-1
 64 128 l 1,17,-1
 64 192 l 1,18,-1
 128 192 l 1,19,-1
 192 192 l 1,20,-1
 256 192 l 1,21,-1
 256 128 l 1,14,-1
64 192 m 1,22,-1
 0 192 l 1,23,-1
 0 256 l 1,24,-1
 64 256 l 1,25,-1
 64 192 l 1,22,-1
256 320 m 1,26,-1
 320 320 l 1,27,-1
 320 256 l 1,28,-1
 256 256 l 1,29,-1
 192 256 l 1,30,-1
 128 256 l 1,31,-1
 64 256 l 1,32,-1
 64 320 l 1,33,-1
 128 320 l 1,34,-1
 192 320 l 1,35,-1
 256 320 l 1,26,-1
EndSplineSet
Validated: 5
EndChar

StartChar: t
Encoding: 116 116 87
Width: 384
GlyphClass: 2
Flags: W
LayerCount: 2
Fore
SplineSet
192 0 m 1,0,-1
 192 64 l 1,1,-1
 256 64 l 1,2,-1
 256 0 l 1,3,-1
 192 0 l 1,0,-1
192 64 m 1,4,-1
 128 64 l 1,5,-1
 128 128 l 1,6,-1
 128 192 l 1,7,-1
 128 256 l 1,8,-1
 64 256 l 1,9,-1
 0 256 l 1,10,-1
 0 320 l 1,11,-1
 64 320 l 1,12,-1
 128 320 l 1,13,-1
 128 384 l 1,14,-1
 192 384 l 1,15,-1
 192 320 l 1,16,-1
 256 320 l 1,17,-1
 320 320 l 1,18,-1
 320 256 l 1,19,-1
 256 256 l 1,20,-1
 192 256 l 1,21,-1
 192 192 l 1,22,-1
 192 128 l 1,23,-1
 192 64 l 1,4,-1
EndSplineSet
Validated: 5
EndChar

StartChar: u
Encoding: 117 117 88
Width: 384
GlyphClass: 2
Flags: W
LayerCount: 2
Fore
SplineSet
256 0 m 1,0,-1
 256 64 l 1,1,-1
 192 64 l 1,2,-1
 192 0 l 1,3,-1
 128 0 l 1,4,-1
 64 0 l 1,5,-1
 64 64 l 1,6,-1
 128 64 l 1,7,-1
 192 64 l 1,8,-1
 192 128 l 1,9,-1
 256 128 l 1,10,-1
 256 192 l 1,11,-1
 256 256 l 1,12,-1
 256 320 l 1,13,-1
 320 320 l 1,14,-1
 320 256 l 1,15,-1
 320 192 l 1,16,-1
 320 128 l 1,17,-1
 320 64 l 1,18,-1
 320 0 l 1,19,-1
 256 0 l 1,0,-1
64 64 m 1,20,-1
 0 64 l 1,21,-1
 0 128 l 1,22,-1
 0 192 l 1,23,-1
 0 256 l 1,24,-1
 0 320 l 1,25,-1
 64 320 l 1,26,-1
 64 256 l 1,27,-1
 64 192 l 1,28,-1
 64 128 l 1,29,-1
 64 64 l 1,20,-1
EndSplineSet
Validated: 5
EndChar

StartChar: v
Encoding: 118 118 89
Width: 384
GlyphClass: 2
Flags: W
LayerCount: 2
Fore
SplineSet
128 0 m 1,0,-1
 128 64 l 1,1,-1
 192 64 l 1,2,-1
 192 0 l 1,3,-1
 128 0 l 1,0,-1
192 64 m 1,4,-1
 192 128 l 1,5,-1
 256 128 l 1,6,-1
 256 64 l 1,7,-1
 192 64 l 1,4,-1
128 64 m 1,8,-1
 64 64 l 1,9,-1
 64 128 l 1,10,-1
 128 128 l 1,11,-1
 128 64 l 1,8,-1
256 128 m 1,12,-1
 256 192 l 1,13,-1
 256 256 l 1,14,-1
 256 320 l 1,15,-1
 320 320 l 1,16,-1
 320 256 l 1,17,-1
 320 192 l 1,18,-1
 320 128 l 1,19,-1
 256 128 l 1,12,-1
64 128 m 1,20,-1
 0 128 l 1,21,-1
 0 192 l 1,22,-1
 0 256 l 1,23,-1
 0 320 l 1,24,-1
 64 320 l 1,25,-1
 64 256 l 1,26,-1
 64 192 l 1,27,-1
 64 128 l 1,20,-1
EndSplineSet
Validated: 5
EndChar

StartChar: w
Encoding: 119 119 90
Width: 512
GlyphClass: 2
Flags: W
LayerCount: 2
Fore
SplineSet
320 64 m 1,0,-1
 384 64 l 1,1,-1
 384 0 l 1,2,-1
 320 0 l 1,3,-1
 256 0 l 1,4,-1
 256 64 l 1,5,-1
 320 64 l 1,0,-1
128 64 m 1,6,-1
 192 64 l 1,7,-1
 192 0 l 1,8,-1
 128 0 l 1,9,-1
 64 0 l 1,10,-1
 64 64 l 1,11,-1
 128 64 l 1,6,-1
384 64 m 1,12,-1
 384 128 l 1,13,-1
 384 192 l 1,14,-1
 384 256 l 1,15,-1
 384 320 l 1,16,-1
 448 320 l 1,17,-1
 448 256 l 1,18,-1
 448 192 l 1,19,-1
 448 128 l 1,20,-1
 448 64 l 1,21,-1
 384 64 l 1,12,-1
256 64 m 1,22,-1
 192 64 l 1,23,-1
 192 128 l 1,24,-1
 192 192 l 1,25,-1
 192 256 l 1,26,-1
 192 320 l 1,27,-1
 256 320 l 1,28,-1
 256 256 l 1,29,-1
 256 192 l 1,30,-1
 256 128 l 1,31,-1
 256 64 l 1,22,-1
64 64 m 1,32,-1
 0 64 l 1,33,-1
 0 128 l 1,34,-1
 0 192 l 1,35,-1
 0 256 l 1,36,-1
 0 320 l 1,37,-1
 64 320 l 1,38,-1
 64 256 l 1,39,-1
 64 192 l 1,40,-1
 64 128 l 1,41,-1
 64 64 l 1,32,-1
EndSplineSet
Validated: 5
EndChar

StartChar: x
Encoding: 120 120 91
Width: 384
GlyphClass: 2
Flags: W
LayerCount: 2
Fore
SplineSet
256 0 m 1,0,-1
 256 64 l 1,1,-1
 320 64 l 1,2,-1
 320 0 l 1,3,-1
 256 0 l 1,0,-1
0 0 m 1,4,-1
 0 64 l 1,5,-1
 64 64 l 1,6,-1
 64 0 l 1,7,-1
 0 0 l 1,4,-1
256 64 m 1,8,-1
 192 64 l 1,9,-1
 192 128 l 1,10,-1
 256 128 l 1,11,-1
 256 64 l 1,8,-1
64 64 m 1,12,-1
 64 128 l 1,13,-1
 128 128 l 1,14,-1
 128 64 l 1,15,-1
 64 64 l 1,12,-1
192 128 m 1,16,-1
 128 128 l 1,17,-1
 128 192 l 1,18,-1
 192 192 l 1,19,-1
 192 128 l 1,16,-1
192 192 m 1,20,-1
 192 256 l 1,21,-1
 256 256 l 1,22,-1
 256 192 l 1,23,-1
 192 192 l 1,20,-1
128 192 m 1,24,-1
 64 192 l 1,25,-1
 64 256 l 1,26,-1
 128 256 l 1,27,-1
 128 192 l 1,24,-1
256 256 m 1,28,-1
 256 320 l 1,29,-1
 320 320 l 1,30,-1
 320 256 l 1,31,-1
 256 256 l 1,28,-1
64 256 m 1,32,-1
 0 256 l 1,33,-1
 0 320 l 1,34,-1
 64 320 l 1,35,-1
 64 256 l 1,32,-1
EndSplineSet
Validated: 5
EndChar

StartChar: y
Encoding: 121 121 92
Width: 384
GlyphClass: 2
Flags: W
LayerCount: 2
Fore
SplineSet
192 0 m 1,0,-1
 256 0 l 1,1,-1
 256 -64 l 1,2,-1
 192 -64 l 1,3,-1
 128 -64 l 1,4,-1
 64 -64 l 1,5,-1
 64 0 l 1,6,-1
 128 0 l 1,7,-1
 192 0 l 1,0,-1
256 0 m 1,8,-1
 256 64 l 1,9,-1
 192 64 l 1,10,-1
 128 64 l 1,11,-1
 64 64 l 1,12,-1
 64 128 l 1,13,-1
 128 128 l 1,14,-1
 192 128 l 1,15,-1
 256 128 l 1,16,-1
 256 192 l 1,17,-1
 256 256 l 1,18,-1
 256 320 l 1,19,-1
 320 320 l 1,20,-1
 320 256 l 1,21,-1
 320 192 l 1,22,-1
 320 128 l 1,23,-1
 320 64 l 1,24,-1
 320 0 l 1,25,-1
 256 0 l 1,8,-1
64 128 m 1,26,-1
 0 128 l 1,27,-1
 0 192 l 1,28,-1
 0 256 l 1,29,-1
 0 320 l 1,30,-1
 64 320 l 1,31,-1
 64 256 l 1,32,-1
 64 192 l 1,33,-1
 64 128 l 1,26,-1
EndSplineSet
Validated: 5
EndChar

StartChar: z
Encoding: 122 122 93
Width: 384
GlyphClass: 2
Flags: W
LayerCount: 2
Fore
SplineSet
256 64 m 1,0,-1
 320 64 l 1,1,-1
 320 0 l 1,2,-1
 256 0 l 1,3,-1
 192 0 l 1,4,-1
 128 0 l 1,5,-1
 64 0 l 1,6,-1
 0 0 l 1,7,-1
 0 64 l 1,8,-1
 64 64 l 1,9,-1
 64 128 l 1,10,-1
 128 128 l 1,11,-1
 128 64 l 1,12,-1
 192 64 l 1,13,-1
 256 64 l 1,0,-1
128 128 m 1,14,-1
 128 192 l 1,15,-1
 192 192 l 1,16,-1
 192 128 l 1,17,-1
 128 128 l 1,14,-1
192 192 m 1,18,-1
 192 256 l 1,19,-1
 128 256 l 1,20,-1
 64 256 l 1,21,-1
 0 256 l 1,22,-1
 0 320 l 1,23,-1
 64 320 l 1,24,-1
 128 320 l 1,25,-1
 192 320 l 1,26,-1
 256 320 l 1,27,-1
 320 320 l 1,28,-1
 320 256 l 1,29,-1
 256 256 l 1,30,-1
 256 192 l 1,31,-1
 192 192 l 1,18,-1
EndSplineSet
Validated: 5
EndChar

StartChar: braceleft
Encoding: 123 123 94
Width: 256
GlyphClass: 2
Flags: W
LayerCount: 2
Fore
SplineSet
128 -64 m 1,0,-1
 128 0 l 1,1,-1
 192 0 l 1,2,-1
 192 -64 l 1,3,-1
 128 -64 l 1,0,-1
128 0 m 1,4,-1
 64 0 l 1,5,-1
 64 64 l 1,6,-1
 64 128 l 1,7,-1
 128 128 l 1,8,-1
 128 64 l 1,9,-1
 128 0 l 1,4,-1
64 128 m 1,10,-1
 0 128 l 1,11,-1
 0 192 l 1,12,-1
 64 192 l 1,13,-1
 64 128 l 1,10,-1
64 192 m 1,14,-1
 64 256 l 1,15,-1
 64 320 l 1,16,-1
 128 320 l 1,17,-1
 128 256 l 1,18,-1
 128 192 l 1,19,-1
 64 192 l 1,14,-1
128 320 m 1,20,-1
 128 384 l 1,21,-1
 192 384 l 1,22,-1
 192 320 l 1,23,-1
 128 320 l 1,20,-1
EndSplineSet
Validated: 5
EndChar

StartChar: bar
Encoding: 124 124 95
Width: 128
GlyphClass: 2
Flags: W
LayerCount: 2
Fore
SplineSet
0 -64 m 1,0,-1
 0 0 l 1,1,-1
 0 64 l 1,2,-1
 0 128 l 1,3,-1
 0 192 l 1,4,-1
 0 256 l 1,5,-1
 0 320 l 1,6,-1
 0 384 l 1,7,-1
 0 448 l 1,8,-1
 64 448 l 1,9,-1
 64 384 l 1,10,-1
 64 320 l 1,11,-1
 64 256 l 1,12,-1
 64 192 l 1,13,-1
 64 128 l 1,14,-1
 64 64 l 1,15,-1
 64 0 l 1,16,-1
 64 -64 l 1,17,-1
 0 -64 l 1,0,-1
EndSplineSet
Validated: 1
EndChar

StartChar: braceright
Encoding: 125 125 96
Width: 256
GlyphClass: 2
Flags: W
LayerCount: 2
Fore
SplineSet
0 -64 m 1,0,-1
 0 0 l 1,1,-1
 64 0 l 1,2,-1
 64 -64 l 1,3,-1
 0 -64 l 1,0,-1
64 0 m 1,4,-1
 64 64 l 1,5,-1
 64 128 l 1,6,-1
 128 128 l 1,7,-1
 128 64 l 1,8,-1
 128 0 l 1,9,-1
 64 0 l 1,4,-1
128 128 m 1,10,-1
 128 192 l 1,11,-1
 192 192 l 1,12,-1
 192 128 l 1,13,-1
 128 128 l 1,10,-1
128 192 m 1,14,-1
 64 192 l 1,15,-1
 64 256 l 1,16,-1
 64 320 l 1,17,-1
 128 320 l 1,18,-1
 128 256 l 1,19,-1
 128 192 l 1,14,-1
64 320 m 1,20,-1
 0 320 l 1,21,-1
 0 384 l 1,22,-1
 64 384 l 1,23,-1
 64 320 l 1,20,-1
EndSplineSet
Validated: 5
EndChar

StartChar: asciitilde
Encoding: 126 126 97
Width: 320
GlyphClass: 2
Flags: W
LayerCount: 2
Fore
SplineSet
128 192 m 1,0,-1
 128 256 l 1,1,-1
 192 256 l 1,2,-1
 192 192 l 1,3,-1
 128 192 l 1,0,-1
0 192 m 1,4,-1
 0 256 l 1,5,-1
 64 256 l 1,6,-1
 64 192 l 1,7,-1
 0 192 l 1,4,-1
192 256 m 1,8,-1
 192 320 l 1,9,-1
 256 320 l 1,10,-1
 256 256 l 1,11,-1
 192 256 l 1,8,-1
128 256 m 1,12,-1
 64 256 l 1,13,-1
 64 320 l 1,14,-1
 128 320 l 1,15,-1
 128 256 l 1,12,-1
EndSplineSet
Validated: 5
EndChar

StartChar: Euro
Encoding: 8364 8364 98
Width: 448
GlyphClass: 2
Flags: W
LayerCount: 2
Fore
SplineSet
320 320 m 1,0,-1
 320 384 l 1,1,-1
 384 384 l 1,2,-1
 384 320 l 1,3,-1
 320 320 l 1,0,-1
256 64 m 1,4,-1
 320 64 l 1,5,-1
 320 0 l 1,6,-1
 256 0 l 1,7,-1
 192 0 l 1,8,-1
 128 0 l 1,9,-1
 128 64 l 1,10,-1
 192 64 l 1,11,-1
 256 64 l 1,4,-1
320 64 m 1,12,-1
 320 128 l 1,13,-1
 384 128 l 1,14,-1
 384 64 l 1,15,-1
 320 64 l 1,12,-1
128 64 m 1,16,-1
 64 64 l 1,17,-1
 64 128 l 1,18,-1
 64 192 l 1,19,-1
 0 192 l 1,20,-1
 0 256 l 1,21,-1
 64 256 l 1,22,-1
 64 320 l 1,23,-1
 64 384 l 1,24,-1
 128 384 l 1,25,-1
 128 320 l 1,26,-1
 128 256 l 1,27,-1
 192 256 l 1,28,-1
 192 192 l 1,29,-1
 128 192 l 1,30,-1
 128 128 l 1,31,-1
 128 64 l 1,16,-1
320 384 m 1,32,-1
 256 384 l 1,33,-1
 192 384 l 1,34,-1
 128 384 l 1,35,-1
 128 448 l 1,36,-1
 192 448 l 1,37,-1
 256 448 l 1,38,-1
 320 448 l 1,39,-1
 320 384 l 1,32,-1
EndSplineSet
Validated: 5
EndChar

StartChar: quotesinglbase
Encoding: 8218 8218 99
Width: 192
GlyphClass: 2
Flags: W
LayerCount: 2
Fore
SplineSet
0 -64 m 1,0,-1
 0 0 l 1,1,-1
 64 0 l 1,2,-1
 64 -64 l 1,3,-1
 0 -64 l 1,0,-1
64 0 m 1,4,-1
 64 64 l 1,5,-1
 64 128 l 1,6,-1
 128 128 l 1,7,-1
 128 64 l 1,8,-1
 128 0 l 1,9,-1
 64 0 l 1,4,-1
EndSplineSet
Validated: 5
EndChar

StartChar: florin
Encoding: 402 402 100
Width: 320
GlyphClass: 2
Flags: W
LayerCount: 2
Fore
SplineSet
0 -64 m 1,0,-1
 0 0 l 1,1,-1
 64 0 l 1,2,-1
 64 -64 l 1,3,-1
 0 -64 l 1,0,-1
64 0 m 1,4,-1
 64 64 l 1,5,-1
 64 128 l 1,6,-1
 64 192 l 1,7,-1
 64 256 l 1,8,-1
 0 256 l 1,9,-1
 0 320 l 1,10,-1
 64 320 l 1,11,-1
 64 384 l 1,12,-1
 128 384 l 1,13,-1
 128 320 l 1,14,-1
 192 320 l 1,15,-1
 192 256 l 1,16,-1
 128 256 l 1,17,-1
 128 192 l 1,18,-1
 128 128 l 1,19,-1
 128 64 l 1,20,-1
 128 0 l 1,21,-1
 64 0 l 1,4,-1
192 448 m 1,22,-1
 256 448 l 1,23,-1
 256 384 l 1,24,-1
 192 384 l 1,25,-1
 128 384 l 1,26,-1
 128 448 l 1,27,-1
 192 448 l 1,22,-1
EndSplineSet
Validated: 5
EndChar

StartChar: quotedblbase
Encoding: 8222 8222 101
Width: 384
GlyphClass: 2
Flags: W
LayerCount: 2
Fore
SplineSet
192 -64 m 1,0,-1
 192 0 l 1,1,-1
 256 0 l 1,2,-1
 256 -64 l 1,3,-1
 192 -64 l 1,0,-1
0 -64 m 1,4,-1
 0 0 l 1,5,-1
 64 0 l 1,6,-1
 64 -64 l 1,7,-1
 0 -64 l 1,4,-1
256 0 m 1,8,-1
 256 64 l 1,9,-1
 256 128 l 1,10,-1
 320 128 l 1,11,-1
 320 64 l 1,12,-1
 320 0 l 1,13,-1
 256 0 l 1,8,-1
64 0 m 1,14,-1
 64 64 l 1,15,-1
 64 128 l 1,16,-1
 128 128 l 1,17,-1
 128 64 l 1,18,-1
 128 0 l 1,19,-1
 64 0 l 1,14,-1
EndSplineSet
Validated: 5
EndChar

StartChar: ellipsis
Encoding: 8230 8230 102
Width: 512
GlyphClass: 2
Flags: W
LayerCount: 2
Fore
SplineSet
384 0 m 1,0,-1
 384 64 l 1,1,-1
 384 128 l 1,2,-1
 448 128 l 1,3,-1
 448 64 l 1,4,-1
 448 0 l 1,5,-1
 384 0 l 1,0,-1
192 0 m 1,6,-1
 192 64 l 1,7,-1
 192 128 l 1,8,-1
 256 128 l 1,9,-1
 256 64 l 1,10,-1
 256 0 l 1,11,-1
 192 0 l 1,6,-1
0 0 m 1,12,-1
 0 64 l 1,13,-1
 0 128 l 1,14,-1
 64 128 l 1,15,-1
 64 64 l 1,16,-1
 64 0 l 1,17,-1
 0 0 l 1,12,-1
EndSplineSet
Validated: 1
EndChar

StartChar: dagger
Encoding: 8224 8224 103
Width: 256
GlyphClass: 2
Flags: W
LayerCount: 2
Fore
SplineSet
64 192 m 1,0,-1
 64 256 l 1,1,-1
 64 320 l 1,2,-1
 0 320 l 1,3,-1
 0 384 l 1,4,-1
 64 384 l 1,5,-1
 64 448 l 1,6,-1
 128 448 l 1,7,-1
 128 384 l 1,8,-1
 192 384 l 1,9,-1
 192 320 l 1,10,-1
 128 320 l 1,11,-1
 128 256 l 1,12,-1
 128 192 l 1,13,-1
 64 192 l 1,0,-1
EndSplineSet
Validated: 1
EndChar

StartChar: daggerdbl
Encoding: 8225 8225 104
Width: 384
GlyphClass: 2
Flags: W
LayerCount: 2
Fore
SplineSet
128 0 m 1,0,-1
 128 64 l 1,1,-1
 64 64 l 1,2,-1
 0 64 l 1,3,-1
 0 128 l 1,4,-1
 64 128 l 1,5,-1
 128 128 l 1,6,-1
 128 192 l 1,7,-1
 128 256 l 1,8,-1
 128 320 l 1,9,-1
 64 320 l 1,10,-1
 0 320 l 1,11,-1
 0 384 l 1,12,-1
 64 384 l 1,13,-1
 128 384 l 1,14,-1
 128 448 l 1,15,-1
 192 448 l 1,16,-1
 192 384 l 1,17,-1
 256 384 l 1,18,-1
 320 384 l 1,19,-1
 320 320 l 1,20,-1
 256 320 l 1,21,-1
 192 320 l 1,22,-1
 192 256 l 1,23,-1
 192 192 l 1,24,-1
 192 128 l 1,25,-1
 256 128 l 1,26,-1
 320 128 l 1,27,-1
 320 64 l 1,28,-1
 256 64 l 1,29,-1
 192 64 l 1,30,-1
 192 0 l 1,31,-1
 128 0 l 1,0,-1
EndSplineSet
Validated: 1
EndChar

StartChar: circumflex
Encoding: 710 710 105
Width: 256
GlyphClass: 2
Flags: W
LayerCount: 2
Fore
SplineSet
128 320 m 1,0,-1
 128 384 l 1,1,-1
 192 384 l 1,2,-1
 192 320 l 1,3,-1
 128 320 l 1,0,-1
0 320 m 1,4,-1
 0 384 l 1,5,-1
 64 384 l 1,6,-1
 64 320 l 1,7,-1
 0 320 l 1,4,-1
128 384 m 1,8,-1
 64 384 l 1,9,-1
 64 448 l 1,10,-1
 128 448 l 1,11,-1
 128 384 l 1,8,-1
EndSplineSet
Validated: 5
EndChar

StartChar: perthousand
Encoding: 8240 8240 106
Width: 832
GlyphClass: 2
Flags: W
LayerCount: 2
Fore
SplineSet
128 0 m 1,0,-1
 128 64 l 1,1,-1
 128 128 l 1,2,-1
 192 128 l 1,3,-1
 192 64 l 1,4,-1
 192 0 l 1,5,-1
 128 0 l 1,0,-1
704 64 m 1,6,-1
 640 64 l 1,7,-1
 576 64 l 1,8,-1
 576 128 l 1,9,-1
 576 192 l 1,10,-1
 576 256 l 1,11,-1
 640 256 l 1,12,-1
 704 256 l 1,13,-1
 768 256 l 1,14,-1
 768 192 l 1,15,-1
 768 128 l 1,16,-1
 768 64 l 1,17,-1
 704 64 l 1,6,-1
448 64 m 1,18,-1
 384 64 l 1,19,-1
 320 64 l 1,20,-1
 320 128 l 1,21,-1
 320 192 l 1,22,-1
 320 256 l 1,23,-1
 384 256 l 1,24,-1
 448 256 l 1,25,-1
 512 256 l 1,26,-1
 512 192 l 1,27,-1
 512 128 l 1,28,-1
 512 64 l 1,29,-1
 448 64 l 1,18,-1
704 128 m 1,30,-1
 704 192 l 1,31,-1
 640 192 l 1,32,-1
 640 128 l 1,33,-1
 704 128 l 1,30,-1
448 128 m 1,34,-1
 448 192 l 1,35,-1
 384 192 l 1,36,-1
 384 128 l 1,37,-1
 448 128 l 1,34,-1
192 128 m 1,38,-1
 192 192 l 1,39,-1
 192 256 l 1,40,-1
 256 256 l 1,41,-1
 256 192 l 1,42,-1
 256 128 l 1,43,-1
 192 128 l 1,38,-1
320 256 m 1,44,-1
 256 256 l 1,45,-1
 256 320 l 1,46,-1
 256 384 l 1,47,-1
 320 384 l 1,48,-1
 320 320 l 1,49,-1
 320 256 l 1,44,-1
192 256 m 1,50,-1
 128 256 l 1,51,-1
 64 256 l 1,52,-1
 0 256 l 1,53,-1
 0 320 l 1,54,-1
 0 384 l 1,55,-1
 0 448 l 1,56,-1
 64 448 l 1,57,-1
 128 448 l 1,58,-1
 192 448 l 1,59,-1
 192 384 l 1,60,-1
 192 320 l 1,61,-1
 192 256 l 1,50,-1
128 320 m 1,62,-1
 128 384 l 1,63,-1
 64 384 l 1,64,-1
 64 320 l 1,65,-1
 128 320 l 1,62,-1
320 384 m 1,66,-1
 320 448 l 1,67,-1
 384 448 l 1,68,-1
 384 384 l 1,69,-1
 320 384 l 1,66,-1
EndSplineSet
Validated: 5
EndChar

StartChar: Scaron
Encoding: 352 352 107
Width: 384
GlyphClass: 2
Flags: W
LayerCount: 2
Fore
SplineSet
256 320 m 1,0,-1
 256 384 l 1,1,-1
 320 384 l 1,2,-1
 320 320 l 1,3,-1
 256 320 l 1,0,-1
128 512 m 1,4,-1
 128 576 l 1,5,-1
 192 576 l 1,6,-1
 192 512 l 1,7,-1
 128 512 l 1,4,-1
192 64 m 1,8,-1
 256 64 l 1,9,-1
 256 0 l 1,10,-1
 192 0 l 1,11,-1
 128 0 l 1,12,-1
 64 0 l 1,13,-1
 64 64 l 1,14,-1
 128 64 l 1,15,-1
 192 64 l 1,8,-1
256 64 m 1,16,-1
 256 128 l 1,17,-1
 256 192 l 1,18,-1
 320 192 l 1,19,-1
 320 128 l 1,20,-1
 320 64 l 1,21,-1
 256 64 l 1,16,-1
64 64 m 1,22,-1
 0 64 l 1,23,-1
 0 128 l 1,24,-1
 64 128 l 1,25,-1
 64 64 l 1,22,-1
256 192 m 1,26,-1
 192 192 l 1,27,-1
 128 192 l 1,28,-1
 64 192 l 1,29,-1
 64 256 l 1,30,-1
 128 256 l 1,31,-1
 192 256 l 1,32,-1
 256 256 l 1,33,-1
 256 192 l 1,26,-1
64 256 m 1,34,-1
 0 256 l 1,35,-1
 0 320 l 1,36,-1
 0 384 l 1,37,-1
 64 384 l 1,38,-1
 64 320 l 1,39,-1
 64 256 l 1,34,-1
256 384 m 1,40,-1
 192 384 l 1,41,-1
 128 384 l 1,42,-1
 64 384 l 1,43,-1
 64 448 l 1,44,-1
 128 448 l 1,45,-1
 192 448 l 1,46,-1
 256 448 l 1,47,-1
 256 384 l 1,40,-1
192 576 m 1,48,-1
 192 640 l 1,49,-1
 256 640 l 1,50,-1
 256 576 l 1,51,-1
 192 576 l 1,48,-1
128 576 m 1,52,-1
 64 576 l 1,53,-1
 64 640 l 1,54,-1
 128 640 l 1,55,-1
 128 576 l 1,52,-1
EndSplineSet
Validated: 5
EndChar

StartChar: guilsinglleft
Encoding: 8249 8249 108
Width: 256
GlyphClass: 2
Flags: W
LayerCount: 2
Fore
SplineSet
128 64 m 1,0,-1
 128 128 l 1,1,-1
 192 128 l 1,2,-1
 192 64 l 1,3,-1
 128 64 l 1,0,-1
128 128 m 1,4,-1
 64 128 l 1,5,-1
 64 192 l 1,6,-1
 128 192 l 1,7,-1
 128 128 l 1,4,-1
64 192 m 1,8,-1
 0 192 l 1,9,-1
 0 256 l 1,10,-1
 64 256 l 1,11,-1
 64 192 l 1,8,-1
64 256 m 1,12,-1
 64 320 l 1,13,-1
 128 320 l 1,14,-1
 128 256 l 1,15,-1
 64 256 l 1,12,-1
128 320 m 1,16,-1
 128 384 l 1,17,-1
 192 384 l 1,18,-1
 192 320 l 1,19,-1
 128 320 l 1,16,-1
EndSplineSet
Validated: 5
EndChar

StartChar: OE
Encoding: 338 338 109
Width: 640
GlyphClass: 2
Flags: W
LayerCount: 2
Fore
SplineSet
512 64 m 1,0,-1
 576 64 l 1,1,-1
 576 0 l 1,2,-1
 512 0 l 1,3,-1
 448 0 l 1,4,-1
 384 0 l 1,5,-1
 320 0 l 1,6,-1
 256 0 l 1,7,-1
 192 0 l 1,8,-1
 128 0 l 1,9,-1
 64 0 l 1,10,-1
 64 64 l 1,11,-1
 0 64 l 1,12,-1
 0 128 l 1,13,-1
 0 192 l 1,14,-1
 0 256 l 1,15,-1
 0 320 l 1,16,-1
 0 384 l 1,17,-1
 64 384 l 1,18,-1
 64 448 l 1,19,-1
 128 448 l 1,20,-1
 192 448 l 1,21,-1
 256 448 l 1,22,-1
 320 448 l 1,23,-1
 384 448 l 1,24,-1
 448 448 l 1,25,-1
 512 448 l 1,26,-1
 576 448 l 1,27,-1
 576 384 l 1,28,-1
 512 384 l 1,29,-1
 448 384 l 1,30,-1
 384 384 l 1,31,-1
 320 384 l 1,32,-1
 320 320 l 1,33,-1
 320 256 l 1,34,-1
 384 256 l 1,35,-1
 448 256 l 1,36,-1
 512 256 l 1,37,-1
 512 192 l 1,38,-1
 448 192 l 1,39,-1
 384 192 l 1,40,-1
 320 192 l 1,41,-1
 320 128 l 1,42,-1
 320 64 l 1,43,-1
 384 64 l 1,44,-1
 448 64 l 1,45,-1
 512 64 l 1,0,-1
192 64 m 1,46,-1
 256 64 l 1,47,-1
 256 128 l 1,48,-1
 256 192 l 1,49,-1
 256 256 l 1,50,-1
 256 320 l 1,51,-1
 256 384 l 1,52,-1
 192 384 l 1,53,-1
 128 384 l 1,54,-1
 64 384 l 1,55,-1
 64 320 l 1,56,-1
 64 256 l 1,57,-1
 64 192 l 1,58,-1
 64 128 l 1,59,-1
 64 64 l 1,60,-1
 128 64 l 1,61,-1
 192 64 l 1,46,-1
EndSplineSet
Validated: 5
EndChar

StartChar: quoteleft
Encoding: 8216 8216 110
Width: 192
GlyphClass: 2
Flags: W
LayerCount: 2
Fore
SplineSet
64 320 m 1,0,-1
 64 384 l 1,1,-1
 128 384 l 1,2,-1
 128 320 l 1,3,-1
 64 320 l 1,0,-1
64 384 m 1,4,-1
 0 384 l 1,5,-1
 0 448 l 1,6,-1
 64 448 l 1,7,-1
 64 384 l 1,4,-1
EndSplineSet
Validated: 5
EndChar

StartChar: quoteright
Encoding: 8217 8217 111
Width: 192
GlyphClass: 2
Flags: W
LayerCount: 2
Fore
SplineSet
0 320 m 1,0,-1
 0 384 l 1,1,-1
 64 384 l 1,2,-1
 64 320 l 1,3,-1
 0 320 l 1,0,-1
64 384 m 1,4,-1
 64 448 l 1,5,-1
 128 448 l 1,6,-1
 128 384 l 1,7,-1
 64 384 l 1,4,-1
EndSplineSet
Validated: 5
EndChar

StartChar: quotedblleft
Encoding: 8220 8220 112
Width: 384
GlyphClass: 2
Flags: W
LayerCount: 2
Fore
SplineSet
256 320 m 1,0,-1
 192 320 l 1,1,-1
 192 384 l 1,2,-1
 192 448 l 1,3,-1
 256 448 l 1,4,-1
 256 384 l 1,5,-1
 320 384 l 1,6,-1
 320 320 l 1,7,-1
 256 320 l 1,0,-1
64 320 m 1,8,-1
 0 320 l 1,9,-1
 0 384 l 1,10,-1
 0 448 l 1,11,-1
 64 448 l 1,12,-1
 64 384 l 1,13,-1
 128 384 l 1,14,-1
 128 320 l 1,15,-1
 64 320 l 1,8,-1
256 448 m 1,16,-1
 256 512 l 1,17,-1
 320 512 l 1,18,-1
 320 448 l 1,19,-1
 256 448 l 1,16,-1
64 448 m 1,20,-1
 64 512 l 1,21,-1
 128 512 l 1,22,-1
 128 448 l 1,23,-1
 64 448 l 1,20,-1
EndSplineSet
Validated: 5
EndChar

StartChar: quotedblright
Encoding: 8221 8221 113
Width: 384
GlyphClass: 2
Flags: W
LayerCount: 2
Fore
SplineSet
192 320 m 1,0,-1
 192 384 l 1,1,-1
 256 384 l 1,2,-1
 256 320 l 1,3,-1
 192 320 l 1,0,-1
0 320 m 1,4,-1
 0 384 l 1,5,-1
 64 384 l 1,6,-1
 64 320 l 1,7,-1
 0 320 l 1,4,-1
256 384 m 1,8,-1
 256 448 l 1,9,-1
 192 448 l 1,10,-1
 192 512 l 1,11,-1
 256 512 l 1,12,-1
 320 512 l 1,13,-1
 320 448 l 1,14,-1
 320 384 l 1,15,-1
 256 384 l 1,8,-1
64 384 m 1,16,-1
 64 448 l 1,17,-1
 0 448 l 1,18,-1
 0 512 l 1,19,-1
 64 512 l 1,20,-1
 128 512 l 1,21,-1
 128 448 l 1,22,-1
 128 384 l 1,23,-1
 64 384 l 1,16,-1
EndSplineSet
Validated: 5
EndChar

StartChar: bullet
Encoding: 8226 8226 114
Width: 320
GlyphClass: 2
Flags: W
LayerCount: 2
Fore
SplineSet
128 128 m 1,0,-1
 64 128 l 1,1,-1
 64 192 l 1,2,-1
 0 192 l 1,3,-1
 0 256 l 1,4,-1
 0 320 l 1,5,-1
 64 320 l 1,6,-1
 64 384 l 1,7,-1
 128 384 l 1,8,-1
 192 384 l 1,9,-1
 192 320 l 1,10,-1
 256 320 l 1,11,-1
 256 256 l 1,12,-1
 256 192 l 1,13,-1
 192 192 l 1,14,-1
 192 128 l 1,15,-1
 128 128 l 1,0,-1
EndSplineSet
Validated: 1
EndChar

StartChar: endash
Encoding: 8211 8211 115
Width: 384
GlyphClass: 2
Flags: W
LayerCount: 2
Fore
SplineSet
256 192 m 1,0,-1
 320 192 l 1,1,-1
 320 128 l 1,2,-1
 256 128 l 1,3,-1
 192 128 l 1,4,-1
 128 128 l 1,5,-1
 64 128 l 1,6,-1
 0 128 l 1,7,-1
 0 192 l 1,8,-1
 64 192 l 1,9,-1
 128 192 l 1,10,-1
 192 192 l 1,11,-1
 256 192 l 1,0,-1
EndSplineSet
Validated: 1
EndChar

StartChar: emdash
Encoding: 8212 8212 116
Width: 576
GlyphClass: 2
Flags: W
LayerCount: 2
Fore
SplineSet
448 192 m 1,0,-1
 512 192 l 1,1,-1
 512 128 l 1,2,-1
 448 128 l 1,3,-1
 384 128 l 1,4,-1
 320 128 l 1,5,-1
 256 128 l 1,6,-1
 192 128 l 1,7,-1
 128 128 l 1,8,-1
 64 128 l 1,9,-1
 0 128 l 1,10,-1
 0 192 l 1,11,-1
 64 192 l 1,12,-1
 128 192 l 1,13,-1
 192 192 l 1,14,-1
 256 192 l 1,15,-1
 320 192 l 1,16,-1
 384 192 l 1,17,-1
 448 192 l 1,0,-1
EndSplineSet
Validated: 1
EndChar

StartChar: tilde
Encoding: 732 732 117
Width: 320
GlyphClass: 2
Flags: W
LayerCount: 2
Fore
SplineSet
128 320 m 1,0,-1
 128 384 l 1,1,-1
 192 384 l 1,2,-1
 192 320 l 1,3,-1
 128 320 l 1,0,-1
0 320 m 1,4,-1
 0 384 l 1,5,-1
 64 384 l 1,6,-1
 64 320 l 1,7,-1
 0 320 l 1,4,-1
192 384 m 1,8,-1
 192 448 l 1,9,-1
 256 448 l 1,10,-1
 256 384 l 1,11,-1
 192 384 l 1,8,-1
128 384 m 1,12,-1
 64 384 l 1,13,-1
 64 448 l 1,14,-1
 128 448 l 1,15,-1
 128 384 l 1,12,-1
EndSplineSet
Validated: 5
EndChar

StartChar: trademark
Encoding: 8482 8482 118
Width: 640
GlyphClass: 2
Flags: W
LayerCount: 2
Fore
SplineSet
512 320 m 1,0,-1
 512 384 l 1,1,-1
 512 448 l 1,2,-1
 576 448 l 1,3,-1
 576 384 l 1,4,-1
 576 320 l 1,5,-1
 512 320 l 1,0,-1
384 320 m 1,6,-1
 384 384 l 1,7,-1
 384 448 l 1,8,-1
 448 448 l 1,9,-1
 448 384 l 1,10,-1
 448 320 l 1,11,-1
 384 320 l 1,6,-1
256 320 m 1,12,-1
 256 384 l 1,13,-1
 256 448 l 1,14,-1
 256 512 l 1,15,-1
 320 512 l 1,16,-1
 384 512 l 1,17,-1
 384 448 l 1,18,-1
 320 448 l 1,19,-1
 320 384 l 1,20,-1
 320 320 l 1,21,-1
 256 320 l 1,12,-1
64 320 m 1,22,-1
 64 384 l 1,23,-1
 64 448 l 1,24,-1
 0 448 l 1,25,-1
 0 512 l 1,26,-1
 64 512 l 1,27,-1
 128 512 l 1,28,-1
 192 512 l 1,29,-1
 192 448 l 1,30,-1
 128 448 l 1,31,-1
 128 384 l 1,32,-1
 128 320 l 1,33,-1
 64 320 l 1,22,-1
512 448 m 1,34,-1
 448 448 l 1,35,-1
 448 512 l 1,36,-1
 512 512 l 1,37,-1
 512 448 l 1,34,-1
EndSplineSet
Validated: 5
EndChar

StartChar: scaron
Encoding: 353 353 119
Width: 384
GlyphClass: 2
Flags: W
LayerCount: 2
Fore
SplineSet
128 384 m 1,0,-1
 128 448 l 1,1,-1
 192 448 l 1,2,-1
 192 384 l 1,3,-1
 128 384 l 1,0,-1
192 64 m 1,4,-1
 256 64 l 1,5,-1
 256 0 l 1,6,-1
 192 0 l 1,7,-1
 128 0 l 1,8,-1
 64 0 l 1,9,-1
 0 0 l 1,10,-1
 0 64 l 1,11,-1
 64 64 l 1,12,-1
 128 64 l 1,13,-1
 192 64 l 1,4,-1
256 64 m 1,14,-1
 256 128 l 1,15,-1
 320 128 l 1,16,-1
 320 64 l 1,17,-1
 256 64 l 1,14,-1
256 128 m 1,18,-1
 192 128 l 1,19,-1
 128 128 l 1,20,-1
 64 128 l 1,21,-1
 64 192 l 1,22,-1
 128 192 l 1,23,-1
 192 192 l 1,24,-1
 256 192 l 1,25,-1
 256 128 l 1,18,-1
64 192 m 1,26,-1
 0 192 l 1,27,-1
 0 256 l 1,28,-1
 64 256 l 1,29,-1
 64 192 l 1,26,-1
256 320 m 1,30,-1
 320 320 l 1,31,-1
 320 256 l 1,32,-1
 256 256 l 1,33,-1
 192 256 l 1,34,-1
 128 256 l 1,35,-1
 64 256 l 1,36,-1
 64 320 l 1,37,-1
 128 320 l 1,38,-1
 192 320 l 1,39,-1
 256 320 l 1,30,-1
192 448 m 1,40,-1
 192 512 l 1,41,-1
 256 512 l 1,42,-1
 256 448 l 1,43,-1
 192 448 l 1,40,-1
128 448 m 1,44,-1
 64 448 l 1,45,-1
 64 512 l 1,46,-1
 128 512 l 1,47,-1
 128 448 l 1,44,-1
EndSplineSet
Validated: 5
EndChar

StartChar: guilsinglright
Encoding: 8250 8250 120
Width: 256
GlyphClass: 2
Flags: W
LayerCount: 2
Fore
SplineSet
0 64 m 1,0,-1
 0 128 l 1,1,-1
 64 128 l 1,2,-1
 64 64 l 1,3,-1
 0 64 l 1,0,-1
64 128 m 1,4,-1
 64 192 l 1,5,-1
 128 192 l 1,6,-1
 128 128 l 1,7,-1
 64 128 l 1,4,-1
128 192 m 1,8,-1
 128 256 l 1,9,-1
 192 256 l 1,10,-1
 192 192 l 1,11,-1
 128 192 l 1,8,-1
128 256 m 1,12,-1
 64 256 l 1,13,-1
 64 320 l 1,14,-1
 128 320 l 1,15,-1
 128 256 l 1,12,-1
64 320 m 1,16,-1
 0 320 l 1,17,-1
 0 384 l 1,18,-1
 64 384 l 1,19,-1
 64 320 l 1,16,-1
EndSplineSet
Validated: 5
EndChar

StartChar: oe
Encoding: 339 339 121
Width: 640
GlyphClass: 2
Flags: W
LayerCount: 2
Fore
SplineSet
448 64 m 1,0,-1
 512 64 l 1,1,-1
 512 0 l 1,2,-1
 448 0 l 1,3,-1
 384 0 l 1,4,-1
 320 0 l 1,5,-1
 320 64 l 1,6,-1
 384 64 l 1,7,-1
 448 64 l 1,0,-1
192 64 m 1,8,-1
 256 64 l 1,9,-1
 256 0 l 1,10,-1
 192 0 l 1,11,-1
 128 0 l 1,12,-1
 64 0 l 1,13,-1
 64 64 l 1,14,-1
 128 64 l 1,15,-1
 192 64 l 1,8,-1
320 64 m 1,16,-1
 256 64 l 1,17,-1
 256 128 l 1,18,-1
 256 192 l 1,19,-1
 256 256 l 1,20,-1
 320 256 l 1,21,-1
 320 192 l 1,22,-1
 384 192 l 1,23,-1
 448 192 l 1,24,-1
 512 192 l 1,25,-1
 512 256 l 1,26,-1
 576 256 l 1,27,-1
 576 192 l 1,28,-1
 576 128 l 1,29,-1
 512 128 l 1,30,-1
 448 128 l 1,31,-1
 384 128 l 1,32,-1
 320 128 l 1,33,-1
 320 64 l 1,16,-1
64 64 m 1,34,-1
 0 64 l 1,35,-1
 0 128 l 1,36,-1
 0 192 l 1,37,-1
 0 256 l 1,38,-1
 64 256 l 1,39,-1
 64 192 l 1,40,-1
 64 128 l 1,41,-1
 64 64 l 1,34,-1
512 256 m 1,42,-1
 448 256 l 1,43,-1
 384 256 l 1,44,-1
 320 256 l 1,45,-1
 320 320 l 1,46,-1
 384 320 l 1,47,-1
 448 320 l 1,48,-1
 512 320 l 1,49,-1
 512 256 l 1,42,-1
256 256 m 1,50,-1
 192 256 l 1,51,-1
 128 256 l 1,52,-1
 64 256 l 1,53,-1
 64 320 l 1,54,-1
 128 320 l 1,55,-1
 192 320 l 1,56,-1
 256 320 l 1,57,-1
 256 256 l 1,50,-1
EndSplineSet
Validated: 5
EndChar

StartChar: Ydieresis
Encoding: 376 376 122
Width: 384
GlyphClass: 2
Flags: W
LayerCount: 2
Fore
SplineSet
128 0 m 1,0,-1
 128 64 l 1,1,-1
 128 128 l 1,2,-1
 128 192 l 1,3,-1
 192 192 l 1,4,-1
 192 128 l 1,5,-1
 192 64 l 1,6,-1
 192 0 l 1,7,-1
 128 0 l 1,0,-1
192 512 m 1,8,-1
 192 576 l 1,9,-1
 256 576 l 1,10,-1
 256 512 l 1,11,-1
 192 512 l 1,8,-1
64 512 m 1,12,-1
 64 576 l 1,13,-1
 128 576 l 1,14,-1
 128 512 l 1,15,-1
 64 512 l 1,12,-1
192 192 m 1,16,-1
 192 256 l 1,17,-1
 256 256 l 1,18,-1
 256 192 l 1,19,-1
 192 192 l 1,16,-1
128 192 m 1,20,-1
 64 192 l 1,21,-1
 64 256 l 1,22,-1
 128 256 l 1,23,-1
 128 192 l 1,20,-1
256 256 m 1,24,-1
 256 320 l 1,25,-1
 256 384 l 1,26,-1
 256 448 l 1,27,-1
 320 448 l 1,28,-1
 320 384 l 1,29,-1
 320 320 l 1,30,-1
 320 256 l 1,31,-1
 256 256 l 1,24,-1
64 256 m 1,32,-1
 0 256 l 1,33,-1
 0 320 l 1,34,-1
 0 384 l 1,35,-1
 0 448 l 1,36,-1
 64 448 l 1,37,-1
 64 384 l 1,38,-1
 64 320 l 1,39,-1
 64 256 l 1,32,-1
EndSplineSet
Validated: 5
EndChar

StartChar: exclamdown
Encoding: 161 161 124
Width: 128
GlyphClass: 2
Flags: W
LayerCount: 2
Fore
SplineSet
0 0 m 1,0,-1
 0 64 l 1,1,-1
 0 128 l 1,2,-1
 0 192 l 1,3,-1
 0 256 l 1,4,-1
 0 320 l 1,5,-1
 64 320 l 1,6,-1
 64 256 l 1,7,-1
 64 192 l 1,8,-1
 64 128 l 1,9,-1
 64 64 l 1,10,-1
 64 0 l 1,11,-1
 0 0 l 1,0,-1
0 384 m 1,12,-1
 0 448 l 1,13,-1
 64 448 l 1,14,-1
 64 384 l 1,15,-1
 0 384 l 1,12,-1
EndSplineSet
Validated: 1
EndChar

StartChar: cent
Encoding: 162 162 125
Width: 384
GlyphClass: 2
Flags: W
LayerCount: 2
Fore
SplineSet
128 -64 m 1,0,-1
 128 0 l 1,1,-1
 64 0 l 1,2,-1
 64 64 l 1,3,-1
 128 64 l 1,4,-1
 192 64 l 1,5,-1
 256 64 l 1,6,-1
 256 0 l 1,7,-1
 192 0 l 1,8,-1
 192 -64 l 1,9,-1
 128 -64 l 1,0,-1
256 192 m 1,10,-1
 256 256 l 1,11,-1
 320 256 l 1,12,-1
 320 192 l 1,13,-1
 256 192 l 1,10,-1
256 64 m 1,14,-1
 256 128 l 1,15,-1
 320 128 l 1,16,-1
 320 64 l 1,17,-1
 256 64 l 1,14,-1
64 64 m 1,18,-1
 0 64 l 1,19,-1
 0 128 l 1,20,-1
 0 192 l 1,21,-1
 0 256 l 1,22,-1
 64 256 l 1,23,-1
 64 192 l 1,24,-1
 64 128 l 1,25,-1
 64 64 l 1,18,-1
256 256 m 1,26,-1
 192 256 l 1,27,-1
 128 256 l 1,28,-1
 64 256 l 1,29,-1
 64 320 l 1,30,-1
 128 320 l 1,31,-1
 128 384 l 1,32,-1
 192 384 l 1,33,-1
 192 320 l 1,34,-1
 256 320 l 1,35,-1
 256 256 l 1,26,-1
EndSplineSet
Validated: 5
EndChar

StartChar: sterling
Encoding: 163 163 126
Width: 448
GlyphClass: 2
Flags: W
LayerCount: 2
Fore
SplineSet
320 320 m 1,0,-1
 320 384 l 1,1,-1
 384 384 l 1,2,-1
 384 320 l 1,3,-1
 320 320 l 1,0,-1
256 64 m 1,4,-1
 320 64 l 1,5,-1
 320 0 l 1,6,-1
 256 0 l 1,7,-1
 192 0 l 1,8,-1
 128 0 l 1,9,-1
 64 0 l 1,10,-1
 0 0 l 1,11,-1
 0 64 l 1,12,-1
 64 64 l 1,13,-1
 64 128 l 1,14,-1
 64 192 l 1,15,-1
 0 192 l 1,16,-1
 0 256 l 1,17,-1
 64 256 l 1,18,-1
 64 320 l 1,19,-1
 64 384 l 1,20,-1
 128 384 l 1,21,-1
 128 320 l 1,22,-1
 128 256 l 1,23,-1
 192 256 l 1,24,-1
 256 256 l 1,25,-1
 256 192 l 1,26,-1
 192 192 l 1,27,-1
 128 192 l 1,28,-1
 128 128 l 1,29,-1
 128 64 l 1,30,-1
 192 64 l 1,31,-1
 256 64 l 1,4,-1
320 64 m 1,32,-1
 320 128 l 1,33,-1
 384 128 l 1,34,-1
 384 64 l 1,35,-1
 320 64 l 1,32,-1
320 384 m 1,36,-1
 256 384 l 1,37,-1
 192 384 l 1,38,-1
 128 384 l 1,39,-1
 128 448 l 1,40,-1
 192 448 l 1,41,-1
 256 448 l 1,42,-1
 320 448 l 1,43,-1
 320 384 l 1,36,-1
EndSplineSet
Validated: 5
EndChar

StartChar: currency
Encoding: 164 164 127
Width: 384
GlyphClass: 2
Flags: W
LayerCount: 2
Fore
SplineSet
256 64 m 1,0,-1
 256 128 l 1,1,-1
 320 128 l 1,2,-1
 320 64 l 1,3,-1
 256 64 l 1,0,-1
0 64 m 1,4,-1
 0 128 l 1,5,-1
 64 128 l 1,6,-1
 64 64 l 1,7,-1
 0 64 l 1,4,-1
256 128 m 1,8,-1
 192 128 l 1,9,-1
 128 128 l 1,10,-1
 64 128 l 1,11,-1
 64 192 l 1,12,-1
 64 256 l 1,13,-1
 64 320 l 1,14,-1
 128 320 l 1,15,-1
 192 320 l 1,16,-1
 256 320 l 1,17,-1
 256 256 l 1,18,-1
 256 192 l 1,19,-1
 256 128 l 1,8,-1
192 192 m 1,20,-1
 192 256 l 1,21,-1
 128 256 l 1,22,-1
 128 192 l 1,23,-1
 192 192 l 1,20,-1
256 320 m 1,24,-1
 256 384 l 1,25,-1
 320 384 l 1,26,-1
 320 320 l 1,27,-1
 256 320 l 1,24,-1
64 320 m 1,28,-1
 0 320 l 1,29,-1
 0 384 l 1,30,-1
 64 384 l 1,31,-1
 64 320 l 1,28,-1
EndSplineSet
Validated: 5
EndChar

StartChar: yen
Encoding: 165 165 128
Width: 384
GlyphClass: 2
Flags: W
LayerCount: 2
Fore
SplineSet
128 0 m 1,0,-1
 128 64 l 1,1,-1
 64 64 l 1,2,-1
 64 128 l 1,3,-1
 128 128 l 1,4,-1
 128 192 l 1,5,-1
 192 192 l 1,6,-1
 192 128 l 1,7,-1
 256 128 l 1,8,-1
 256 64 l 1,9,-1
 192 64 l 1,10,-1
 192 0 l 1,11,-1
 128 0 l 1,0,-1
192 192 m 1,12,-1
 192 256 l 1,13,-1
 256 256 l 1,14,-1
 256 192 l 1,15,-1
 192 192 l 1,12,-1
128 192 m 1,16,-1
 64 192 l 1,17,-1
 64 256 l 1,18,-1
 128 256 l 1,19,-1
 128 192 l 1,16,-1
256 256 m 1,20,-1
 256 320 l 1,21,-1
 256 384 l 1,22,-1
 256 448 l 1,23,-1
 320 448 l 1,24,-1
 320 384 l 1,25,-1
 320 320 l 1,26,-1
 320 256 l 1,27,-1
 256 256 l 1,20,-1
64 256 m 1,28,-1
 0 256 l 1,29,-1
 0 320 l 1,30,-1
 0 384 l 1,31,-1
 0 448 l 1,32,-1
 64 448 l 1,33,-1
 64 384 l 1,34,-1
 64 320 l 1,35,-1
 64 256 l 1,28,-1
EndSplineSet
Validated: 5
EndChar

StartChar: brokenbar
Encoding: 166 166 129
Width: 128
GlyphClass: 2
Flags: W
LayerCount: 2
Fore
SplineSet
0 -64 m 1,0,-1
 0 0 l 1,1,-1
 0 64 l 1,2,-1
 0 128 l 1,3,-1
 64 128 l 1,4,-1
 64 64 l 1,5,-1
 64 0 l 1,6,-1
 64 -64 l 1,7,-1
 0 -64 l 1,0,-1
0 256 m 1,8,-1
 0 320 l 1,9,-1
 0 384 l 1,10,-1
 0 448 l 1,11,-1
 64 448 l 1,12,-1
 64 384 l 1,13,-1
 64 320 l 1,14,-1
 64 256 l 1,15,-1
 0 256 l 1,8,-1
EndSplineSet
Validated: 1
EndChar

StartChar: section
Encoding: 167 167 130
Width: 384
GlyphClass: 2
Flags: W
LayerCount: 2
Fore
SplineSet
192 0 m 1,0,-1
 256 0 l 1,1,-1
 256 -64 l 1,2,-1
 192 -64 l 1,3,-1
 128 -64 l 1,4,-1
 64 -64 l 1,5,-1
 0 -64 l 1,6,-1
 0 0 l 1,7,-1
 64 0 l 1,8,-1
 128 0 l 1,9,-1
 192 0 l 1,0,-1
256 0 m 1,10,-1
 256 64 l 1,11,-1
 320 64 l 1,12,-1
 320 0 l 1,13,-1
 256 0 l 1,10,-1
256 64 m 1,14,-1
 192 64 l 1,15,-1
 128 64 l 1,16,-1
 64 64 l 1,17,-1
 64 128 l 1,18,-1
 128 128 l 1,19,-1
 192 128 l 1,20,-1
 256 128 l 1,21,-1
 256 64 l 1,14,-1
256 128 m 1,22,-1
 256 192 l 1,23,-1
 256 256 l 1,24,-1
 320 256 l 1,25,-1
 320 192 l 1,26,-1
 320 128 l 1,27,-1
 256 128 l 1,22,-1
64 128 m 1,28,-1
 0 128 l 1,29,-1
 0 192 l 1,30,-1
 0 256 l 1,31,-1
 64 256 l 1,32,-1
 64 192 l 1,33,-1
 64 128 l 1,28,-1
256 256 m 1,34,-1
 192 256 l 1,35,-1
 128 256 l 1,36,-1
 64 256 l 1,37,-1
 64 320 l 1,38,-1
 128 320 l 1,39,-1
 192 320 l 1,40,-1
 256 320 l 1,41,-1
 256 256 l 1,34,-1
64 320 m 1,42,-1
 0 320 l 1,43,-1
 0 384 l 1,44,-1
 64 384 l 1,45,-1
 64 320 l 1,42,-1
256 448 m 1,46,-1
 320 448 l 1,47,-1
 320 384 l 1,48,-1
 256 384 l 1,49,-1
 192 384 l 1,50,-1
 128 384 l 1,51,-1
 64 384 l 1,52,-1
 64 448 l 1,53,-1
 128 448 l 1,54,-1
 192 448 l 1,55,-1
 256 448 l 1,46,-1
EndSplineSet
Validated: 5
EndChar

StartChar: dieresis
Encoding: 168 168 131
Width: 256
GlyphClass: 2
Flags: W
LayerCount: 2
Fore
SplineSet
128 384 m 1,0,-1
 128 448 l 1,1,-1
 192 448 l 1,2,-1
 192 384 l 1,3,-1
 128 384 l 1,0,-1
0 384 m 1,4,-1
 0 448 l 1,5,-1
 64 448 l 1,6,-1
 64 384 l 1,7,-1
 0 384 l 1,4,-1
EndSplineSet
Validated: 1
EndChar

StartChar: copyright
Encoding: 169 169 132
Width: 576
GlyphClass: 2
Flags: W
LayerCount: 2
Fore
SplineSet
320 256 m 1,0,-1
 320 320 l 1,1,-1
 384 320 l 1,2,-1
 384 256 l 1,3,-1
 320 256 l 1,0,-1
320 0 m 1,4,-1
 384 0 l 1,5,-1
 384 -64 l 1,6,-1
 320 -64 l 1,7,-1
 256 -64 l 1,8,-1
 192 -64 l 1,9,-1
 128 -64 l 1,10,-1
 128 0 l 1,11,-1
 192 0 l 1,12,-1
 256 0 l 1,13,-1
 320 0 l 1,4,-1
384 0 m 1,14,-1
 384 64 l 1,15,-1
 448 64 l 1,16,-1
 448 0 l 1,17,-1
 384 0 l 1,14,-1
128 0 m 1,18,-1
 64 0 l 1,19,-1
 64 64 l 1,20,-1
 128 64 l 1,21,-1
 128 0 l 1,18,-1
448 64 m 1,22,-1
 448 128 l 1,23,-1
 448 192 l 1,24,-1
 448 256 l 1,25,-1
 448 320 l 1,26,-1
 448 384 l 1,27,-1
 512 384 l 1,28,-1
 512 320 l 1,29,-1
 512 256 l 1,30,-1
 512 192 l 1,31,-1
 512 128 l 1,32,-1
 512 64 l 1,33,-1
 448 64 l 1,22,-1
256 128 m 1,34,-1
 320 128 l 1,35,-1
 320 64 l 1,36,-1
 256 64 l 1,37,-1
 192 64 l 1,38,-1
 192 128 l 1,39,-1
 256 128 l 1,34,-1
64 64 m 1,40,-1
 0 64 l 1,41,-1
 0 128 l 1,42,-1
 0 192 l 1,43,-1
 0 256 l 1,44,-1
 0 320 l 1,45,-1
 0 384 l 1,46,-1
 64 384 l 1,47,-1
 64 320 l 1,48,-1
 64 256 l 1,49,-1
 64 192 l 1,50,-1
 64 128 l 1,51,-1
 64 64 l 1,40,-1
320 128 m 1,52,-1
 320 192 l 1,53,-1
 384 192 l 1,54,-1
 384 128 l 1,55,-1
 320 128 l 1,52,-1
192 128 m 1,56,-1
 128 128 l 1,57,-1
 128 192 l 1,58,-1
 128 256 l 1,59,-1
 128 320 l 1,60,-1
 192 320 l 1,61,-1
 192 256 l 1,62,-1
 192 192 l 1,63,-1
 192 128 l 1,56,-1
320 320 m 1,64,-1
 256 320 l 1,65,-1
 192 320 l 1,66,-1
 192 384 l 1,67,-1
 256 384 l 1,68,-1
 320 384 l 1,69,-1
 320 320 l 1,64,-1
448 384 m 1,70,-1
 384 384 l 1,71,-1
 384 448 l 1,72,-1
 448 448 l 1,73,-1
 448 384 l 1,70,-1
64 384 m 1,74,-1
 64 448 l 1,75,-1
 128 448 l 1,76,-1
 128 384 l 1,77,-1
 64 384 l 1,74,-1
384 448 m 1,78,-1
 320 448 l 1,79,-1
 256 448 l 1,80,-1
 192 448 l 1,81,-1
 128 448 l 1,82,-1
 128 512 l 1,83,-1
 192 512 l 1,84,-1
 256 512 l 1,85,-1
 320 512 l 1,86,-1
 384 512 l 1,87,-1
 384 448 l 1,78,-1
EndSplineSet
Validated: 5
EndChar

StartChar: ordfeminine
Encoding: 170 170 133
Width: 256
GlyphClass: 2
Flags: W
LayerCount: 2
Fore
SplineSet
128 128 m 1,0,-1
 64 128 l 1,1,-1
 64 192 l 1,2,-1
 0 192 l 1,3,-1
 0 256 l 1,4,-1
 64 256 l 1,5,-1
 64 320 l 1,6,-1
 128 320 l 1,7,-1
 128 384 l 1,8,-1
 192 384 l 1,9,-1
 192 320 l 1,10,-1
 192 256 l 1,11,-1
 192 192 l 1,12,-1
 192 128 l 1,13,-1
 128 128 l 1,0,-1
128 192 m 1,14,-1
 128 256 l 1,15,-1
 64 256 l 1,16,-1
 64 192 l 1,17,-1
 128 192 l 1,14,-1
128 384 m 1,18,-1
 64 384 l 1,19,-1
 0 384 l 1,20,-1
 0 448 l 1,21,-1
 64 448 l 1,22,-1
 128 448 l 1,23,-1
 128 384 l 1,18,-1
EndSplineSet
Validated: 5
EndChar

StartChar: guillemotleft
Encoding: 171 171 134
Width: 448
GlyphClass: 2
Flags: W
LayerCount: 2
Fore
SplineSet
320 64 m 1,0,-1
 320 128 l 1,1,-1
 384 128 l 1,2,-1
 384 64 l 1,3,-1
 320 64 l 1,0,-1
128 64 m 1,4,-1
 128 128 l 1,5,-1
 192 128 l 1,6,-1
 192 64 l 1,7,-1
 128 64 l 1,4,-1
320 128 m 1,8,-1
 256 128 l 1,9,-1
 256 192 l 1,10,-1
 320 192 l 1,11,-1
 320 128 l 1,8,-1
128 128 m 1,12,-1
 64 128 l 1,13,-1
 64 192 l 1,14,-1
 128 192 l 1,15,-1
 128 128 l 1,12,-1
256 192 m 1,16,-1
 192 192 l 1,17,-1
 192 256 l 1,18,-1
 256 256 l 1,19,-1
 256 192 l 1,16,-1
64 192 m 1,20,-1
 0 192 l 1,21,-1
 0 256 l 1,22,-1
 64 256 l 1,23,-1
 64 192 l 1,20,-1
256 256 m 1,24,-1
 256 320 l 1,25,-1
 320 320 l 1,26,-1
 320 256 l 1,27,-1
 256 256 l 1,24,-1
64 256 m 1,28,-1
 64 320 l 1,29,-1
 128 320 l 1,30,-1
 128 256 l 1,31,-1
 64 256 l 1,28,-1
320 320 m 1,32,-1
 320 384 l 1,33,-1
 384 384 l 1,34,-1
 384 320 l 1,35,-1
 320 320 l 1,32,-1
128 320 m 1,36,-1
 128 384 l 1,37,-1
 192 384 l 1,38,-1
 192 320 l 1,39,-1
 128 320 l 1,36,-1
EndSplineSet
Validated: 5
EndChar

StartChar: logicalnot
Encoding: 172 172 135
Width: 320
GlyphClass: 2
Flags: W
LayerCount: 2
Fore
SplineSet
192 128 m 1,0,-1
 192 192 l 1,1,-1
 128 192 l 1,2,-1
 64 192 l 1,3,-1
 0 192 l 1,4,-1
 0 256 l 1,5,-1
 64 256 l 1,6,-1
 128 256 l 1,7,-1
 192 256 l 1,8,-1
 256 256 l 1,9,-1
 256 192 l 1,10,-1
 256 128 l 1,11,-1
 192 128 l 1,0,-1
EndSplineSet
Validated: 1
EndChar

StartChar: registered
Encoding: 174 174 136
Width: 576
GlyphClass: 2
Flags: W
LayerCount: 2
Fore
SplineSet
320 0 m 1,0,-1
 384 0 l 1,1,-1
 384 -64 l 1,2,-1
 320 -64 l 1,3,-1
 256 -64 l 1,4,-1
 192 -64 l 1,5,-1
 128 -64 l 1,6,-1
 128 0 l 1,7,-1
 192 0 l 1,8,-1
 256 0 l 1,9,-1
 320 0 l 1,0,-1
384 0 m 1,10,-1
 384 64 l 1,11,-1
 448 64 l 1,12,-1
 448 0 l 1,13,-1
 384 0 l 1,10,-1
128 0 m 1,14,-1
 64 0 l 1,15,-1
 64 64 l 1,16,-1
 128 64 l 1,17,-1
 128 0 l 1,14,-1
448 64 m 1,18,-1
 448 128 l 1,19,-1
 448 192 l 1,20,-1
 448 256 l 1,21,-1
 448 320 l 1,22,-1
 448 384 l 1,23,-1
 512 384 l 1,24,-1
 512 320 l 1,25,-1
 512 256 l 1,26,-1
 512 192 l 1,27,-1
 512 128 l 1,28,-1
 512 64 l 1,29,-1
 448 64 l 1,18,-1
384 64 m 1,30,-1
 320 64 l 1,31,-1
 320 128 l 1,32,-1
 320 192 l 1,33,-1
 384 192 l 1,34,-1
 384 128 l 1,35,-1
 384 64 l 1,30,-1
128 64 m 1,36,-1
 128 128 l 1,37,-1
 128 192 l 1,38,-1
 128 256 l 1,39,-1
 128 320 l 1,40,-1
 128 384 l 1,41,-1
 192 384 l 1,42,-1
 256 384 l 1,43,-1
 320 384 l 1,44,-1
 320 320 l 1,45,-1
 384 320 l 1,46,-1
 384 256 l 1,47,-1
 320 256 l 1,48,-1
 320 320 l 1,49,-1
 256 320 l 1,50,-1
 192 320 l 1,51,-1
 192 256 l 1,52,-1
 256 256 l 1,53,-1
 320 256 l 1,54,-1
 320 192 l 1,55,-1
 256 192 l 1,56,-1
 192 192 l 1,57,-1
 192 128 l 1,58,-1
 192 64 l 1,59,-1
 128 64 l 1,36,-1
64 64 m 1,60,-1
 0 64 l 1,61,-1
 0 128 l 1,62,-1
 0 192 l 1,63,-1
 0 256 l 1,64,-1
 0 320 l 1,65,-1
 0 384 l 1,66,-1
 64 384 l 1,67,-1
 64 320 l 1,68,-1
 64 256 l 1,69,-1
 64 192 l 1,70,-1
 64 128 l 1,71,-1
 64 64 l 1,60,-1
448 384 m 1,72,-1
 384 384 l 1,73,-1
 384 448 l 1,74,-1
 448 448 l 1,75,-1
 448 384 l 1,72,-1
128 384 m 1,76,-1
 64 384 l 1,77,-1
 64 448 l 1,78,-1
 128 448 l 1,79,-1
 128 384 l 1,76,-1
384 448 m 1,80,-1
 320 448 l 1,81,-1
 256 448 l 1,82,-1
 192 448 l 1,83,-1
 128 448 l 1,84,-1
 128 512 l 1,85,-1
 192 512 l 1,86,-1
 256 512 l 1,87,-1
 320 512 l 1,88,-1
 384 512 l 1,89,-1
 384 448 l 1,80,-1
EndSplineSet
Validated: 5
EndChar

StartChar: degree
Encoding: 176 176 137
Width: 256
GlyphClass: 2
Flags: W
LayerCount: 2
Fore
SplineSet
64 256 m 1,0,-1
 64 320 l 1,1,-1
 128 320 l 1,2,-1
 128 256 l 1,3,-1
 64 256 l 1,0,-1
128 320 m 1,4,-1
 128 384 l 1,5,-1
 192 384 l 1,6,-1
 192 320 l 1,7,-1
 128 320 l 1,4,-1
64 320 m 1,8,-1
 0 320 l 1,9,-1
 0 384 l 1,10,-1
 64 384 l 1,11,-1
 64 320 l 1,8,-1
128 384 m 1,12,-1
 64 384 l 1,13,-1
 64 448 l 1,14,-1
 128 448 l 1,15,-1
 128 384 l 1,12,-1
EndSplineSet
Validated: 5
EndChar

StartChar: plusminus
Encoding: 177 177 138
Width: 384
GlyphClass: 2
Flags: W
LayerCount: 2
Fore
SplineSet
256 64 m 1,0,-1
 320 64 l 1,1,-1
 320 0 l 1,2,-1
 256 0 l 1,3,-1
 192 0 l 1,4,-1
 128 0 l 1,5,-1
 64 0 l 1,6,-1
 0 0 l 1,7,-1
 0 64 l 1,8,-1
 64 64 l 1,9,-1
 128 64 l 1,10,-1
 128 128 l 1,11,-1
 128 192 l 1,12,-1
 64 192 l 1,13,-1
 0 192 l 1,14,-1
 0 256 l 1,15,-1
 64 256 l 1,16,-1
 128 256 l 1,17,-1
 128 320 l 1,18,-1
 128 384 l 1,19,-1
 192 384 l 1,20,-1
 192 320 l 1,21,-1
 192 256 l 1,22,-1
 256 256 l 1,23,-1
 320 256 l 1,24,-1
 320 192 l 1,25,-1
 256 192 l 1,26,-1
 192 192 l 1,27,-1
 192 128 l 1,28,-1
 192 64 l 1,29,-1
 256 64 l 1,0,-1
EndSplineSet
Validated: 1
EndChar

StartChar: acute
Encoding: 180 180 139
Width: 192
GlyphClass: 2
Flags: W
LayerCount: 2
Fore
SplineSet
0 384 m 1,0,-1
 0 448 l 1,1,-1
 64 448 l 1,2,-1
 64 384 l 1,3,-1
 0 384 l 1,0,-1
64 448 m 1,4,-1
 64 512 l 1,5,-1
 128 512 l 1,6,-1
 128 448 l 1,7,-1
 64 448 l 1,4,-1
EndSplineSet
Validated: 5
EndChar

StartChar: uni00B5
Encoding: 181 181 140
Width: 384
GlyphClass: 2
Flags: W
LayerCount: 2
Fore
SplineSet
0 -128 m 1,0,-1
 0 -64 l 1,1,-1
 0 0 l 1,2,-1
 0 64 l 1,3,-1
 0 128 l 1,4,-1
 0 192 l 1,5,-1
 0 256 l 1,6,-1
 0 320 l 1,7,-1
 64 320 l 1,8,-1
 64 256 l 1,9,-1
 64 192 l 1,10,-1
 64 128 l 1,11,-1
 64 64 l 1,12,-1
 128 64 l 1,13,-1
 192 64 l 1,14,-1
 192 0 l 1,15,-1
 128 0 l 1,16,-1
 64 0 l 1,17,-1
 64 -64 l 1,18,-1
 64 -128 l 1,19,-1
 0 -128 l 1,0,-1
256 0 m 1,20,-1
 256 64 l 1,21,-1
 192 64 l 1,22,-1
 192 128 l 1,23,-1
 256 128 l 1,24,-1
 256 192 l 1,25,-1
 256 256 l 1,26,-1
 256 320 l 1,27,-1
 320 320 l 1,28,-1
 320 256 l 1,29,-1
 320 192 l 1,30,-1
 320 128 l 1,31,-1
 320 64 l 1,32,-1
 320 0 l 1,33,-1
 256 0 l 1,20,-1
EndSplineSet
Validated: 5
EndChar

StartChar: paragraph
Encoding: 182 182 141
Width: 512
GlyphClass: 2
Flags: W
LayerCount: 2
Fore
SplineSet
320 -64 m 1,0,-1
 320 0 l 1,1,-1
 320 64 l 1,2,-1
 320 128 l 1,3,-1
 320 192 l 1,4,-1
 320 256 l 1,5,-1
 320 320 l 1,6,-1
 320 384 l 1,7,-1
 256 384 l 1,8,-1
 256 320 l 1,9,-1
 256 256 l 1,10,-1
 256 192 l 1,11,-1
 256 128 l 1,12,-1
 256 64 l 1,13,-1
 256 0 l 1,14,-1
 256 -64 l 1,15,-1
 192 -64 l 1,16,-1
 192 0 l 1,17,-1
 192 64 l 1,18,-1
 192 128 l 1,19,-1
 192 192 l 1,20,-1
 128 192 l 1,21,-1
 64 192 l 1,22,-1
 64 256 l 1,23,-1
 0 256 l 1,24,-1
 0 320 l 1,25,-1
 0 384 l 1,26,-1
 64 384 l 1,27,-1
 64 448 l 1,28,-1
 128 448 l 1,29,-1
 192 448 l 1,30,-1
 256 448 l 1,31,-1
 320 448 l 1,32,-1
 384 448 l 1,33,-1
 448 448 l 1,34,-1
 448 384 l 1,35,-1
 384 384 l 1,36,-1
 384 320 l 1,37,-1
 384 256 l 1,38,-1
 384 192 l 1,39,-1
 384 128 l 1,40,-1
 384 64 l 1,41,-1
 384 0 l 1,42,-1
 384 -64 l 1,43,-1
 320 -64 l 1,0,-1
EndSplineSet
Validated: 1
EndChar

StartChar: periodcentered
Encoding: 183 183 142
Width: 128
GlyphClass: 2
Flags: W
LayerCount: 2
Fore
SplineSet
0 192 m 1,0,-1
 0 256 l 1,1,-1
 64 256 l 1,2,-1
 64 192 l 1,3,-1
 0 192 l 1,0,-1
EndSplineSet
Validated: 1
EndChar

StartChar: cedilla
Encoding: 184 184 143
Width: 192
GlyphClass: 2
Flags: W
LayerCount: 2
Fore
SplineSet
0 -64 m 1,0,-1
 0 0 l 1,1,-1
 64 0 l 1,2,-1
 64 -64 l 1,3,-1
 0 -64 l 1,0,-1
64 0 m 1,4,-1
 64 64 l 1,5,-1
 128 64 l 1,6,-1
 128 0 l 1,7,-1
 64 0 l 1,4,-1
EndSplineSet
Validated: 5
EndChar

StartChar: ordmasculine
Encoding: 186 186 144
Width: 256
GlyphClass: 2
Flags: W
LayerCount: 2
Fore
SplineSet
64 192 m 1,0,-1
 64 256 l 1,1,-1
 128 256 l 1,2,-1
 128 192 l 1,3,-1
 64 192 l 1,0,-1
128 256 m 1,4,-1
 128 320 l 1,5,-1
 128 384 l 1,6,-1
 192 384 l 1,7,-1
 192 320 l 1,8,-1
 192 256 l 1,9,-1
 128 256 l 1,4,-1
64 256 m 1,10,-1
 0 256 l 1,11,-1
 0 320 l 1,12,-1
 0 384 l 1,13,-1
 64 384 l 1,14,-1
 64 320 l 1,15,-1
 64 256 l 1,10,-1
128 384 m 1,16,-1
 64 384 l 1,17,-1
 64 448 l 1,18,-1
 128 448 l 1,19,-1
 128 384 l 1,16,-1
EndSplineSet
Validated: 5
EndChar

StartChar: guillemotright
Encoding: 187 187 145
Width: 448
GlyphClass: 2
Flags: W
LayerCount: 2
Fore
SplineSet
192 64 m 1,0,-1
 192 128 l 1,1,-1
 256 128 l 1,2,-1
 256 64 l 1,3,-1
 192 64 l 1,0,-1
0 64 m 1,4,-1
 0 128 l 1,5,-1
 64 128 l 1,6,-1
 64 64 l 1,7,-1
 0 64 l 1,4,-1
256 128 m 1,8,-1
 256 192 l 1,9,-1
 320 192 l 1,10,-1
 320 128 l 1,11,-1
 256 128 l 1,8,-1
64 128 m 1,12,-1
 64 192 l 1,13,-1
 128 192 l 1,14,-1
 128 128 l 1,15,-1
 64 128 l 1,12,-1
320 192 m 1,16,-1
 320 256 l 1,17,-1
 384 256 l 1,18,-1
 384 192 l 1,19,-1
 320 192 l 1,16,-1
128 192 m 1,20,-1
 128 256 l 1,21,-1
 192 256 l 1,22,-1
 192 192 l 1,23,-1
 128 192 l 1,20,-1
320 256 m 1,24,-1
 256 256 l 1,25,-1
 256 320 l 1,26,-1
 320 320 l 1,27,-1
 320 256 l 1,24,-1
128 256 m 1,28,-1
 64 256 l 1,29,-1
 64 320 l 1,30,-1
 128 320 l 1,31,-1
 128 256 l 1,28,-1
256 320 m 1,32,-1
 192 320 l 1,33,-1
 192 384 l 1,34,-1
 256 384 l 1,35,-1
 256 320 l 1,32,-1
64 320 m 1,36,-1
 0 320 l 1,37,-1
 0 384 l 1,38,-1
 64 384 l 1,39,-1
 64 320 l 1,36,-1
EndSplineSet
Validated: 5
EndChar

StartChar: onequarter
Encoding: 188 188 146
Width: 384
GlyphClass: 2
Flags: W
LayerCount: 2
Fore
SplineSet
192 0 m 1,0,-1
 128 0 l 1,1,-1
 64 0 l 1,2,-1
 64 64 l 1,3,-1
 0 64 l 1,4,-1
 0 128 l 1,5,-1
 0 192 l 1,6,-1
 0 256 l 1,7,-1
 64 256 l 1,8,-1
 64 320 l 1,9,-1
 128 320 l 1,10,-1
 192 320 l 1,11,-1
 192 256 l 1,12,-1
 192 192 l 1,13,-1
 256 192 l 1,14,-1
 320 192 l 1,15,-1
 320 128 l 1,16,-1
 320 64 l 1,17,-1
 256 64 l 1,18,-1
 256 0 l 1,19,-1
 192 0 l 1,0,-1
EndSplineSet
Validated: 1
EndChar

StartChar: onehalf
Encoding: 189 189 147
Width: 256
GlyphClass: 2
Flags: W
LayerCount: 2
Fore
SplineSet
128 0 m 1,0,-1
 64 0 l 1,1,-1
 64 64 l 1,2,-1
 0 64 l 1,3,-1
 0 128 l 1,4,-1
 0 192 l 1,5,-1
 0 256 l 1,6,-1
 64 256 l 1,7,-1
 64 320 l 1,8,-1
 128 320 l 1,9,-1
 192 320 l 1,10,-1
 192 256 l 1,11,-1
 192 192 l 1,12,-1
 192 128 l 1,13,-1
 192 64 l 1,14,-1
 192 0 l 1,15,-1
 128 0 l 1,0,-1
EndSplineSet
Validated: 1
EndChar

StartChar: threequarters
Encoding: 190 190 148
Width: 256
GlyphClass: 2
Flags: W
LayerCount: 2
Fore
SplineSet
128 128 m 1,0,-1
 64 128 l 1,1,-1
 0 128 l 1,2,-1
 0 192 l 1,3,-1
 0 256 l 1,4,-1
 64 256 l 1,5,-1
 64 320 l 1,6,-1
 128 320 l 1,7,-1
 192 320 l 1,8,-1
 192 256 l 1,9,-1
 192 192 l 1,10,-1
 192 128 l 1,11,-1
 128 128 l 1,0,-1
EndSplineSet
Validated: 1
EndChar

StartChar: questiondown
Encoding: 191 191 149
Width: 384
GlyphClass: 2
Flags: W
LayerCount: 2
Fore
SplineSet
128 384 m 1,0,-1
 128 448 l 1,1,-1
 192 448 l 1,2,-1
 192 384 l 1,3,-1
 128 384 l 1,0,-1
192 64 m 1,4,-1
 256 64 l 1,5,-1
 256 0 l 1,6,-1
 192 0 l 1,7,-1
 128 0 l 1,8,-1
 64 0 l 1,9,-1
 64 64 l 1,10,-1
 128 64 l 1,11,-1
 192 64 l 1,4,-1
256 64 m 1,12,-1
 256 128 l 1,13,-1
 320 128 l 1,14,-1
 320 64 l 1,15,-1
 256 64 l 1,12,-1
64 64 m 1,16,-1
 0 64 l 1,17,-1
 0 128 l 1,18,-1
 0 192 l 1,19,-1
 64 192 l 1,20,-1
 64 128 l 1,21,-1
 64 64 l 1,16,-1
64 192 m 1,22,-1
 64 256 l 1,23,-1
 128 256 l 1,24,-1
 128 192 l 1,25,-1
 64 192 l 1,22,-1
128 256 m 1,26,-1
 128 320 l 1,27,-1
 192 320 l 1,28,-1
 192 256 l 1,29,-1
 128 256 l 1,26,-1
EndSplineSet
Validated: 5
EndChar

StartChar: Agrave
Encoding: 192 192 150
Width: 384
GlyphClass: 2
Flags: W
LayerCount: 2
Fore
SplineSet
256 0 m 1,0,-1
 256 64 l 1,1,-1
 256 128 l 1,2,-1
 256 192 l 1,3,-1
 192 192 l 1,4,-1
 128 192 l 1,5,-1
 64 192 l 1,6,-1
 64 128 l 1,7,-1
 64 64 l 1,8,-1
 64 0 l 1,9,-1
 0 0 l 1,10,-1
 0 64 l 1,11,-1
 0 128 l 1,12,-1
 0 192 l 1,13,-1
 0 256 l 1,14,-1
 0 320 l 1,15,-1
 0 384 l 1,16,-1
 64 384 l 1,17,-1
 64 320 l 1,18,-1
 64 256 l 1,19,-1
 128 256 l 1,20,-1
 192 256 l 1,21,-1
 256 256 l 1,22,-1
 256 320 l 1,23,-1
 256 384 l 1,24,-1
 320 384 l 1,25,-1
 320 320 l 1,26,-1
 320 256 l 1,27,-1
 320 192 l 1,28,-1
 320 128 l 1,29,-1
 320 64 l 1,30,-1
 320 0 l 1,31,-1
 256 0 l 1,0,-1
128 512 m 1,32,-1
 128 576 l 1,33,-1
 192 576 l 1,34,-1
 192 512 l 1,35,-1
 128 512 l 1,32,-1
256 384 m 1,36,-1
 192 384 l 1,37,-1
 128 384 l 1,38,-1
 64 384 l 1,39,-1
 64 448 l 1,40,-1
 128 448 l 1,41,-1
 192 448 l 1,42,-1
 256 448 l 1,43,-1
 256 384 l 1,36,-1
128 576 m 1,44,-1
 64 576 l 1,45,-1
 64 640 l 1,46,-1
 128 640 l 1,47,-1
 128 576 l 1,44,-1
EndSplineSet
Validated: 5
EndChar

StartChar: Aacute
Encoding: 193 193 151
Width: 384
GlyphClass: 2
Flags: W
LayerCount: 2
Fore
SplineSet
256 0 m 1,0,-1
 256 64 l 1,1,-1
 256 128 l 1,2,-1
 256 192 l 1,3,-1
 192 192 l 1,4,-1
 128 192 l 1,5,-1
 64 192 l 1,6,-1
 64 128 l 1,7,-1
 64 64 l 1,8,-1
 64 0 l 1,9,-1
 0 0 l 1,10,-1
 0 64 l 1,11,-1
 0 128 l 1,12,-1
 0 192 l 1,13,-1
 0 256 l 1,14,-1
 0 320 l 1,15,-1
 0 384 l 1,16,-1
 64 384 l 1,17,-1
 64 320 l 1,18,-1
 64 256 l 1,19,-1
 128 256 l 1,20,-1
 192 256 l 1,21,-1
 256 256 l 1,22,-1
 256 320 l 1,23,-1
 256 384 l 1,24,-1
 320 384 l 1,25,-1
 320 320 l 1,26,-1
 320 256 l 1,27,-1
 320 192 l 1,28,-1
 320 128 l 1,29,-1
 320 64 l 1,30,-1
 320 0 l 1,31,-1
 256 0 l 1,0,-1
128 512 m 1,32,-1
 128 576 l 1,33,-1
 192 576 l 1,34,-1
 192 512 l 1,35,-1
 128 512 l 1,32,-1
256 384 m 1,36,-1
 192 384 l 1,37,-1
 128 384 l 1,38,-1
 64 384 l 1,39,-1
 64 448 l 1,40,-1
 128 448 l 1,41,-1
 192 448 l 1,42,-1
 256 448 l 1,43,-1
 256 384 l 1,36,-1
192 576 m 1,44,-1
 192 640 l 1,45,-1
 256 640 l 1,46,-1
 256 576 l 1,47,-1
 192 576 l 1,44,-1
EndSplineSet
Validated: 5
EndChar

StartChar: Acircumflex
Encoding: 194 194 152
Width: 384
GlyphClass: 2
Flags: W
LayerCount: 2
Fore
SplineSet
256 0 m 1,0,-1
 256 64 l 1,1,-1
 256 128 l 1,2,-1
 256 192 l 1,3,-1
 192 192 l 1,4,-1
 128 192 l 1,5,-1
 64 192 l 1,6,-1
 64 128 l 1,7,-1
 64 64 l 1,8,-1
 64 0 l 1,9,-1
 0 0 l 1,10,-1
 0 64 l 1,11,-1
 0 128 l 1,12,-1
 0 192 l 1,13,-1
 0 256 l 1,14,-1
 0 320 l 1,15,-1
 0 384 l 1,16,-1
 64 384 l 1,17,-1
 64 320 l 1,18,-1
 64 256 l 1,19,-1
 128 256 l 1,20,-1
 192 256 l 1,21,-1
 256 256 l 1,22,-1
 256 320 l 1,23,-1
 256 384 l 1,24,-1
 320 384 l 1,25,-1
 320 320 l 1,26,-1
 320 256 l 1,27,-1
 320 192 l 1,28,-1
 320 128 l 1,29,-1
 320 64 l 1,30,-1
 320 0 l 1,31,-1
 256 0 l 1,0,-1
192 512 m 5,32,-1
 192 576 l 5,33,-1
 256 576 l 5,34,-1
 256 512 l 5,35,-1
 192 512 l 5,32,-1
64 512 m 5,36,-1
 64 576 l 5,37,-1
 128 576 l 5,38,-1
 128 512 l 5,39,-1
 64 512 l 5,36,-1
256 384 m 1,40,-1
 192 384 l 1,41,-1
 128 384 l 1,42,-1
 64 384 l 1,43,-1
 64 448 l 1,44,-1
 128 448 l 1,45,-1
 192 448 l 1,46,-1
 256 448 l 1,47,-1
 256 384 l 1,40,-1
192 576 m 5,48,-1
 128 576 l 5,49,-1
 128 640 l 5,50,-1
 192 640 l 5,51,-1
 192 576 l 5,48,-1
EndSplineSet
Validated: 5
EndChar

StartChar: Atilde
Encoding: 195 195 153
Width: 384
GlyphClass: 2
Flags: W
LayerCount: 2
Fore
SplineSet
256 0 m 1,0,-1
 256 64 l 1,1,-1
 256 128 l 1,2,-1
 256 192 l 1,3,-1
 192 192 l 1,4,-1
 128 192 l 1,5,-1
 64 192 l 1,6,-1
 64 128 l 1,7,-1
 64 64 l 1,8,-1
 64 0 l 1,9,-1
 0 0 l 1,10,-1
 0 64 l 1,11,-1
 0 128 l 1,12,-1
 0 192 l 1,13,-1
 0 256 l 1,14,-1
 0 320 l 1,15,-1
 0 384 l 1,16,-1
 64 384 l 1,17,-1
 64 320 l 1,18,-1
 64 256 l 1,19,-1
 128 256 l 1,20,-1
 192 256 l 1,21,-1
 256 256 l 1,22,-1
 256 320 l 1,23,-1
 256 384 l 1,24,-1
 320 384 l 1,25,-1
 320 320 l 1,26,-1
 320 256 l 1,27,-1
 320 192 l 1,28,-1
 320 128 l 1,29,-1
 320 64 l 1,30,-1
 320 0 l 1,31,-1
 256 0 l 1,0,-1
192 512 m 1,32,-1
 192 576 l 1,33,-1
 256 576 l 1,34,-1
 256 512 l 1,35,-1
 192 512 l 1,32,-1
64 512 m 1,36,-1
 64 576 l 1,37,-1
 128 576 l 1,38,-1
 128 512 l 1,39,-1
 64 512 l 1,36,-1
256 384 m 1,40,-1
 192 384 l 1,41,-1
 128 384 l 1,42,-1
 64 384 l 1,43,-1
 64 448 l 1,44,-1
 128 448 l 1,45,-1
 192 448 l 1,46,-1
 256 448 l 1,47,-1
 256 384 l 1,40,-1
256 576 m 1,48,-1
 256 640 l 1,49,-1
 320 640 l 1,50,-1
 320 576 l 1,51,-1
 256 576 l 1,48,-1
192 576 m 1,52,-1
 128 576 l 1,53,-1
 128 640 l 1,54,-1
 192 640 l 1,55,-1
 192 576 l 1,52,-1
EndSplineSet
Validated: 5
EndChar

StartChar: Adieresis
Encoding: 196 196 154
Width: 384
GlyphClass: 2
Flags: W
LayerCount: 2
Fore
SplineSet
256 0 m 1,0,-1
 256 64 l 1,1,-1
 256 128 l 1,2,-1
 256 192 l 1,3,-1
 192 192 l 1,4,-1
 128 192 l 1,5,-1
 64 192 l 1,6,-1
 64 128 l 1,7,-1
 64 64 l 1,8,-1
 64 0 l 1,9,-1
 0 0 l 1,10,-1
 0 64 l 1,11,-1
 0 128 l 1,12,-1
 0 192 l 1,13,-1
 0 256 l 1,14,-1
 0 320 l 1,15,-1
 0 384 l 1,16,-1
 64 384 l 1,17,-1
 64 320 l 1,18,-1
 64 256 l 1,19,-1
 128 256 l 1,20,-1
 192 256 l 1,21,-1
 256 256 l 1,22,-1
 256 320 l 1,23,-1
 256 384 l 1,24,-1
 320 384 l 1,25,-1
 320 320 l 1,26,-1
 320 256 l 1,27,-1
 320 192 l 1,28,-1
 320 128 l 1,29,-1
 320 64 l 1,30,-1
 320 0 l 1,31,-1
 256 0 l 1,0,-1
192 512 m 1,32,-1
 192 576 l 1,33,-1
 256 576 l 1,34,-1
 256 512 l 1,35,-1
 192 512 l 1,32,-1
64 512 m 1,36,-1
 64 576 l 1,37,-1
 128 576 l 1,38,-1
 128 512 l 1,39,-1
 64 512 l 1,36,-1
256 384 m 1,40,-1
 192 384 l 1,41,-1
 128 384 l 1,42,-1
 64 384 l 1,43,-1
 64 448 l 1,44,-1
 128 448 l 1,45,-1
 192 448 l 1,46,-1
 256 448 l 1,47,-1
 256 384 l 1,40,-1
EndSplineSet
Validated: 5
EndChar

StartChar: Aring
Encoding: 197 197 155
Width: 384
GlyphClass: 2
Flags: W
LayerCount: 2
Fore
SplineSet
256 0 m 1,0,-1
 256 64 l 1,1,-1
 256 128 l 1,2,-1
 256 192 l 1,3,-1
 192 192 l 1,4,-1
 128 192 l 1,5,-1
 64 192 l 1,6,-1
 64 128 l 1,7,-1
 64 64 l 1,8,-1
 64 0 l 1,9,-1
 0 0 l 1,10,-1
 0 64 l 1,11,-1
 0 128 l 1,12,-1
 0 192 l 1,13,-1
 0 256 l 1,14,-1
 0 320 l 1,15,-1
 0 384 l 1,16,-1
 64 384 l 1,17,-1
 64 320 l 1,18,-1
 64 256 l 1,19,-1
 128 256 l 1,20,-1
 192 256 l 1,21,-1
 256 256 l 1,22,-1
 256 320 l 1,23,-1
 256 384 l 1,24,-1
 320 384 l 1,25,-1
 320 320 l 1,26,-1
 320 256 l 1,27,-1
 320 192 l 1,28,-1
 320 128 l 1,29,-1
 320 64 l 1,30,-1
 320 0 l 1,31,-1
 256 0 l 1,0,-1
256 384 m 1,32,-1
 192 384 l 1,33,-1
 128 384 l 1,34,-1
 64 384 l 1,35,-1
 64 448 l 1,36,-1
 64 512 l 1,37,-1
 128 512 l 1,38,-1
 128 448 l 1,39,-1
 192 448 l 1,40,-1
 192 512 l 1,41,-1
 256 512 l 1,42,-1
 256 448 l 1,43,-1
 256 384 l 1,32,-1
192 512 m 1,44,-1
 128 512 l 1,45,-1
 128 576 l 1,46,-1
 192 576 l 1,47,-1
 192 512 l 1,44,-1
EndSplineSet
Validated: 5
EndChar

StartChar: AE
Encoding: 198 198 156
Width: 640
GlyphClass: 2
Flags: W
LayerCount: 2
Fore
SplineSet
0 0 m 1,0,-1
 0 64 l 1,1,-1
 0 128 l 1,2,-1
 0 192 l 1,3,-1
 0 256 l 1,4,-1
 0 320 l 1,5,-1
 0 384 l 1,6,-1
 64 384 l 1,7,-1
 64 448 l 1,8,-1
 128 448 l 1,9,-1
 192 448 l 1,10,-1
 256 448 l 1,11,-1
 320 448 l 1,12,-1
 384 448 l 1,13,-1
 448 448 l 1,14,-1
 512 448 l 1,15,-1
 576 448 l 1,16,-1
 576 384 l 1,17,-1
 512 384 l 1,18,-1
 448 384 l 1,19,-1
 384 384 l 1,20,-1
 320 384 l 1,21,-1
 320 320 l 1,22,-1
 320 256 l 1,23,-1
 384 256 l 1,24,-1
 448 256 l 1,25,-1
 512 256 l 1,26,-1
 512 192 l 1,27,-1
 448 192 l 1,28,-1
 384 192 l 1,29,-1
 320 192 l 1,30,-1
 320 128 l 1,31,-1
 320 64 l 1,32,-1
 384 64 l 1,33,-1
 448 64 l 1,34,-1
 512 64 l 1,35,-1
 576 64 l 1,36,-1
 576 0 l 1,37,-1
 512 0 l 1,38,-1
 448 0 l 1,39,-1
 384 0 l 1,40,-1
 320 0 l 1,41,-1
 256 0 l 1,42,-1
 256 64 l 1,43,-1
 256 128 l 1,44,-1
 256 192 l 1,45,-1
 192 192 l 1,46,-1
 128 192 l 1,47,-1
 64 192 l 1,48,-1
 64 128 l 1,49,-1
 64 64 l 1,50,-1
 64 0 l 1,51,-1
 0 0 l 1,0,-1
192 256 m 1,52,-1
 256 256 l 1,53,-1
 256 320 l 1,54,-1
 256 384 l 1,55,-1
 192 384 l 1,56,-1
 128 384 l 1,57,-1
 64 384 l 1,58,-1
 64 320 l 1,59,-1
 64 256 l 1,60,-1
 128 256 l 1,61,-1
 192 256 l 1,52,-1
EndSplineSet
Validated: 5
EndChar

StartChar: Ccedilla
Encoding: 199 199 157
Width: 384
GlyphClass: 2
Flags: W
LayerCount: 2
Fore
SplineSet
64 -128 m 1,0,-1
 64 -64 l 1,1,-1
 128 -64 l 1,2,-1
 128 -128 l 1,3,-1
 64 -128 l 1,0,-1
256 320 m 1,4,-1
 256 384 l 1,5,-1
 320 384 l 1,6,-1
 320 320 l 1,7,-1
 256 320 l 1,4,-1
128 -64 m 1,8,-1
 128 0 l 1,9,-1
 64 0 l 1,10,-1
 64 64 l 1,11,-1
 128 64 l 1,12,-1
 192 64 l 1,13,-1
 256 64 l 1,14,-1
 256 0 l 1,15,-1
 192 0 l 1,16,-1
 192 -64 l 1,17,-1
 128 -64 l 1,8,-1
256 64 m 1,18,-1
 256 128 l 1,19,-1
 320 128 l 1,20,-1
 320 64 l 1,21,-1
 256 64 l 1,18,-1
64 64 m 1,22,-1
 0 64 l 1,23,-1
 0 128 l 1,24,-1
 0 192 l 1,25,-1
 0 256 l 1,26,-1
 0 320 l 1,27,-1
 0 384 l 1,28,-1
 64 384 l 1,29,-1
 64 320 l 1,30,-1
 64 256 l 1,31,-1
 64 192 l 1,32,-1
 64 128 l 1,33,-1
 64 64 l 1,22,-1
256 384 m 1,34,-1
 192 384 l 1,35,-1
 128 384 l 1,36,-1
 64 384 l 1,37,-1
 64 448 l 1,38,-1
 128 448 l 1,39,-1
 192 448 l 1,40,-1
 256 448 l 1,41,-1
 256 384 l 1,34,-1
EndSplineSet
Validated: 5
EndChar

StartChar: Egrave
Encoding: 200 200 158
Width: 384
GlyphClass: 2
Flags: W
LayerCount: 2
Fore
SplineSet
128 512 m 1,0,-1
 128 576 l 1,1,-1
 192 576 l 1,2,-1
 192 512 l 1,3,-1
 128 512 l 1,0,-1
256 64 m 1,4,-1
 320 64 l 1,5,-1
 320 0 l 1,6,-1
 256 0 l 1,7,-1
 192 0 l 1,8,-1
 128 0 l 1,9,-1
 64 0 l 1,10,-1
 0 0 l 1,11,-1
 0 64 l 1,12,-1
 0 128 l 1,13,-1
 0 192 l 1,14,-1
 0 256 l 1,15,-1
 0 320 l 1,16,-1
 0 384 l 1,17,-1
 0 448 l 1,18,-1
 64 448 l 1,19,-1
 128 448 l 1,20,-1
 192 448 l 1,21,-1
 256 448 l 1,22,-1
 320 448 l 1,23,-1
 320 384 l 1,24,-1
 256 384 l 1,25,-1
 192 384 l 1,26,-1
 128 384 l 1,27,-1
 64 384 l 1,28,-1
 64 320 l 1,29,-1
 64 256 l 1,30,-1
 128 256 l 1,31,-1
 192 256 l 1,32,-1
 256 256 l 1,33,-1
 256 192 l 1,34,-1
 192 192 l 1,35,-1
 128 192 l 1,36,-1
 64 192 l 1,37,-1
 64 128 l 1,38,-1
 64 64 l 1,39,-1
 128 64 l 1,40,-1
 192 64 l 1,41,-1
 256 64 l 1,4,-1
128 576 m 1,42,-1
 64 576 l 1,43,-1
 64 640 l 1,44,-1
 128 640 l 1,45,-1
 128 576 l 1,42,-1
EndSplineSet
Validated: 5
EndChar

StartChar: Eacute
Encoding: 201 201 159
Width: 384
GlyphClass: 2
Flags: W
LayerCount: 2
Fore
SplineSet
128 512 m 1,0,-1
 128 576 l 1,1,-1
 192 576 l 1,2,-1
 192 512 l 1,3,-1
 128 512 l 1,0,-1
256 64 m 1,4,-1
 320 64 l 1,5,-1
 320 0 l 1,6,-1
 256 0 l 1,7,-1
 192 0 l 1,8,-1
 128 0 l 1,9,-1
 64 0 l 1,10,-1
 0 0 l 1,11,-1
 0 64 l 1,12,-1
 0 128 l 1,13,-1
 0 192 l 1,14,-1
 0 256 l 1,15,-1
 0 320 l 1,16,-1
 0 384 l 1,17,-1
 0 448 l 1,18,-1
 64 448 l 1,19,-1
 128 448 l 1,20,-1
 192 448 l 1,21,-1
 256 448 l 1,22,-1
 320 448 l 1,23,-1
 320 384 l 1,24,-1
 256 384 l 1,25,-1
 192 384 l 1,26,-1
 128 384 l 1,27,-1
 64 384 l 1,28,-1
 64 320 l 1,29,-1
 64 256 l 1,30,-1
 128 256 l 1,31,-1
 192 256 l 1,32,-1
 256 256 l 1,33,-1
 256 192 l 1,34,-1
 192 192 l 1,35,-1
 128 192 l 1,36,-1
 64 192 l 1,37,-1
 64 128 l 1,38,-1
 64 64 l 1,39,-1
 128 64 l 1,40,-1
 192 64 l 1,41,-1
 256 64 l 1,4,-1
192 576 m 1,42,-1
 192 640 l 1,43,-1
 256 640 l 1,44,-1
 256 576 l 1,45,-1
 192 576 l 1,42,-1
EndSplineSet
Validated: 5
EndChar

StartChar: Ecircumflex
Encoding: 202 202 160
Width: 384
GlyphClass: 2
Flags: W
LayerCount: 2
Fore
SplineSet
192 512 m 1,0,-1
 192 576 l 1,1,-1
 256 576 l 1,2,-1
 256 512 l 1,3,-1
 192 512 l 1,0,-1
64 512 m 1,4,-1
 64 576 l 1,5,-1
 128 576 l 1,6,-1
 128 512 l 1,7,-1
 64 512 l 1,4,-1
256 64 m 1,8,-1
 320 64 l 1,9,-1
 320 0 l 1,10,-1
 256 0 l 1,11,-1
 192 0 l 1,12,-1
 128 0 l 1,13,-1
 64 0 l 1,14,-1
 0 0 l 1,15,-1
 0 64 l 1,16,-1
 0 128 l 1,17,-1
 0 192 l 1,18,-1
 0 256 l 1,19,-1
 0 320 l 1,20,-1
 0 384 l 1,21,-1
 0 448 l 1,22,-1
 64 448 l 1,23,-1
 128 448 l 1,24,-1
 192 448 l 1,25,-1
 256 448 l 1,26,-1
 320 448 l 1,27,-1
 320 384 l 1,28,-1
 256 384 l 1,29,-1
 192 384 l 1,30,-1
 128 384 l 1,31,-1
 64 384 l 1,32,-1
 64 320 l 1,33,-1
 64 256 l 1,34,-1
 128 256 l 1,35,-1
 192 256 l 1,36,-1
 256 256 l 1,37,-1
 256 192 l 1,38,-1
 192 192 l 1,39,-1
 128 192 l 1,40,-1
 64 192 l 1,41,-1
 64 128 l 1,42,-1
 64 64 l 1,43,-1
 128 64 l 1,44,-1
 192 64 l 1,45,-1
 256 64 l 1,8,-1
192 576 m 1,46,-1
 128 576 l 1,47,-1
 128 640 l 1,48,-1
 192 640 l 1,49,-1
 192 576 l 1,46,-1
EndSplineSet
Validated: 5
EndChar

StartChar: Edieresis
Encoding: 203 203 161
Width: 384
GlyphClass: 2
Flags: W
LayerCount: 2
Fore
SplineSet
192 512 m 1,0,-1
 192 576 l 1,1,-1
 256 576 l 1,2,-1
 256 512 l 1,3,-1
 192 512 l 1,0,-1
64 512 m 1,4,-1
 64 576 l 1,5,-1
 128 576 l 1,6,-1
 128 512 l 1,7,-1
 64 512 l 1,4,-1
256 64 m 1,8,-1
 320 64 l 1,9,-1
 320 0 l 1,10,-1
 256 0 l 1,11,-1
 192 0 l 1,12,-1
 128 0 l 1,13,-1
 64 0 l 1,14,-1
 0 0 l 1,15,-1
 0 64 l 1,16,-1
 0 128 l 1,17,-1
 0 192 l 1,18,-1
 0 256 l 1,19,-1
 0 320 l 1,20,-1
 0 384 l 1,21,-1
 0 448 l 1,22,-1
 64 448 l 1,23,-1
 128 448 l 1,24,-1
 192 448 l 1,25,-1
 256 448 l 1,26,-1
 320 448 l 1,27,-1
 320 384 l 1,28,-1
 256 384 l 1,29,-1
 192 384 l 1,30,-1
 128 384 l 1,31,-1
 64 384 l 1,32,-1
 64 320 l 1,33,-1
 64 256 l 1,34,-1
 128 256 l 1,35,-1
 192 256 l 1,36,-1
 256 256 l 1,37,-1
 256 192 l 1,38,-1
 192 192 l 1,39,-1
 128 192 l 1,40,-1
 64 192 l 1,41,-1
 64 128 l 1,42,-1
 64 64 l 1,43,-1
 128 64 l 1,44,-1
 192 64 l 1,45,-1
 256 64 l 1,8,-1
EndSplineSet
Validated: 1
EndChar

StartChar: Igrave
Encoding: 204 204 162
Width: 256
GlyphClass: 2
Flags: W
LayerCount: 2
Fore
SplineSet
64 512 m 1,0,-1
 64 576 l 1,1,-1
 128 576 l 1,2,-1
 128 512 l 1,3,-1
 64 512 l 1,0,-1
128 0 m 1,4,-1
 64 0 l 1,5,-1
 0 0 l 1,6,-1
 0 64 l 1,7,-1
 64 64 l 1,8,-1
 64 128 l 1,9,-1
 64 192 l 1,10,-1
 64 256 l 1,11,-1
 64 320 l 1,12,-1
 64 384 l 1,13,-1
 0 384 l 1,14,-1
 0 448 l 1,15,-1
 64 448 l 1,16,-1
 128 448 l 1,17,-1
 192 448 l 1,18,-1
 192 384 l 1,19,-1
 128 384 l 1,20,-1
 128 320 l 1,21,-1
 128 256 l 1,22,-1
 128 192 l 1,23,-1
 128 128 l 1,24,-1
 128 64 l 1,25,-1
 192 64 l 1,26,-1
 192 0 l 1,27,-1
 128 0 l 1,4,-1
64 576 m 1,28,-1
 0 576 l 1,29,-1
 0 640 l 1,30,-1
 64 640 l 1,31,-1
 64 576 l 1,28,-1
EndSplineSet
Validated: 5
EndChar

StartChar: Iacute
Encoding: 205 205 163
Width: 256
GlyphClass: 2
Flags: W
LayerCount: 2
Fore
SplineSet
64 512 m 1,0,-1
 64 576 l 1,1,-1
 128 576 l 1,2,-1
 128 512 l 1,3,-1
 64 512 l 1,0,-1
128 0 m 1,4,-1
 64 0 l 1,5,-1
 0 0 l 1,6,-1
 0 64 l 1,7,-1
 64 64 l 1,8,-1
 64 128 l 1,9,-1
 64 192 l 1,10,-1
 64 256 l 1,11,-1
 64 320 l 1,12,-1
 64 384 l 1,13,-1
 0 384 l 1,14,-1
 0 448 l 1,15,-1
 64 448 l 1,16,-1
 128 448 l 1,17,-1
 192 448 l 1,18,-1
 192 384 l 1,19,-1
 128 384 l 1,20,-1
 128 320 l 1,21,-1
 128 256 l 1,22,-1
 128 192 l 1,23,-1
 128 128 l 1,24,-1
 128 64 l 1,25,-1
 192 64 l 1,26,-1
 192 0 l 1,27,-1
 128 0 l 1,4,-1
128 576 m 1,28,-1
 128 640 l 1,29,-1
 192 640 l 1,30,-1
 192 576 l 1,31,-1
 128 576 l 1,28,-1
EndSplineSet
Validated: 5
EndChar

StartChar: Icircumflex
Encoding: 206 206 164
Width: 256
GlyphClass: 2
Flags: W
LayerCount: 2
Fore
SplineSet
128 512 m 1,0,-1
 128 576 l 1,1,-1
 192 576 l 1,2,-1
 192 512 l 1,3,-1
 128 512 l 1,0,-1
0 512 m 1,4,-1
 0 576 l 1,5,-1
 64 576 l 1,6,-1
 64 512 l 1,7,-1
 0 512 l 1,4,-1
128 0 m 1,8,-1
 64 0 l 1,9,-1
 0 0 l 1,10,-1
 0 64 l 1,11,-1
 64 64 l 1,12,-1
 64 128 l 1,13,-1
 64 192 l 1,14,-1
 64 256 l 1,15,-1
 64 320 l 1,16,-1
 64 384 l 1,17,-1
 0 384 l 1,18,-1
 0 448 l 1,19,-1
 64 448 l 1,20,-1
 128 448 l 1,21,-1
 192 448 l 1,22,-1
 192 384 l 1,23,-1
 128 384 l 1,24,-1
 128 320 l 1,25,-1
 128 256 l 1,26,-1
 128 192 l 1,27,-1
 128 128 l 1,28,-1
 128 64 l 1,29,-1
 192 64 l 1,30,-1
 192 0 l 1,31,-1
 128 0 l 1,8,-1
128 576 m 1,32,-1
 64 576 l 1,33,-1
 64 640 l 1,34,-1
 128 640 l 1,35,-1
 128 576 l 1,32,-1
EndSplineSet
Validated: 5
EndChar

StartChar: Idieresis
Encoding: 207 207 165
Width: 256
GlyphClass: 2
Flags: W
LayerCount: 2
Fore
SplineSet
128 512 m 1,0,-1
 128 576 l 1,1,-1
 192 576 l 1,2,-1
 192 512 l 1,3,-1
 128 512 l 1,0,-1
0 512 m 1,4,-1
 0 576 l 1,5,-1
 64 576 l 1,6,-1
 64 512 l 1,7,-1
 0 512 l 1,4,-1
128 0 m 1,8,-1
 64 0 l 1,9,-1
 0 0 l 1,10,-1
 0 64 l 1,11,-1
 64 64 l 1,12,-1
 64 128 l 1,13,-1
 64 192 l 1,14,-1
 64 256 l 1,15,-1
 64 320 l 1,16,-1
 64 384 l 1,17,-1
 0 384 l 1,18,-1
 0 448 l 1,19,-1
 64 448 l 1,20,-1
 128 448 l 1,21,-1
 192 448 l 1,22,-1
 192 384 l 1,23,-1
 128 384 l 1,24,-1
 128 320 l 1,25,-1
 128 256 l 1,26,-1
 128 192 l 1,27,-1
 128 128 l 1,28,-1
 128 64 l 1,29,-1
 192 64 l 1,30,-1
 192 0 l 1,31,-1
 128 0 l 1,8,-1
EndSplineSet
Validated: 1
EndChar

StartChar: Eth
Encoding: 208 208 166
Width: 384
GlyphClass: 2
Flags: W
LayerCount: 2
Fore
SplineSet
192 64 m 1,0,-1
 256 64 l 1,1,-1
 256 128 l 1,2,-1
 256 192 l 1,3,-1
 256 256 l 1,4,-1
 256 320 l 1,5,-1
 256 384 l 1,6,-1
 192 384 l 1,7,-1
 128 384 l 1,8,-1
 64 384 l 1,9,-1
 64 320 l 1,10,-1
 64 256 l 1,11,-1
 128 256 l 1,12,-1
 128 192 l 1,13,-1
 64 192 l 1,14,-1
 64 128 l 1,15,-1
 64 64 l 1,16,-1
 128 64 l 1,17,-1
 192 64 l 1,0,-1
192 0 m 1,18,-1
 128 0 l 1,19,-1
 64 0 l 1,20,-1
 0 0 l 1,21,-1
 0 64 l 1,22,-1
 0 128 l 1,23,-1
 0 192 l 1,24,-1
 -64 192 l 1,25,-1
 -64 256 l 1,26,-1
 0 256 l 1,27,-1
 0 320 l 1,28,-1
 0 384 l 1,29,-1
 0 448 l 1,30,-1
 64 448 l 1,31,-1
 128 448 l 1,32,-1
 192 448 l 1,33,-1
 256 448 l 1,34,-1
 256 384 l 1,35,-1
 320 384 l 1,36,-1
 320 320 l 1,37,-1
 320 256 l 1,38,-1
 320 192 l 1,39,-1
 320 128 l 1,40,-1
 320 64 l 1,41,-1
 256 64 l 1,42,-1
 256 0 l 1,43,-1
 192 0 l 1,18,-1
EndSplineSet
Validated: 5
EndChar

StartChar: Ntilde
Encoding: 209 209 167
Width: 448
GlyphClass: 2
Flags: W
LayerCount: 2
Fore
SplineSet
320 0 m 1,0,-1
 320 64 l 1,1,-1
 320 128 l 1,2,-1
 256 128 l 1,3,-1
 256 192 l 1,4,-1
 320 192 l 1,5,-1
 320 256 l 1,6,-1
 320 320 l 1,7,-1
 320 384 l 1,8,-1
 320 448 l 1,9,-1
 384 448 l 1,10,-1
 384 384 l 1,11,-1
 384 320 l 1,12,-1
 384 256 l 1,13,-1
 384 192 l 1,14,-1
 384 128 l 1,15,-1
 384 64 l 1,16,-1
 384 0 l 1,17,-1
 320 0 l 1,0,-1
0 0 m 1,18,-1
 0 64 l 1,19,-1
 0 128 l 1,20,-1
 0 192 l 1,21,-1
 0 256 l 1,22,-1
 0 320 l 1,23,-1
 0 384 l 1,24,-1
 0 448 l 1,25,-1
 64 448 l 1,26,-1
 64 384 l 1,27,-1
 128 384 l 1,28,-1
 128 320 l 1,29,-1
 192 320 l 1,30,-1
 192 256 l 1,31,-1
 256 256 l 1,32,-1
 256 192 l 1,33,-1
 192 192 l 1,34,-1
 192 256 l 1,35,-1
 128 256 l 1,36,-1
 128 320 l 1,37,-1
 64 320 l 1,38,-1
 64 256 l 1,39,-1
 64 192 l 1,40,-1
 64 128 l 1,41,-1
 64 64 l 1,42,-1
 64 0 l 1,43,-1
 0 0 l 1,18,-1
192 512 m 1,44,-1
 192 576 l 1,45,-1
 256 576 l 1,46,-1
 256 512 l 1,47,-1
 192 512 l 1,44,-1
64 512 m 1,48,-1
 64 576 l 1,49,-1
 128 576 l 1,50,-1
 128 512 l 1,51,-1
 64 512 l 1,48,-1
256 576 m 1,52,-1
 256 640 l 1,53,-1
 320 640 l 1,54,-1
 320 576 l 1,55,-1
 256 576 l 1,52,-1
192 576 m 1,56,-1
 128 576 l 1,57,-1
 128 640 l 1,58,-1
 192 640 l 1,59,-1
 192 576 l 1,56,-1
EndSplineSet
Validated: 5
EndChar

StartChar: Ograve
Encoding: 210 210 168
Width: 384
GlyphClass: 2
Flags: W
LayerCount: 2
Fore
SplineSet
128 512 m 1,0,-1
 128 576 l 1,1,-1
 192 576 l 1,2,-1
 192 512 l 1,3,-1
 128 512 l 1,0,-1
192 64 m 1,4,-1
 256 64 l 1,5,-1
 256 0 l 1,6,-1
 192 0 l 1,7,-1
 128 0 l 1,8,-1
 64 0 l 1,9,-1
 64 64 l 1,10,-1
 128 64 l 1,11,-1
 192 64 l 1,4,-1
256 64 m 1,12,-1
 256 128 l 1,13,-1
 256 192 l 1,14,-1
 256 256 l 1,15,-1
 256 320 l 1,16,-1
 256 384 l 1,17,-1
 320 384 l 1,18,-1
 320 320 l 1,19,-1
 320 256 l 1,20,-1
 320 192 l 1,21,-1
 320 128 l 1,22,-1
 320 64 l 1,23,-1
 256 64 l 1,12,-1
64 64 m 1,24,-1
 0 64 l 1,25,-1
 0 128 l 1,26,-1
 0 192 l 1,27,-1
 0 256 l 1,28,-1
 0 320 l 1,29,-1
 0 384 l 1,30,-1
 64 384 l 1,31,-1
 64 320 l 1,32,-1
 64 256 l 1,33,-1
 64 192 l 1,34,-1
 64 128 l 1,35,-1
 64 64 l 1,24,-1
256 384 m 1,36,-1
 192 384 l 1,37,-1
 128 384 l 1,38,-1
 64 384 l 1,39,-1
 64 448 l 1,40,-1
 128 448 l 1,41,-1
 192 448 l 1,42,-1
 256 448 l 1,43,-1
 256 384 l 1,36,-1
128 576 m 1,44,-1
 64 576 l 1,45,-1
 64 640 l 1,46,-1
 128 640 l 1,47,-1
 128 576 l 1,44,-1
EndSplineSet
Validated: 5
EndChar

StartChar: Oacute
Encoding: 211 211 169
Width: 384
GlyphClass: 2
Flags: W
LayerCount: 2
Fore
SplineSet
128 512 m 1,0,-1
 128 576 l 1,1,-1
 192 576 l 1,2,-1
 192 512 l 1,3,-1
 128 512 l 1,0,-1
192 64 m 1,4,-1
 256 64 l 1,5,-1
 256 0 l 1,6,-1
 192 0 l 1,7,-1
 128 0 l 1,8,-1
 64 0 l 1,9,-1
 64 64 l 1,10,-1
 128 64 l 1,11,-1
 192 64 l 1,4,-1
256 64 m 1,12,-1
 256 128 l 1,13,-1
 256 192 l 1,14,-1
 256 256 l 1,15,-1
 256 320 l 1,16,-1
 256 384 l 1,17,-1
 320 384 l 1,18,-1
 320 320 l 1,19,-1
 320 256 l 1,20,-1
 320 192 l 1,21,-1
 320 128 l 1,22,-1
 320 64 l 1,23,-1
 256 64 l 1,12,-1
64 64 m 1,24,-1
 0 64 l 1,25,-1
 0 128 l 1,26,-1
 0 192 l 1,27,-1
 0 256 l 1,28,-1
 0 320 l 1,29,-1
 0 384 l 1,30,-1
 64 384 l 1,31,-1
 64 320 l 1,32,-1
 64 256 l 1,33,-1
 64 192 l 1,34,-1
 64 128 l 1,35,-1
 64 64 l 1,24,-1
256 384 m 1,36,-1
 192 384 l 1,37,-1
 128 384 l 1,38,-1
 64 384 l 1,39,-1
 64 448 l 1,40,-1
 128 448 l 1,41,-1
 192 448 l 1,42,-1
 256 448 l 1,43,-1
 256 384 l 1,36,-1
192 576 m 1,44,-1
 192 640 l 1,45,-1
 256 640 l 1,46,-1
 256 576 l 1,47,-1
 192 576 l 1,44,-1
EndSplineSet
Validated: 5
EndChar

StartChar: Ocircumflex
Encoding: 212 212 170
Width: 384
GlyphClass: 2
Flags: W
LayerCount: 2
Fore
SplineSet
192 512 m 1,0,-1
 192 576 l 1,1,-1
 256 576 l 1,2,-1
 256 512 l 1,3,-1
 192 512 l 1,0,-1
64 512 m 1,4,-1
 64 576 l 1,5,-1
 128 576 l 1,6,-1
 128 512 l 1,7,-1
 64 512 l 1,4,-1
192 64 m 1,8,-1
 256 64 l 1,9,-1
 256 0 l 1,10,-1
 192 0 l 1,11,-1
 128 0 l 1,12,-1
 64 0 l 1,13,-1
 64 64 l 1,14,-1
 128 64 l 1,15,-1
 192 64 l 1,8,-1
256 64 m 1,16,-1
 256 128 l 1,17,-1
 256 192 l 1,18,-1
 256 256 l 1,19,-1
 256 320 l 1,20,-1
 256 384 l 1,21,-1
 320 384 l 1,22,-1
 320 320 l 1,23,-1
 320 256 l 1,24,-1
 320 192 l 1,25,-1
 320 128 l 1,26,-1
 320 64 l 1,27,-1
 256 64 l 1,16,-1
64 64 m 1,28,-1
 0 64 l 1,29,-1
 0 128 l 1,30,-1
 0 192 l 1,31,-1
 0 256 l 1,32,-1
 0 320 l 1,33,-1
 0 384 l 1,34,-1
 64 384 l 1,35,-1
 64 320 l 1,36,-1
 64 256 l 1,37,-1
 64 192 l 1,38,-1
 64 128 l 1,39,-1
 64 64 l 1,28,-1
256 384 m 1,40,-1
 192 384 l 1,41,-1
 128 384 l 1,42,-1
 64 384 l 1,43,-1
 64 448 l 1,44,-1
 128 448 l 1,45,-1
 192 448 l 1,46,-1
 256 448 l 1,47,-1
 256 384 l 1,40,-1
192 576 m 1,48,-1
 128 576 l 1,49,-1
 128 640 l 1,50,-1
 192 640 l 1,51,-1
 192 576 l 1,48,-1
EndSplineSet
Validated: 5
EndChar

StartChar: Otilde
Encoding: 213 213 171
Width: 384
GlyphClass: 2
Flags: W
LayerCount: 2
Fore
SplineSet
192 512 m 1,0,-1
 192 576 l 1,1,-1
 256 576 l 1,2,-1
 256 512 l 1,3,-1
 192 512 l 1,0,-1
64 512 m 1,4,-1
 64 576 l 1,5,-1
 128 576 l 1,6,-1
 128 512 l 1,7,-1
 64 512 l 1,4,-1
192 64 m 1,8,-1
 256 64 l 1,9,-1
 256 0 l 1,10,-1
 192 0 l 1,11,-1
 128 0 l 1,12,-1
 64 0 l 1,13,-1
 64 64 l 1,14,-1
 128 64 l 1,15,-1
 192 64 l 1,8,-1
256 64 m 1,16,-1
 256 128 l 1,17,-1
 256 192 l 1,18,-1
 256 256 l 1,19,-1
 256 320 l 1,20,-1
 256 384 l 1,21,-1
 320 384 l 1,22,-1
 320 320 l 1,23,-1
 320 256 l 1,24,-1
 320 192 l 1,25,-1
 320 128 l 1,26,-1
 320 64 l 1,27,-1
 256 64 l 1,16,-1
64 64 m 1,28,-1
 0 64 l 1,29,-1
 0 128 l 1,30,-1
 0 192 l 1,31,-1
 0 256 l 1,32,-1
 0 320 l 1,33,-1
 0 384 l 1,34,-1
 64 384 l 1,35,-1
 64 320 l 1,36,-1
 64 256 l 1,37,-1
 64 192 l 1,38,-1
 64 128 l 1,39,-1
 64 64 l 1,28,-1
256 384 m 1,40,-1
 192 384 l 1,41,-1
 128 384 l 1,42,-1
 64 384 l 1,43,-1
 64 448 l 1,44,-1
 128 448 l 1,45,-1
 192 448 l 1,46,-1
 256 448 l 1,47,-1
 256 384 l 1,40,-1
256 576 m 1,48,-1
 256 640 l 1,49,-1
 320 640 l 1,50,-1
 320 576 l 1,51,-1
 256 576 l 1,48,-1
192 576 m 1,52,-1
 128 576 l 1,53,-1
 128 640 l 1,54,-1
 192 640 l 1,55,-1
 192 576 l 1,52,-1
EndSplineSet
Validated: 5
EndChar

StartChar: Odieresis
Encoding: 214 214 172
Width: 384
GlyphClass: 2
Flags: W
LayerCount: 2
Fore
SplineSet
192 512 m 1,0,-1
 192 576 l 1,1,-1
 256 576 l 1,2,-1
 256 512 l 1,3,-1
 192 512 l 1,0,-1
64 512 m 1,4,-1
 64 576 l 1,5,-1
 128 576 l 1,6,-1
 128 512 l 1,7,-1
 64 512 l 1,4,-1
192 64 m 1,8,-1
 256 64 l 1,9,-1
 256 0 l 1,10,-1
 192 0 l 1,11,-1
 128 0 l 1,12,-1
 64 0 l 1,13,-1
 64 64 l 1,14,-1
 128 64 l 1,15,-1
 192 64 l 1,8,-1
256 64 m 1,16,-1
 256 128 l 1,17,-1
 256 192 l 1,18,-1
 256 256 l 1,19,-1
 256 320 l 1,20,-1
 256 384 l 1,21,-1
 320 384 l 1,22,-1
 320 320 l 1,23,-1
 320 256 l 1,24,-1
 320 192 l 1,25,-1
 320 128 l 1,26,-1
 320 64 l 1,27,-1
 256 64 l 1,16,-1
64 64 m 1,28,-1
 0 64 l 1,29,-1
 0 128 l 1,30,-1
 0 192 l 1,31,-1
 0 256 l 1,32,-1
 0 320 l 1,33,-1
 0 384 l 1,34,-1
 64 384 l 1,35,-1
 64 320 l 1,36,-1
 64 256 l 1,37,-1
 64 192 l 1,38,-1
 64 128 l 1,39,-1
 64 64 l 1,28,-1
256 384 m 1,40,-1
 192 384 l 1,41,-1
 128 384 l 1,42,-1
 64 384 l 1,43,-1
 64 448 l 1,44,-1
 128 448 l 1,45,-1
 192 448 l 1,46,-1
 256 448 l 1,47,-1
 256 384 l 1,40,-1
EndSplineSet
Validated: 5
EndChar

StartChar: multiply
Encoding: 215 215 173
Width: 384
GlyphClass: 2
Flags: W
LayerCount: 2
Fore
SplineSet
256 64 m 1,0,-1
 256 128 l 1,1,-1
 320 128 l 1,2,-1
 320 64 l 1,3,-1
 256 64 l 1,0,-1
0 64 m 1,4,-1
 0 128 l 1,5,-1
 64 128 l 1,6,-1
 64 64 l 1,7,-1
 0 64 l 1,4,-1
256 128 m 1,8,-1
 192 128 l 1,9,-1
 192 192 l 1,10,-1
 256 192 l 1,11,-1
 256 128 l 1,8,-1
64 128 m 1,12,-1
 64 192 l 1,13,-1
 128 192 l 1,14,-1
 128 128 l 1,15,-1
 64 128 l 1,12,-1
192 192 m 1,16,-1
 128 192 l 1,17,-1
 128 256 l 1,18,-1
 192 256 l 1,19,-1
 192 192 l 1,16,-1
192 256 m 1,20,-1
 192 320 l 1,21,-1
 256 320 l 1,22,-1
 256 256 l 1,23,-1
 192 256 l 1,20,-1
128 256 m 1,24,-1
 64 256 l 1,25,-1
 64 320 l 1,26,-1
 128 320 l 1,27,-1
 128 256 l 1,24,-1
256 320 m 1,28,-1
 256 384 l 1,29,-1
 320 384 l 1,30,-1
 320 320 l 1,31,-1
 256 320 l 1,28,-1
64 320 m 1,32,-1
 0 320 l 1,33,-1
 0 384 l 1,34,-1
 64 384 l 1,35,-1
 64 320 l 1,32,-1
EndSplineSet
Validated: 5
EndChar

StartChar: Oslash
Encoding: 216 216 174
Width: 384
GlyphClass: 2
Flags: W
LayerCount: 2
Fore
SplineSet
192 64 m 1,0,-1
 256 64 l 1,1,-1
 256 0 l 1,2,-1
 192 0 l 1,3,-1
 128 0 l 1,4,-1
 64 0 l 1,5,-1
 0 0 l 1,6,-1
 0 64 l 1,7,-1
 0 128 l 1,8,-1
 0 192 l 1,9,-1
 0 256 l 1,10,-1
 0 320 l 1,11,-1
 0 384 l 1,12,-1
 64 384 l 1,13,-1
 64 320 l 1,14,-1
 64 256 l 1,15,-1
 64 192 l 1,16,-1
 64 128 l 1,17,-1
 128 128 l 1,18,-1
 128 64 l 1,19,-1
 192 64 l 1,0,-1
256 64 m 1,20,-1
 256 128 l 1,21,-1
 256 192 l 1,22,-1
 256 256 l 1,23,-1
 256 320 l 1,24,-1
 192 320 l 1,25,-1
 192 256 l 1,26,-1
 192 192 l 1,27,-1
 192 128 l 1,28,-1
 128 128 l 1,29,-1
 128 192 l 1,30,-1
 128 256 l 1,31,-1
 128 320 l 1,32,-1
 192 320 l 1,33,-1
 192 384 l 1,34,-1
 128 384 l 1,35,-1
 64 384 l 1,36,-1
 64 448 l 1,37,-1
 128 448 l 1,38,-1
 192 448 l 1,39,-1
 256 448 l 1,40,-1
 320 448 l 1,41,-1
 320 384 l 1,42,-1
 320 320 l 1,43,-1
 320 256 l 1,44,-1
 320 192 l 1,45,-1
 320 128 l 1,46,-1
 320 64 l 1,47,-1
 256 64 l 1,20,-1
EndSplineSet
Validated: 5
EndChar

StartChar: Ugrave
Encoding: 217 217 175
Width: 384
GlyphClass: 2
Flags: W
LayerCount: 2
Fore
SplineSet
128 512 m 1,0,-1
 128 576 l 1,1,-1
 192 576 l 1,2,-1
 192 512 l 1,3,-1
 128 512 l 1,0,-1
192 64 m 1,4,-1
 256 64 l 1,5,-1
 256 0 l 1,6,-1
 192 0 l 1,7,-1
 128 0 l 1,8,-1
 64 0 l 1,9,-1
 64 64 l 1,10,-1
 128 64 l 1,11,-1
 192 64 l 1,4,-1
256 64 m 1,12,-1
 256 128 l 1,13,-1
 256 192 l 1,14,-1
 256 256 l 1,15,-1
 256 320 l 1,16,-1
 256 384 l 1,17,-1
 256 448 l 1,18,-1
 320 448 l 1,19,-1
 320 384 l 1,20,-1
 320 320 l 1,21,-1
 320 256 l 1,22,-1
 320 192 l 1,23,-1
 320 128 l 1,24,-1
 320 64 l 1,25,-1
 256 64 l 1,12,-1
64 64 m 1,26,-1
 0 64 l 1,27,-1
 0 128 l 1,28,-1
 0 192 l 1,29,-1
 0 256 l 1,30,-1
 0 320 l 1,31,-1
 0 384 l 1,32,-1
 0 448 l 1,33,-1
 64 448 l 1,34,-1
 64 384 l 1,35,-1
 64 320 l 1,36,-1
 64 256 l 1,37,-1
 64 192 l 1,38,-1
 64 128 l 1,39,-1
 64 64 l 1,26,-1
128 576 m 1,40,-1
 64 576 l 1,41,-1
 64 640 l 1,42,-1
 128 640 l 1,43,-1
 128 576 l 1,40,-1
EndSplineSet
Validated: 5
EndChar

StartChar: Uacute
Encoding: 218 218 176
Width: 384
GlyphClass: 2
Flags: W
LayerCount: 2
Fore
SplineSet
128 512 m 1,0,-1
 128 576 l 1,1,-1
 192 576 l 1,2,-1
 192 512 l 1,3,-1
 128 512 l 1,0,-1
192 64 m 1,4,-1
 256 64 l 1,5,-1
 256 0 l 1,6,-1
 192 0 l 1,7,-1
 128 0 l 1,8,-1
 64 0 l 1,9,-1
 64 64 l 1,10,-1
 128 64 l 1,11,-1
 192 64 l 1,4,-1
256 64 m 1,12,-1
 256 128 l 1,13,-1
 256 192 l 1,14,-1
 256 256 l 1,15,-1
 256 320 l 1,16,-1
 256 384 l 1,17,-1
 256 448 l 1,18,-1
 320 448 l 1,19,-1
 320 384 l 1,20,-1
 320 320 l 1,21,-1
 320 256 l 1,22,-1
 320 192 l 1,23,-1
 320 128 l 1,24,-1
 320 64 l 1,25,-1
 256 64 l 1,12,-1
64 64 m 1,26,-1
 0 64 l 1,27,-1
 0 128 l 1,28,-1
 0 192 l 1,29,-1
 0 256 l 1,30,-1
 0 320 l 1,31,-1
 0 384 l 1,32,-1
 0 448 l 1,33,-1
 64 448 l 1,34,-1
 64 384 l 1,35,-1
 64 320 l 1,36,-1
 64 256 l 1,37,-1
 64 192 l 1,38,-1
 64 128 l 1,39,-1
 64 64 l 1,26,-1
192 576 m 1,40,-1
 192 640 l 1,41,-1
 256 640 l 1,42,-1
 256 576 l 1,43,-1
 192 576 l 1,40,-1
EndSplineSet
Validated: 5
EndChar

StartChar: Ucircumflex
Encoding: 219 219 177
Width: 384
GlyphClass: 2
Flags: W
LayerCount: 2
Fore
SplineSet
192 512 m 1,0,-1
 192 576 l 1,1,-1
 256 576 l 1,2,-1
 256 512 l 1,3,-1
 192 512 l 1,0,-1
64 512 m 1,4,-1
 64 576 l 1,5,-1
 128 576 l 1,6,-1
 128 512 l 1,7,-1
 64 512 l 1,4,-1
192 64 m 1,8,-1
 256 64 l 1,9,-1
 256 0 l 1,10,-1
 192 0 l 1,11,-1
 128 0 l 1,12,-1
 64 0 l 1,13,-1
 64 64 l 1,14,-1
 128 64 l 1,15,-1
 192 64 l 1,8,-1
256 64 m 1,16,-1
 256 128 l 1,17,-1
 256 192 l 1,18,-1
 256 256 l 1,19,-1
 256 320 l 1,20,-1
 256 384 l 1,21,-1
 256 448 l 1,22,-1
 320 448 l 1,23,-1
 320 384 l 1,24,-1
 320 320 l 1,25,-1
 320 256 l 1,26,-1
 320 192 l 1,27,-1
 320 128 l 1,28,-1
 320 64 l 1,29,-1
 256 64 l 1,16,-1
64 64 m 1,30,-1
 0 64 l 1,31,-1
 0 128 l 1,32,-1
 0 192 l 1,33,-1
 0 256 l 1,34,-1
 0 320 l 1,35,-1
 0 384 l 1,36,-1
 0 448 l 1,37,-1
 64 448 l 1,38,-1
 64 384 l 1,39,-1
 64 320 l 1,40,-1
 64 256 l 1,41,-1
 64 192 l 1,42,-1
 64 128 l 1,43,-1
 64 64 l 1,30,-1
192 576 m 1,44,-1
 128 576 l 1,45,-1
 128 640 l 1,46,-1
 192 640 l 1,47,-1
 192 576 l 1,44,-1
EndSplineSet
Validated: 5
EndChar

StartChar: Udieresis
Encoding: 220 220 178
Width: 384
GlyphClass: 2
Flags: W
LayerCount: 2
Fore
SplineSet
192 512 m 1,0,-1
 192 576 l 1,1,-1
 256 576 l 1,2,-1
 256 512 l 1,3,-1
 192 512 l 1,0,-1
64 512 m 1,4,-1
 64 576 l 1,5,-1
 128 576 l 1,6,-1
 128 512 l 1,7,-1
 64 512 l 1,4,-1
192 64 m 1,8,-1
 256 64 l 1,9,-1
 256 0 l 1,10,-1
 192 0 l 1,11,-1
 128 0 l 1,12,-1
 64 0 l 1,13,-1
 64 64 l 1,14,-1
 128 64 l 1,15,-1
 192 64 l 1,8,-1
256 64 m 1,16,-1
 256 128 l 1,17,-1
 256 192 l 1,18,-1
 256 256 l 1,19,-1
 256 320 l 1,20,-1
 256 384 l 1,21,-1
 256 448 l 1,22,-1
 320 448 l 1,23,-1
 320 384 l 1,24,-1
 320 320 l 1,25,-1
 320 256 l 1,26,-1
 320 192 l 1,27,-1
 320 128 l 1,28,-1
 320 64 l 1,29,-1
 256 64 l 1,16,-1
64 64 m 1,30,-1
 0 64 l 1,31,-1
 0 128 l 1,32,-1
 0 192 l 1,33,-1
 0 256 l 1,34,-1
 0 320 l 1,35,-1
 0 384 l 1,36,-1
 0 448 l 1,37,-1
 64 448 l 1,38,-1
 64 384 l 1,39,-1
 64 320 l 1,40,-1
 64 256 l 1,41,-1
 64 192 l 1,42,-1
 64 128 l 1,43,-1
 64 64 l 1,30,-1
EndSplineSet
Validated: 5
EndChar

StartChar: Yacute
Encoding: 221 221 179
Width: 384
GlyphClass: 2
Flags: W
LayerCount: 2
Fore
SplineSet
128 0 m 1,0,-1
 128 64 l 1,1,-1
 128 128 l 1,2,-1
 128 192 l 1,3,-1
 192 192 l 1,4,-1
 192 128 l 1,5,-1
 192 64 l 1,6,-1
 192 0 l 1,7,-1
 128 0 l 1,0,-1
128 512 m 1,8,-1
 128 576 l 1,9,-1
 192 576 l 1,10,-1
 192 512 l 1,11,-1
 128 512 l 1,8,-1
192 192 m 1,12,-1
 192 256 l 1,13,-1
 256 256 l 1,14,-1
 256 192 l 1,15,-1
 192 192 l 1,12,-1
128 192 m 1,16,-1
 64 192 l 1,17,-1
 64 256 l 1,18,-1
 128 256 l 1,19,-1
 128 192 l 1,16,-1
256 256 m 1,20,-1
 256 320 l 1,21,-1
 256 384 l 1,22,-1
 256 448 l 1,23,-1
 320 448 l 1,24,-1
 320 384 l 1,25,-1
 320 320 l 1,26,-1
 320 256 l 1,27,-1
 256 256 l 1,20,-1
64 256 m 1,28,-1
 0 256 l 1,29,-1
 0 320 l 1,30,-1
 0 384 l 1,31,-1
 0 448 l 1,32,-1
 64 448 l 1,33,-1
 64 384 l 1,34,-1
 64 320 l 1,35,-1
 64 256 l 1,28,-1
192 576 m 1,36,-1
 192 640 l 1,37,-1
 256 640 l 1,38,-1
 256 576 l 1,39,-1
 192 576 l 1,36,-1
EndSplineSet
Validated: 5
EndChar

StartChar: Thorn
Encoding: 222 222 180
Width: 384
GlyphClass: 2
Flags: W
LayerCount: 2
Fore
SplineSet
0 0 m 1,0,-1
 0 64 l 1,1,-1
 0 128 l 1,2,-1
 0 192 l 1,3,-1
 0 256 l 1,4,-1
 0 320 l 1,5,-1
 0 384 l 1,6,-1
 0 448 l 1,7,-1
 64 448 l 1,8,-1
 64 384 l 1,9,-1
 128 384 l 1,10,-1
 192 384 l 1,11,-1
 256 384 l 1,12,-1
 256 320 l 1,13,-1
 320 320 l 1,14,-1
 320 256 l 1,15,-1
 320 192 l 1,16,-1
 320 128 l 1,17,-1
 256 128 l 1,18,-1
 256 192 l 1,19,-1
 256 256 l 1,20,-1
 256 320 l 1,21,-1
 192 320 l 1,22,-1
 128 320 l 1,23,-1
 64 320 l 1,24,-1
 64 256 l 1,25,-1
 64 192 l 1,26,-1
 64 128 l 1,27,-1
 128 128 l 1,28,-1
 192 128 l 1,29,-1
 256 128 l 1,30,-1
 256 64 l 1,31,-1
 192 64 l 1,32,-1
 128 64 l 1,33,-1
 64 64 l 1,34,-1
 64 0 l 1,35,-1
 0 0 l 1,0,-1
EndSplineSet
Validated: 5
EndChar

StartChar: germandbls
Encoding: 223 223 181
Width: 384
GlyphClass: 2
Flags: W
LayerCount: 2
Fore
SplineSet
0 0 m 1,0,-1
 0 64 l 1,1,-1
 0 128 l 1,2,-1
 0 192 l 1,3,-1
 0 256 l 1,4,-1
 0 320 l 1,5,-1
 0 384 l 1,6,-1
 64 384 l 1,7,-1
 64 320 l 1,8,-1
 64 256 l 1,9,-1
 64 192 l 1,10,-1
 64 128 l 1,11,-1
 128 128 l 1,12,-1
 128 64 l 1,13,-1
 192 64 l 1,14,-1
 256 64 l 1,15,-1
 256 0 l 1,16,-1
 192 0 l 1,17,-1
 128 0 l 1,18,-1
 128 64 l 1,19,-1
 64 64 l 1,20,-1
 64 0 l 1,21,-1
 0 0 l 1,0,-1
256 64 m 1,22,-1
 256 128 l 1,23,-1
 256 192 l 1,24,-1
 320 192 l 1,25,-1
 320 128 l 1,26,-1
 320 64 l 1,27,-1
 256 64 l 1,22,-1
256 192 m 1,28,-1
 192 192 l 1,29,-1
 128 192 l 1,30,-1
 128 256 l 1,31,-1
 192 256 l 1,32,-1
 256 256 l 1,33,-1
 256 192 l 1,28,-1
256 256 m 1,34,-1
 256 320 l 1,35,-1
 256 384 l 1,36,-1
 320 384 l 1,37,-1
 320 320 l 1,38,-1
 320 256 l 1,39,-1
 256 256 l 1,34,-1
256 384 m 1,40,-1
 192 384 l 1,41,-1
 128 384 l 1,42,-1
 64 384 l 1,43,-1
 64 448 l 1,44,-1
 128 448 l 1,45,-1
 192 448 l 1,46,-1
 256 448 l 1,47,-1
 256 384 l 1,40,-1
EndSplineSet
Validated: 5
EndChar

StartChar: agrave
Encoding: 224 224 182
Width: 448
GlyphClass: 2
Flags: W
LayerCount: 2
Fore
SplineSet
320 0 m 1,0,-1
 320 64 l 1,1,-1
 384 64 l 1,2,-1
 384 0 l 1,3,-1
 320 0 l 1,0,-1
128 384 m 1,4,-1
 128 448 l 1,5,-1
 192 448 l 1,6,-1
 192 384 l 1,7,-1
 128 384 l 1,4,-1
192 64 m 1,8,-1
 256 64 l 1,9,-1
 256 0 l 1,10,-1
 192 0 l 1,11,-1
 128 0 l 1,12,-1
 64 0 l 1,13,-1
 64 64 l 1,14,-1
 128 64 l 1,15,-1
 192 64 l 1,8,-1
320 64 m 1,16,-1
 256 64 l 1,17,-1
 256 128 l 1,18,-1
 192 128 l 1,19,-1
 128 128 l 1,20,-1
 64 128 l 1,21,-1
 64 64 l 1,22,-1
 0 64 l 1,23,-1
 0 128 l 1,24,-1
 64 128 l 1,25,-1
 64 192 l 1,26,-1
 128 192 l 1,27,-1
 192 192 l 1,28,-1
 256 192 l 1,29,-1
 256 256 l 1,30,-1
 320 256 l 1,31,-1
 320 192 l 1,32,-1
 320 128 l 1,33,-1
 320 64 l 1,16,-1
256 256 m 1,34,-1
 192 256 l 1,35,-1
 128 256 l 1,36,-1
 64 256 l 1,37,-1
 64 320 l 1,38,-1
 128 320 l 1,39,-1
 192 320 l 1,40,-1
 256 320 l 1,41,-1
 256 256 l 1,34,-1
128 448 m 1,42,-1
 64 448 l 1,43,-1
 64 512 l 1,44,-1
 128 512 l 1,45,-1
 128 448 l 1,42,-1
EndSplineSet
Validated: 5
EndChar

StartChar: aacute
Encoding: 225 225 183
Width: 448
GlyphClass: 2
Flags: W
LayerCount: 2
Fore
SplineSet
320 0 m 1,0,-1
 320 64 l 1,1,-1
 384 64 l 1,2,-1
 384 0 l 1,3,-1
 320 0 l 1,0,-1
128 384 m 1,4,-1
 128 448 l 1,5,-1
 192 448 l 1,6,-1
 192 384 l 1,7,-1
 128 384 l 1,4,-1
192 64 m 1,8,-1
 256 64 l 1,9,-1
 256 0 l 1,10,-1
 192 0 l 1,11,-1
 128 0 l 1,12,-1
 64 0 l 1,13,-1
 64 64 l 1,14,-1
 128 64 l 1,15,-1
 192 64 l 1,8,-1
320 64 m 1,16,-1
 256 64 l 1,17,-1
 256 128 l 1,18,-1
 192 128 l 1,19,-1
 128 128 l 1,20,-1
 64 128 l 1,21,-1
 64 64 l 1,22,-1
 0 64 l 1,23,-1
 0 128 l 1,24,-1
 64 128 l 1,25,-1
 64 192 l 1,26,-1
 128 192 l 1,27,-1
 192 192 l 1,28,-1
 256 192 l 1,29,-1
 256 256 l 1,30,-1
 320 256 l 1,31,-1
 320 192 l 1,32,-1
 320 128 l 1,33,-1
 320 64 l 1,16,-1
256 256 m 1,34,-1
 192 256 l 1,35,-1
 128 256 l 1,36,-1
 64 256 l 1,37,-1
 64 320 l 1,38,-1
 128 320 l 1,39,-1
 192 320 l 1,40,-1
 256 320 l 1,41,-1
 256 256 l 1,34,-1
192 448 m 1,42,-1
 192 512 l 1,43,-1
 256 512 l 1,44,-1
 256 448 l 1,45,-1
 192 448 l 1,42,-1
EndSplineSet
Validated: 5
EndChar

StartChar: acircumflex
Encoding: 226 226 184
Width: 448
GlyphClass: 2
Flags: W
LayerCount: 2
Fore
SplineSet
320 0 m 1,0,-1
 320 64 l 1,1,-1
 384 64 l 1,2,-1
 384 0 l 1,3,-1
 320 0 l 1,0,-1
192 384 m 5,4,-1
 192 448 l 5,5,-1
 256 448 l 5,6,-1
 256 384 l 5,7,-1
 192 384 l 5,4,-1
64 384 m 5,8,-1
 64 448 l 5,9,-1
 128 448 l 5,10,-1
 128 384 l 5,11,-1
 64 384 l 5,8,-1
192 64 m 1,12,-1
 256 64 l 1,13,-1
 256 0 l 1,14,-1
 192 0 l 1,15,-1
 128 0 l 1,16,-1
 64 0 l 1,17,-1
 64 64 l 1,18,-1
 128 64 l 1,19,-1
 192 64 l 1,12,-1
320 64 m 1,20,-1
 256 64 l 1,21,-1
 256 128 l 1,22,-1
 192 128 l 1,23,-1
 128 128 l 1,24,-1
 64 128 l 1,25,-1
 64 64 l 1,26,-1
 0 64 l 1,27,-1
 0 128 l 1,28,-1
 64 128 l 1,29,-1
 64 192 l 1,30,-1
 128 192 l 1,31,-1
 192 192 l 1,32,-1
 256 192 l 1,33,-1
 256 256 l 1,34,-1
 320 256 l 1,35,-1
 320 192 l 1,36,-1
 320 128 l 1,37,-1
 320 64 l 1,20,-1
256 256 m 1,38,-1
 192 256 l 1,39,-1
 128 256 l 1,40,-1
 64 256 l 1,41,-1
 64 320 l 1,42,-1
 128 320 l 1,43,-1
 192 320 l 1,44,-1
 256 320 l 1,45,-1
 256 256 l 1,38,-1
192 448 m 5,46,-1
 128 448 l 5,47,-1
 128 512 l 5,48,-1
 192 512 l 5,49,-1
 192 448 l 5,46,-1
EndSplineSet
Validated: 5
EndChar

StartChar: atilde
Encoding: 227 227 185
Width: 448
GlyphClass: 2
Flags: W
LayerCount: 2
Fore
SplineSet
320 0 m 1,0,-1
 320 64 l 1,1,-1
 384 64 l 1,2,-1
 384 0 l 1,3,-1
 320 0 l 1,0,-1
192 384 m 1,4,-1
 192 448 l 1,5,-1
 256 448 l 1,6,-1
 256 384 l 1,7,-1
 192 384 l 1,4,-1
64 384 m 1,8,-1
 64 448 l 1,9,-1
 128 448 l 1,10,-1
 128 384 l 1,11,-1
 64 384 l 1,8,-1
192 64 m 1,12,-1
 256 64 l 1,13,-1
 256 0 l 1,14,-1
 192 0 l 1,15,-1
 128 0 l 1,16,-1
 64 0 l 1,17,-1
 64 64 l 1,18,-1
 128 64 l 1,19,-1
 192 64 l 1,12,-1
320 64 m 1,20,-1
 256 64 l 1,21,-1
 256 128 l 1,22,-1
 192 128 l 1,23,-1
 128 128 l 1,24,-1
 64 128 l 1,25,-1
 64 64 l 1,26,-1
 0 64 l 1,27,-1
 0 128 l 1,28,-1
 64 128 l 1,29,-1
 64 192 l 1,30,-1
 128 192 l 1,31,-1
 192 192 l 1,32,-1
 256 192 l 1,33,-1
 256 256 l 1,34,-1
 320 256 l 1,35,-1
 320 192 l 1,36,-1
 320 128 l 1,37,-1
 320 64 l 1,20,-1
256 256 m 1,38,-1
 192 256 l 1,39,-1
 128 256 l 1,40,-1
 64 256 l 1,41,-1
 64 320 l 1,42,-1
 128 320 l 1,43,-1
 192 320 l 1,44,-1
 256 320 l 1,45,-1
 256 256 l 1,38,-1
256 448 m 1,46,-1
 256 512 l 1,47,-1
 320 512 l 1,48,-1
 320 448 l 1,49,-1
 256 448 l 1,46,-1
192 448 m 1,50,-1
 128 448 l 1,51,-1
 128 512 l 1,52,-1
 192 512 l 1,53,-1
 192 448 l 1,50,-1
EndSplineSet
Validated: 5
EndChar

StartChar: adieresis
Encoding: 228 228 186
Width: 448
GlyphClass: 2
Flags: W
LayerCount: 2
Fore
SplineSet
320 0 m 1,0,-1
 320 64 l 1,1,-1
 384 64 l 1,2,-1
 384 0 l 1,3,-1
 320 0 l 1,0,-1
192 384 m 1,4,-1
 192 448 l 1,5,-1
 256 448 l 1,6,-1
 256 384 l 1,7,-1
 192 384 l 1,4,-1
64 384 m 1,8,-1
 64 448 l 1,9,-1
 128 448 l 1,10,-1
 128 384 l 1,11,-1
 64 384 l 1,8,-1
192 64 m 1,12,-1
 256 64 l 1,13,-1
 256 0 l 1,14,-1
 192 0 l 1,15,-1
 128 0 l 1,16,-1
 64 0 l 1,17,-1
 64 64 l 1,18,-1
 128 64 l 1,19,-1
 192 64 l 1,12,-1
320 64 m 1,20,-1
 256 64 l 1,21,-1
 256 128 l 1,22,-1
 192 128 l 1,23,-1
 128 128 l 1,24,-1
 64 128 l 1,25,-1
 64 64 l 1,26,-1
 0 64 l 1,27,-1
 0 128 l 1,28,-1
 64 128 l 1,29,-1
 64 192 l 1,30,-1
 128 192 l 1,31,-1
 192 192 l 1,32,-1
 256 192 l 1,33,-1
 256 256 l 1,34,-1
 320 256 l 1,35,-1
 320 192 l 1,36,-1
 320 128 l 1,37,-1
 320 64 l 1,20,-1
256 256 m 1,38,-1
 192 256 l 1,39,-1
 128 256 l 1,40,-1
 64 256 l 1,41,-1
 64 320 l 1,42,-1
 128 320 l 1,43,-1
 192 320 l 1,44,-1
 256 320 l 1,45,-1
 256 256 l 1,38,-1
EndSplineSet
Validated: 5
EndChar

StartChar: aring
Encoding: 229 229 187
Width: 448
GlyphClass: 2
Flags: W
LayerCount: 2
Fore
SplineSet
320 0 m 1,0,-1
 320 64 l 1,1,-1
 384 64 l 1,2,-1
 384 0 l 1,3,-1
 320 0 l 1,0,-1
192 64 m 1,4,-1
 256 64 l 1,5,-1
 256 0 l 1,6,-1
 192 0 l 1,7,-1
 128 0 l 1,8,-1
 64 0 l 1,9,-1
 64 64 l 1,10,-1
 128 64 l 1,11,-1
 192 64 l 1,4,-1
320 64 m 1,12,-1
 256 64 l 1,13,-1
 256 128 l 1,14,-1
 192 128 l 1,15,-1
 128 128 l 1,16,-1
 64 128 l 1,17,-1
 64 64 l 1,18,-1
 0 64 l 1,19,-1
 0 128 l 1,20,-1
 64 128 l 1,21,-1
 64 192 l 1,22,-1
 128 192 l 1,23,-1
 192 192 l 1,24,-1
 256 192 l 1,25,-1
 256 256 l 1,26,-1
 320 256 l 1,27,-1
 320 192 l 1,28,-1
 320 128 l 1,29,-1
 320 64 l 1,12,-1
256 256 m 1,30,-1
 192 256 l 1,31,-1
 128 256 l 1,32,-1
 64 256 l 1,33,-1
 64 320 l 1,34,-1
 128 320 l 1,35,-1
 128 384 l 1,36,-1
 192 384 l 1,37,-1
 192 320 l 1,38,-1
 256 320 l 1,39,-1
 256 256 l 1,30,-1
192 384 m 1,40,-1
 192 448 l 1,41,-1
 256 448 l 1,42,-1
 256 384 l 1,43,-1
 192 384 l 1,40,-1
128 384 m 1,44,-1
 64 384 l 1,45,-1
 64 448 l 1,46,-1
 128 448 l 1,47,-1
 128 384 l 1,44,-1
192 448 m 1,48,-1
 128 448 l 1,49,-1
 128 512 l 1,50,-1
 192 512 l 1,51,-1
 192 448 l 1,48,-1
EndSplineSet
Validated: 5
EndChar

StartChar: ae
Encoding: 230 230 188
Width: 640
GlyphClass: 2
Flags: W
LayerCount: 2
Fore
SplineSet
448 64 m 1,0,-1
 512 64 l 1,1,-1
 512 0 l 1,2,-1
 448 0 l 1,3,-1
 384 0 l 1,4,-1
 320 0 l 1,5,-1
 320 64 l 1,6,-1
 384 64 l 1,7,-1
 448 64 l 1,0,-1
192 64 m 1,8,-1
 256 64 l 1,9,-1
 256 0 l 1,10,-1
 192 0 l 1,11,-1
 128 0 l 1,12,-1
 64 0 l 1,13,-1
 64 64 l 1,14,-1
 128 64 l 1,15,-1
 192 64 l 1,8,-1
320 64 m 1,16,-1
 256 64 l 1,17,-1
 256 128 l 1,18,-1
 192 128 l 1,19,-1
 128 128 l 1,20,-1
 64 128 l 1,21,-1
 64 64 l 1,22,-1
 0 64 l 1,23,-1
 0 128 l 1,24,-1
 64 128 l 1,25,-1
 64 192 l 1,26,-1
 128 192 l 1,27,-1
 192 192 l 1,28,-1
 256 192 l 1,29,-1
 256 256 l 1,30,-1
 320 256 l 1,31,-1
 320 192 l 1,32,-1
 384 192 l 1,33,-1
 448 192 l 1,34,-1
 512 192 l 1,35,-1
 512 256 l 1,36,-1
 576 256 l 1,37,-1
 576 192 l 1,38,-1
 576 128 l 1,39,-1
 512 128 l 1,40,-1
 448 128 l 1,41,-1
 384 128 l 1,42,-1
 320 128 l 1,43,-1
 320 64 l 1,16,-1
512 256 m 1,44,-1
 448 256 l 1,45,-1
 384 256 l 1,46,-1
 320 256 l 1,47,-1
 320 320 l 1,48,-1
 384 320 l 1,49,-1
 448 320 l 1,50,-1
 512 320 l 1,51,-1
 512 256 l 1,44,-1
256 256 m 1,52,-1
 192 256 l 1,53,-1
 128 256 l 1,54,-1
 64 256 l 1,55,-1
 64 320 l 1,56,-1
 128 320 l 1,57,-1
 192 320 l 1,58,-1
 256 320 l 1,59,-1
 256 256 l 1,52,-1
EndSplineSet
Validated: 5
EndChar

StartChar: ccedilla
Encoding: 231 231 189
Width: 384
GlyphClass: 2
Flags: W
LayerCount: 2
Fore
SplineSet
64 -128 m 1,0,-1
 64 -64 l 1,1,-1
 128 -64 l 1,2,-1
 128 -128 l 1,3,-1
 64 -128 l 1,0,-1
256 192 m 1,4,-1
 256 256 l 1,5,-1
 320 256 l 1,6,-1
 320 192 l 1,7,-1
 256 192 l 1,4,-1
128 -64 m 1,8,-1
 128 0 l 1,9,-1
 64 0 l 1,10,-1
 64 64 l 1,11,-1
 128 64 l 1,12,-1
 192 64 l 1,13,-1
 256 64 l 1,14,-1
 256 0 l 1,15,-1
 192 0 l 1,16,-1
 192 -64 l 1,17,-1
 128 -64 l 1,8,-1
256 64 m 1,18,-1
 256 128 l 1,19,-1
 320 128 l 1,20,-1
 320 64 l 1,21,-1
 256 64 l 1,18,-1
64 64 m 1,22,-1
 0 64 l 1,23,-1
 0 128 l 1,24,-1
 0 192 l 1,25,-1
 0 256 l 1,26,-1
 64 256 l 1,27,-1
 64 192 l 1,28,-1
 64 128 l 1,29,-1
 64 64 l 1,22,-1
256 256 m 1,30,-1
 192 256 l 1,31,-1
 128 256 l 1,32,-1
 64 256 l 1,33,-1
 64 320 l 1,34,-1
 128 320 l 1,35,-1
 192 320 l 1,36,-1
 256 320 l 1,37,-1
 256 256 l 1,30,-1
EndSplineSet
Validated: 5
EndChar

StartChar: egrave
Encoding: 232 232 190
Width: 384
GlyphClass: 2
Flags: W
LayerCount: 2
Fore
SplineSet
128 384 m 1,0,-1
 128 448 l 1,1,-1
 192 448 l 1,2,-1
 192 384 l 1,3,-1
 128 384 l 1,0,-1
192 64 m 1,4,-1
 256 64 l 1,5,-1
 256 0 l 1,6,-1
 192 0 l 1,7,-1
 128 0 l 1,8,-1
 64 0 l 1,9,-1
 64 64 l 1,10,-1
 128 64 l 1,11,-1
 192 64 l 1,4,-1
64 64 m 1,12,-1
 0 64 l 1,13,-1
 0 128 l 1,14,-1
 0 192 l 1,15,-1
 0 256 l 1,16,-1
 64 256 l 1,17,-1
 64 192 l 1,18,-1
 128 192 l 1,19,-1
 192 192 l 1,20,-1
 256 192 l 1,21,-1
 256 256 l 1,22,-1
 320 256 l 1,23,-1
 320 192 l 1,24,-1
 320 128 l 1,25,-1
 256 128 l 1,26,-1
 192 128 l 1,27,-1
 128 128 l 1,28,-1
 64 128 l 1,29,-1
 64 64 l 1,12,-1
256 256 m 1,30,-1
 192 256 l 1,31,-1
 128 256 l 1,32,-1
 64 256 l 1,33,-1
 64 320 l 1,34,-1
 128 320 l 1,35,-1
 192 320 l 1,36,-1
 256 320 l 1,37,-1
 256 256 l 1,30,-1
128 448 m 1,38,-1
 64 448 l 1,39,-1
 64 512 l 1,40,-1
 128 512 l 1,41,-1
 128 448 l 1,38,-1
EndSplineSet
Validated: 5
EndChar

StartChar: eacute
Encoding: 233 233 191
Width: 384
GlyphClass: 2
Flags: W
LayerCount: 2
Fore
SplineSet
128 384 m 1,0,-1
 128 448 l 1,1,-1
 192 448 l 1,2,-1
 192 384 l 1,3,-1
 128 384 l 1,0,-1
192 64 m 1,4,-1
 256 64 l 1,5,-1
 256 0 l 1,6,-1
 192 0 l 1,7,-1
 128 0 l 1,8,-1
 64 0 l 1,9,-1
 64 64 l 1,10,-1
 128 64 l 1,11,-1
 192 64 l 1,4,-1
64 64 m 1,12,-1
 0 64 l 1,13,-1
 0 128 l 1,14,-1
 0 192 l 1,15,-1
 0 256 l 1,16,-1
 64 256 l 1,17,-1
 64 192 l 1,18,-1
 128 192 l 1,19,-1
 192 192 l 1,20,-1
 256 192 l 1,21,-1
 256 256 l 1,22,-1
 320 256 l 1,23,-1
 320 192 l 1,24,-1
 320 128 l 1,25,-1
 256 128 l 1,26,-1
 192 128 l 1,27,-1
 128 128 l 1,28,-1
 64 128 l 1,29,-1
 64 64 l 1,12,-1
256 256 m 1,30,-1
 192 256 l 1,31,-1
 128 256 l 1,32,-1
 64 256 l 1,33,-1
 64 320 l 1,34,-1
 128 320 l 1,35,-1
 192 320 l 1,36,-1
 256 320 l 1,37,-1
 256 256 l 1,30,-1
192 448 m 1,38,-1
 192 512 l 1,39,-1
 256 512 l 1,40,-1
 256 448 l 1,41,-1
 192 448 l 1,38,-1
EndSplineSet
Validated: 5
EndChar

StartChar: ecircumflex
Encoding: 234 234 192
Width: 384
GlyphClass: 2
Flags: W
LayerCount: 2
Fore
SplineSet
192 384 m 1,0,-1
 192 448 l 1,1,-1
 256 448 l 1,2,-1
 256 384 l 1,3,-1
 192 384 l 1,0,-1
64 384 m 1,4,-1
 64 448 l 1,5,-1
 128 448 l 1,6,-1
 128 384 l 1,7,-1
 64 384 l 1,4,-1
192 64 m 1,8,-1
 256 64 l 1,9,-1
 256 0 l 1,10,-1
 192 0 l 1,11,-1
 128 0 l 1,12,-1
 64 0 l 1,13,-1
 64 64 l 1,14,-1
 128 64 l 1,15,-1
 192 64 l 1,8,-1
64 64 m 1,16,-1
 0 64 l 1,17,-1
 0 128 l 1,18,-1
 0 192 l 1,19,-1
 0 256 l 1,20,-1
 64 256 l 1,21,-1
 64 192 l 1,22,-1
 128 192 l 1,23,-1
 192 192 l 1,24,-1
 256 192 l 1,25,-1
 256 256 l 1,26,-1
 320 256 l 1,27,-1
 320 192 l 1,28,-1
 320 128 l 1,29,-1
 256 128 l 1,30,-1
 192 128 l 1,31,-1
 128 128 l 1,32,-1
 64 128 l 1,33,-1
 64 64 l 1,16,-1
256 256 m 1,34,-1
 192 256 l 1,35,-1
 128 256 l 1,36,-1
 64 256 l 1,37,-1
 64 320 l 1,38,-1
 128 320 l 1,39,-1
 192 320 l 1,40,-1
 256 320 l 1,41,-1
 256 256 l 1,34,-1
192 448 m 1,42,-1
 128 448 l 1,43,-1
 128 512 l 1,44,-1
 192 512 l 1,45,-1
 192 448 l 1,42,-1
EndSplineSet
Validated: 5
EndChar

StartChar: edieresis
Encoding: 235 235 193
Width: 384
GlyphClass: 2
Flags: W
LayerCount: 2
Fore
SplineSet
192 384 m 1,0,-1
 192 448 l 1,1,-1
 256 448 l 1,2,-1
 256 384 l 1,3,-1
 192 384 l 1,0,-1
64 384 m 1,4,-1
 64 448 l 1,5,-1
 128 448 l 1,6,-1
 128 384 l 1,7,-1
 64 384 l 1,4,-1
192 64 m 1,8,-1
 256 64 l 1,9,-1
 256 0 l 1,10,-1
 192 0 l 1,11,-1
 128 0 l 1,12,-1
 64 0 l 1,13,-1
 64 64 l 1,14,-1
 128 64 l 1,15,-1
 192 64 l 1,8,-1
64 64 m 1,16,-1
 0 64 l 1,17,-1
 0 128 l 1,18,-1
 0 192 l 1,19,-1
 0 256 l 1,20,-1
 64 256 l 1,21,-1
 64 192 l 1,22,-1
 128 192 l 1,23,-1
 192 192 l 1,24,-1
 256 192 l 1,25,-1
 256 256 l 1,26,-1
 320 256 l 1,27,-1
 320 192 l 1,28,-1
 320 128 l 1,29,-1
 256 128 l 1,30,-1
 192 128 l 1,31,-1
 128 128 l 1,32,-1
 64 128 l 1,33,-1
 64 64 l 1,16,-1
256 256 m 1,34,-1
 192 256 l 1,35,-1
 128 256 l 1,36,-1
 64 256 l 1,37,-1
 64 320 l 1,38,-1
 128 320 l 1,39,-1
 192 320 l 1,40,-1
 256 320 l 1,41,-1
 256 256 l 1,34,-1
EndSplineSet
Validated: 5
EndChar

StartChar: igrave
Encoding: 236 236 194
Width: 256
GlyphClass: 2
Flags: W
LayerCount: 2
Fore
SplineSet
64 384 m 1,0,-1
 64 448 l 1,1,-1
 128 448 l 1,2,-1
 128 384 l 1,3,-1
 64 384 l 1,0,-1
128 0 m 1,4,-1
 64 0 l 1,5,-1
 0 0 l 1,6,-1
 0 64 l 1,7,-1
 64 64 l 1,8,-1
 64 128 l 1,9,-1
 64 192 l 1,10,-1
 64 256 l 1,11,-1
 0 256 l 1,12,-1
 0 320 l 1,13,-1
 64 320 l 1,14,-1
 128 320 l 1,15,-1
 128 256 l 1,16,-1
 128 192 l 1,17,-1
 128 128 l 1,18,-1
 128 64 l 1,19,-1
 192 64 l 1,20,-1
 192 0 l 1,21,-1
 128 0 l 1,4,-1
64 448 m 1,22,-1
 0 448 l 1,23,-1
 0 512 l 1,24,-1
 64 512 l 1,25,-1
 64 448 l 1,22,-1
EndSplineSet
Validated: 5
EndChar

StartChar: iacute
Encoding: 237 237 195
Width: 256
GlyphClass: 2
Flags: W
LayerCount: 2
Fore
SplineSet
64 384 m 1,0,-1
 64 448 l 1,1,-1
 128 448 l 1,2,-1
 128 384 l 1,3,-1
 64 384 l 1,0,-1
128 0 m 1,4,-1
 64 0 l 1,5,-1
 0 0 l 1,6,-1
 0 64 l 1,7,-1
 64 64 l 1,8,-1
 64 128 l 1,9,-1
 64 192 l 1,10,-1
 64 256 l 1,11,-1
 0 256 l 1,12,-1
 0 320 l 1,13,-1
 64 320 l 1,14,-1
 128 320 l 1,15,-1
 128 256 l 1,16,-1
 128 192 l 1,17,-1
 128 128 l 1,18,-1
 128 64 l 1,19,-1
 192 64 l 1,20,-1
 192 0 l 1,21,-1
 128 0 l 1,4,-1
128 448 m 1,22,-1
 128 512 l 1,23,-1
 192 512 l 1,24,-1
 192 448 l 1,25,-1
 128 448 l 1,22,-1
EndSplineSet
Validated: 5
EndChar

StartChar: icircumflex
Encoding: 238 238 196
Width: 256
GlyphClass: 2
Flags: W
LayerCount: 2
Fore
SplineSet
128 384 m 1,0,-1
 128 448 l 1,1,-1
 192 448 l 1,2,-1
 192 384 l 1,3,-1
 128 384 l 1,0,-1
0 384 m 1,4,-1
 0 448 l 1,5,-1
 64 448 l 1,6,-1
 64 384 l 1,7,-1
 0 384 l 1,4,-1
128 0 m 1,8,-1
 64 0 l 1,9,-1
 0 0 l 1,10,-1
 0 64 l 1,11,-1
 64 64 l 1,12,-1
 64 128 l 1,13,-1
 64 192 l 1,14,-1
 64 256 l 1,15,-1
 0 256 l 1,16,-1
 0 320 l 1,17,-1
 64 320 l 1,18,-1
 128 320 l 1,19,-1
 128 256 l 1,20,-1
 128 192 l 1,21,-1
 128 128 l 1,22,-1
 128 64 l 1,23,-1
 192 64 l 1,24,-1
 192 0 l 1,25,-1
 128 0 l 1,8,-1
128 448 m 1,26,-1
 64 448 l 1,27,-1
 64 512 l 1,28,-1
 128 512 l 1,29,-1
 128 448 l 1,26,-1
EndSplineSet
Validated: 5
EndChar

StartChar: idieresis
Encoding: 239 239 197
Width: 256
GlyphClass: 2
Flags: W
LayerCount: 2
Fore
SplineSet
128 384 m 1,0,-1
 128 448 l 1,1,-1
 192 448 l 1,2,-1
 192 384 l 1,3,-1
 128 384 l 1,0,-1
0 384 m 1,4,-1
 0 448 l 1,5,-1
 64 448 l 1,6,-1
 64 384 l 1,7,-1
 0 384 l 1,4,-1
128 0 m 1,8,-1
 64 0 l 1,9,-1
 0 0 l 1,10,-1
 0 64 l 1,11,-1
 64 64 l 1,12,-1
 64 128 l 1,13,-1
 64 192 l 1,14,-1
 64 256 l 1,15,-1
 0 256 l 1,16,-1
 0 320 l 1,17,-1
 64 320 l 1,18,-1
 128 320 l 1,19,-1
 128 256 l 1,20,-1
 128 192 l 1,21,-1
 128 128 l 1,22,-1
 128 64 l 1,23,-1
 192 64 l 1,24,-1
 192 0 l 1,25,-1
 128 0 l 1,8,-1
EndSplineSet
Validated: 1
EndChar

StartChar: eth
Encoding: 240 240 198
Width: 384
GlyphClass: 2
Flags: W
LayerCount: 2
Fore
SplineSet
192 64 m 1,0,-1
 256 64 l 1,1,-1
 256 0 l 1,2,-1
 192 0 l 1,3,-1
 128 0 l 1,4,-1
 64 0 l 1,5,-1
 64 64 l 1,6,-1
 128 64 l 1,7,-1
 192 64 l 1,0,-1
256 64 m 1,8,-1
 256 128 l 1,9,-1
 256 192 l 1,10,-1
 256 256 l 1,11,-1
 192 256 l 1,12,-1
 128 256 l 1,13,-1
 64 256 l 1,14,-1
 64 192 l 1,15,-1
 64 128 l 1,16,-1
 64 64 l 1,17,-1
 0 64 l 1,18,-1
 0 128 l 1,19,-1
 0 192 l 1,20,-1
 0 256 l 1,21,-1
 64 256 l 1,22,-1
 64 320 l 1,23,-1
 128 320 l 1,24,-1
 128 384 l 1,25,-1
 192 384 l 1,26,-1
 192 320 l 1,27,-1
 256 320 l 1,28,-1
 256 384 l 1,29,-1
 320 384 l 1,30,-1
 320 320 l 1,31,-1
 320 256 l 1,32,-1
 320 192 l 1,33,-1
 320 128 l 1,34,-1
 320 64 l 1,35,-1
 256 64 l 1,8,-1
256 384 m 1,36,-1
 192 384 l 1,37,-1
 192 448 l 1,38,-1
 256 448 l 1,39,-1
 256 384 l 1,36,-1
256 448 m 1,40,-1
 256 512 l 1,41,-1
 320 512 l 1,42,-1
 320 448 l 1,43,-1
 256 448 l 1,40,-1
192 448 m 1,44,-1
 128 448 l 1,45,-1
 128 512 l 1,46,-1
 192 512 l 1,47,-1
 192 448 l 1,44,-1
EndSplineSet
Validated: 5
EndChar

StartChar: ntilde
Encoding: 241 241 199
Width: 384
GlyphClass: 2
Flags: W
LayerCount: 2
Fore
SplineSet
256 0 m 1,0,-1
 256 64 l 1,1,-1
 256 128 l 1,2,-1
 256 192 l 1,3,-1
 256 256 l 1,4,-1
 320 256 l 1,5,-1
 320 192 l 1,6,-1
 320 128 l 1,7,-1
 320 64 l 1,8,-1
 320 0 l 1,9,-1
 256 0 l 1,0,-1
0 0 m 1,10,-1
 0 64 l 1,11,-1
 0 128 l 1,12,-1
 0 192 l 1,13,-1
 0 256 l 1,14,-1
 0 320 l 1,15,-1
 64 320 l 1,16,-1
 64 256 l 1,17,-1
 128 256 l 1,18,-1
 128 192 l 1,19,-1
 64 192 l 1,20,-1
 64 128 l 1,21,-1
 64 64 l 1,22,-1
 64 0 l 1,23,-1
 0 0 l 1,10,-1
192 384 m 1,24,-1
 192 448 l 1,25,-1
 256 448 l 1,26,-1
 256 384 l 1,27,-1
 192 384 l 1,24,-1
64 384 m 1,28,-1
 64 448 l 1,29,-1
 128 448 l 1,30,-1
 128 384 l 1,31,-1
 64 384 l 1,28,-1
256 256 m 1,32,-1
 192 256 l 1,33,-1
 128 256 l 1,34,-1
 128 320 l 1,35,-1
 192 320 l 1,36,-1
 256 320 l 1,37,-1
 256 256 l 1,32,-1
256 448 m 1,38,-1
 256 512 l 1,39,-1
 320 512 l 1,40,-1
 320 448 l 1,41,-1
 256 448 l 1,38,-1
192 448 m 1,42,-1
 128 448 l 1,43,-1
 128 512 l 1,44,-1
 192 512 l 1,45,-1
 192 448 l 1,42,-1
EndSplineSet
Validated: 5
EndChar

StartChar: ograve
Encoding: 242 242 200
Width: 384
GlyphClass: 2
Flags: W
LayerCount: 2
Fore
SplineSet
128 384 m 1,0,-1
 128 448 l 1,1,-1
 192 448 l 1,2,-1
 192 384 l 1,3,-1
 128 384 l 1,0,-1
192 64 m 1,4,-1
 256 64 l 1,5,-1
 256 0 l 1,6,-1
 192 0 l 1,7,-1
 128 0 l 1,8,-1
 64 0 l 1,9,-1
 64 64 l 1,10,-1
 128 64 l 1,11,-1
 192 64 l 1,4,-1
256 64 m 1,12,-1
 256 128 l 1,13,-1
 256 192 l 1,14,-1
 256 256 l 1,15,-1
 320 256 l 1,16,-1
 320 192 l 1,17,-1
 320 128 l 1,18,-1
 320 64 l 1,19,-1
 256 64 l 1,12,-1
64 64 m 1,20,-1
 0 64 l 1,21,-1
 0 128 l 1,22,-1
 0 192 l 1,23,-1
 0 256 l 1,24,-1
 64 256 l 1,25,-1
 64 192 l 1,26,-1
 64 128 l 1,27,-1
 64 64 l 1,20,-1
256 256 m 1,28,-1
 192 256 l 1,29,-1
 128 256 l 1,30,-1
 64 256 l 1,31,-1
 64 320 l 1,32,-1
 128 320 l 1,33,-1
 192 320 l 1,34,-1
 256 320 l 1,35,-1
 256 256 l 1,28,-1
128 448 m 1,36,-1
 64 448 l 1,37,-1
 64 512 l 1,38,-1
 128 512 l 1,39,-1
 128 448 l 1,36,-1
EndSplineSet
Validated: 5
EndChar

StartChar: oacute
Encoding: 243 243 201
Width: 384
GlyphClass: 2
Flags: W
LayerCount: 2
Fore
SplineSet
128 384 m 1,0,-1
 128 448 l 1,1,-1
 192 448 l 1,2,-1
 192 384 l 1,3,-1
 128 384 l 1,0,-1
192 64 m 1,4,-1
 256 64 l 1,5,-1
 256 0 l 1,6,-1
 192 0 l 1,7,-1
 128 0 l 1,8,-1
 64 0 l 1,9,-1
 64 64 l 1,10,-1
 128 64 l 1,11,-1
 192 64 l 1,4,-1
256 64 m 1,12,-1
 256 128 l 1,13,-1
 256 192 l 1,14,-1
 256 256 l 1,15,-1
 320 256 l 1,16,-1
 320 192 l 1,17,-1
 320 128 l 1,18,-1
 320 64 l 1,19,-1
 256 64 l 1,12,-1
64 64 m 1,20,-1
 0 64 l 1,21,-1
 0 128 l 1,22,-1
 0 192 l 1,23,-1
 0 256 l 1,24,-1
 64 256 l 1,25,-1
 64 192 l 1,26,-1
 64 128 l 1,27,-1
 64 64 l 1,20,-1
256 256 m 1,28,-1
 192 256 l 1,29,-1
 128 256 l 1,30,-1
 64 256 l 1,31,-1
 64 320 l 1,32,-1
 128 320 l 1,33,-1
 192 320 l 1,34,-1
 256 320 l 1,35,-1
 256 256 l 1,28,-1
192 448 m 1,36,-1
 192 512 l 1,37,-1
 256 512 l 1,38,-1
 256 448 l 1,39,-1
 192 448 l 1,36,-1
EndSplineSet
Validated: 5
EndChar

StartChar: ocircumflex
Encoding: 244 244 202
Width: 384
GlyphClass: 2
Flags: W
LayerCount: 2
Fore
SplineSet
192 384 m 1,0,-1
 192 448 l 1,1,-1
 256 448 l 1,2,-1
 256 384 l 1,3,-1
 192 384 l 1,0,-1
64 384 m 1,4,-1
 64 448 l 1,5,-1
 128 448 l 1,6,-1
 128 384 l 1,7,-1
 64 384 l 1,4,-1
192 64 m 1,8,-1
 256 64 l 1,9,-1
 256 0 l 1,10,-1
 192 0 l 1,11,-1
 128 0 l 1,12,-1
 64 0 l 1,13,-1
 64 64 l 1,14,-1
 128 64 l 1,15,-1
 192 64 l 1,8,-1
256 64 m 1,16,-1
 256 128 l 1,17,-1
 256 192 l 1,18,-1
 256 256 l 1,19,-1
 320 256 l 1,20,-1
 320 192 l 1,21,-1
 320 128 l 1,22,-1
 320 64 l 1,23,-1
 256 64 l 1,16,-1
64 64 m 1,24,-1
 0 64 l 1,25,-1
 0 128 l 1,26,-1
 0 192 l 1,27,-1
 0 256 l 1,28,-1
 64 256 l 1,29,-1
 64 192 l 1,30,-1
 64 128 l 1,31,-1
 64 64 l 1,24,-1
256 256 m 1,32,-1
 192 256 l 1,33,-1
 128 256 l 1,34,-1
 64 256 l 1,35,-1
 64 320 l 1,36,-1
 128 320 l 1,37,-1
 192 320 l 1,38,-1
 256 320 l 1,39,-1
 256 256 l 1,32,-1
192 448 m 1,40,-1
 128 448 l 1,41,-1
 128 512 l 1,42,-1
 192 512 l 1,43,-1
 192 448 l 1,40,-1
EndSplineSet
Validated: 5
EndChar

StartChar: otilde
Encoding: 245 245 203
Width: 384
GlyphClass: 2
Flags: W
LayerCount: 2
Fore
SplineSet
192 384 m 1,0,-1
 192 448 l 1,1,-1
 256 448 l 1,2,-1
 256 384 l 1,3,-1
 192 384 l 1,0,-1
64 384 m 1,4,-1
 64 448 l 1,5,-1
 128 448 l 1,6,-1
 128 384 l 1,7,-1
 64 384 l 1,4,-1
192 64 m 1,8,-1
 256 64 l 1,9,-1
 256 0 l 1,10,-1
 192 0 l 1,11,-1
 128 0 l 1,12,-1
 64 0 l 1,13,-1
 64 64 l 1,14,-1
 128 64 l 1,15,-1
 192 64 l 1,8,-1
256 64 m 1,16,-1
 256 128 l 1,17,-1
 256 192 l 1,18,-1
 256 256 l 1,19,-1
 320 256 l 1,20,-1
 320 192 l 1,21,-1
 320 128 l 1,22,-1
 320 64 l 1,23,-1
 256 64 l 1,16,-1
64 64 m 1,24,-1
 0 64 l 1,25,-1
 0 128 l 1,26,-1
 0 192 l 1,27,-1
 0 256 l 1,28,-1
 64 256 l 1,29,-1
 64 192 l 1,30,-1
 64 128 l 1,31,-1
 64 64 l 1,24,-1
256 256 m 1,32,-1
 192 256 l 1,33,-1
 128 256 l 1,34,-1
 64 256 l 1,35,-1
 64 320 l 1,36,-1
 128 320 l 1,37,-1
 192 320 l 1,38,-1
 256 320 l 1,39,-1
 256 256 l 1,32,-1
256 448 m 1,40,-1
 256 512 l 1,41,-1
 320 512 l 1,42,-1
 320 448 l 1,43,-1
 256 448 l 1,40,-1
192 448 m 1,44,-1
 128 448 l 1,45,-1
 128 512 l 1,46,-1
 192 512 l 1,47,-1
 192 448 l 1,44,-1
EndSplineSet
Validated: 5
EndChar

StartChar: odieresis
Encoding: 246 246 204
Width: 384
GlyphClass: 2
Flags: W
LayerCount: 2
Fore
SplineSet
192 384 m 1,0,-1
 192 448 l 1,1,-1
 256 448 l 1,2,-1
 256 384 l 1,3,-1
 192 384 l 1,0,-1
64 384 m 1,4,-1
 64 448 l 1,5,-1
 128 448 l 1,6,-1
 128 384 l 1,7,-1
 64 384 l 1,4,-1
192 64 m 1,8,-1
 256 64 l 1,9,-1
 256 0 l 1,10,-1
 192 0 l 1,11,-1
 128 0 l 1,12,-1
 64 0 l 1,13,-1
 64 64 l 1,14,-1
 128 64 l 1,15,-1
 192 64 l 1,8,-1
256 64 m 1,16,-1
 256 128 l 1,17,-1
 256 192 l 1,18,-1
 256 256 l 1,19,-1
 320 256 l 1,20,-1
 320 192 l 1,21,-1
 320 128 l 1,22,-1
 320 64 l 1,23,-1
 256 64 l 1,16,-1
64 64 m 1,24,-1
 0 64 l 1,25,-1
 0 128 l 1,26,-1
 0 192 l 1,27,-1
 0 256 l 1,28,-1
 64 256 l 1,29,-1
 64 192 l 1,30,-1
 64 128 l 1,31,-1
 64 64 l 1,24,-1
256 256 m 1,32,-1
 192 256 l 1,33,-1
 128 256 l 1,34,-1
 64 256 l 1,35,-1
 64 320 l 1,36,-1
 128 320 l 1,37,-1
 192 320 l 1,38,-1
 256 320 l 1,39,-1
 256 256 l 1,32,-1
EndSplineSet
Validated: 5
EndChar

StartChar: divide
Encoding: 247 247 205
Width: 384
GlyphClass: 2
Flags: W
LayerCount: 2
Fore
SplineSet
128 64 m 1,0,-1
 128 128 l 1,1,-1
 192 128 l 1,2,-1
 192 64 l 1,3,-1
 128 64 l 1,0,-1
128 320 m 1,4,-1
 128 384 l 1,5,-1
 192 384 l 1,6,-1
 192 320 l 1,7,-1
 128 320 l 1,4,-1
256 256 m 1,8,-1
 320 256 l 1,9,-1
 320 192 l 1,10,-1
 256 192 l 1,11,-1
 192 192 l 1,12,-1
 128 192 l 1,13,-1
 64 192 l 1,14,-1
 0 192 l 1,15,-1
 0 256 l 1,16,-1
 64 256 l 1,17,-1
 128 256 l 1,18,-1
 192 256 l 1,19,-1
 256 256 l 1,8,-1
EndSplineSet
Validated: 1
EndChar

StartChar: oslash
Encoding: 248 248 206
Width: 384
GlyphClass: 2
Flags: W
LayerCount: 2
Fore
SplineSet
192 64 m 1,0,-1
 256 64 l 1,1,-1
 256 0 l 1,2,-1
 192 0 l 1,3,-1
 128 0 l 1,4,-1
 64 0 l 1,5,-1
 0 0 l 1,6,-1
 0 64 l 1,7,-1
 0 128 l 1,8,-1
 0 192 l 1,9,-1
 0 256 l 1,10,-1
 64 256 l 1,11,-1
 64 192 l 1,12,-1
 64 128 l 1,13,-1
 128 128 l 1,14,-1
 128 64 l 1,15,-1
 192 64 l 1,0,-1
256 64 m 1,16,-1
 256 128 l 1,17,-1
 256 192 l 1,18,-1
 192 192 l 1,19,-1
 192 128 l 1,20,-1
 128 128 l 1,21,-1
 128 192 l 1,22,-1
 192 192 l 1,23,-1
 192 256 l 1,24,-1
 128 256 l 1,25,-1
 64 256 l 1,26,-1
 64 320 l 1,27,-1
 128 320 l 1,28,-1
 192 320 l 1,29,-1
 256 320 l 1,30,-1
 320 320 l 1,31,-1
 320 256 l 1,32,-1
 320 192 l 1,33,-1
 320 128 l 1,34,-1
 320 64 l 1,35,-1
 256 64 l 1,16,-1
EndSplineSet
Validated: 5
EndChar

StartChar: ugrave
Encoding: 249 249 207
Width: 384
GlyphClass: 2
Flags: W
LayerCount: 2
Fore
SplineSet
256 0 m 1,0,-1
 256 64 l 1,1,-1
 192 64 l 1,2,-1
 192 0 l 1,3,-1
 128 0 l 1,4,-1
 64 0 l 1,5,-1
 64 64 l 1,6,-1
 128 64 l 1,7,-1
 192 64 l 1,8,-1
 192 128 l 1,9,-1
 256 128 l 1,10,-1
 256 192 l 1,11,-1
 256 256 l 1,12,-1
 256 320 l 1,13,-1
 320 320 l 1,14,-1
 320 256 l 1,15,-1
 320 192 l 1,16,-1
 320 128 l 1,17,-1
 320 64 l 1,18,-1
 320 0 l 1,19,-1
 256 0 l 1,0,-1
128 384 m 1,20,-1
 128 448 l 1,21,-1
 192 448 l 1,22,-1
 192 384 l 1,23,-1
 128 384 l 1,20,-1
64 64 m 1,24,-1
 0 64 l 1,25,-1
 0 128 l 1,26,-1
 0 192 l 1,27,-1
 0 256 l 1,28,-1
 0 320 l 1,29,-1
 64 320 l 1,30,-1
 64 256 l 1,31,-1
 64 192 l 1,32,-1
 64 128 l 1,33,-1
 64 64 l 1,24,-1
128 448 m 1,34,-1
 64 448 l 1,35,-1
 64 512 l 1,36,-1
 128 512 l 1,37,-1
 128 448 l 1,34,-1
EndSplineSet
Validated: 5
EndChar

StartChar: uacute
Encoding: 250 250 208
Width: 384
GlyphClass: 2
Flags: W
LayerCount: 2
Fore
SplineSet
256 0 m 1,0,-1
 256 64 l 1,1,-1
 192 64 l 1,2,-1
 192 0 l 1,3,-1
 128 0 l 1,4,-1
 64 0 l 1,5,-1
 64 64 l 1,6,-1
 128 64 l 1,7,-1
 192 64 l 1,8,-1
 192 128 l 1,9,-1
 256 128 l 1,10,-1
 256 192 l 1,11,-1
 256 256 l 1,12,-1
 256 320 l 1,13,-1
 320 320 l 1,14,-1
 320 256 l 1,15,-1
 320 192 l 1,16,-1
 320 128 l 1,17,-1
 320 64 l 1,18,-1
 320 0 l 1,19,-1
 256 0 l 1,0,-1
128 384 m 1,20,-1
 128 448 l 1,21,-1
 192 448 l 1,22,-1
 192 384 l 1,23,-1
 128 384 l 1,20,-1
64 64 m 1,24,-1
 0 64 l 1,25,-1
 0 128 l 1,26,-1
 0 192 l 1,27,-1
 0 256 l 1,28,-1
 0 320 l 1,29,-1
 64 320 l 1,30,-1
 64 256 l 1,31,-1
 64 192 l 1,32,-1
 64 128 l 1,33,-1
 64 64 l 1,24,-1
192 448 m 1,34,-1
 192 512 l 1,35,-1
 256 512 l 1,36,-1
 256 448 l 1,37,-1
 192 448 l 1,34,-1
EndSplineSet
Validated: 5
EndChar

StartChar: ucircumflex
Encoding: 251 251 209
Width: 384
GlyphClass: 2
Flags: W
LayerCount: 2
Fore
SplineSet
256 0 m 1,0,-1
 256 64 l 1,1,-1
 192 64 l 1,2,-1
 192 0 l 1,3,-1
 128 0 l 1,4,-1
 64 0 l 1,5,-1
 64 64 l 1,6,-1
 128 64 l 1,7,-1
 192 64 l 1,8,-1
 192 128 l 1,9,-1
 256 128 l 1,10,-1
 256 192 l 1,11,-1
 256 256 l 1,12,-1
 256 320 l 1,13,-1
 320 320 l 1,14,-1
 320 256 l 1,15,-1
 320 192 l 1,16,-1
 320 128 l 1,17,-1
 320 64 l 1,18,-1
 320 0 l 1,19,-1
 256 0 l 1,0,-1
192 384 m 1,20,-1
 192 448 l 1,21,-1
 256 448 l 1,22,-1
 256 384 l 1,23,-1
 192 384 l 1,20,-1
64 384 m 1,24,-1
 64 448 l 1,25,-1
 128 448 l 1,26,-1
 128 384 l 1,27,-1
 64 384 l 1,24,-1
64 64 m 1,28,-1
 0 64 l 1,29,-1
 0 128 l 1,30,-1
 0 192 l 1,31,-1
 0 256 l 1,32,-1
 0 320 l 1,33,-1
 64 320 l 1,34,-1
 64 256 l 1,35,-1
 64 192 l 1,36,-1
 64 128 l 1,37,-1
 64 64 l 1,28,-1
192 448 m 1,38,-1
 128 448 l 1,39,-1
 128 512 l 1,40,-1
 192 512 l 1,41,-1
 192 448 l 1,38,-1
EndSplineSet
Validated: 5
EndChar

StartChar: udieresis
Encoding: 252 252 210
Width: 384
GlyphClass: 2
Flags: W
LayerCount: 2
Fore
SplineSet
256 0 m 1,0,-1
 256 64 l 1,1,-1
 192 64 l 1,2,-1
 192 0 l 1,3,-1
 128 0 l 1,4,-1
 64 0 l 1,5,-1
 64 64 l 1,6,-1
 128 64 l 1,7,-1
 192 64 l 1,8,-1
 192 128 l 1,9,-1
 256 128 l 1,10,-1
 256 192 l 1,11,-1
 256 256 l 1,12,-1
 256 320 l 1,13,-1
 320 320 l 1,14,-1
 320 256 l 1,15,-1
 320 192 l 1,16,-1
 320 128 l 1,17,-1
 320 64 l 1,18,-1
 320 0 l 1,19,-1
 256 0 l 1,0,-1
192 384 m 1,20,-1
 192 448 l 1,21,-1
 256 448 l 1,22,-1
 256 384 l 1,23,-1
 192 384 l 1,20,-1
64 384 m 1,24,-1
 64 448 l 1,25,-1
 128 448 l 1,26,-1
 128 384 l 1,27,-1
 64 384 l 1,24,-1
64 64 m 1,28,-1
 0 64 l 1,29,-1
 0 128 l 1,30,-1
 0 192 l 1,31,-1
 0 256 l 1,32,-1
 0 320 l 1,33,-1
 64 320 l 1,34,-1
 64 256 l 1,35,-1
 64 192 l 1,36,-1
 64 128 l 1,37,-1
 64 64 l 1,28,-1
EndSplineSet
Validated: 5
EndChar

StartChar: yacute
Encoding: 253 253 211
Width: 384
GlyphClass: 2
Flags: W
LayerCount: 2
Fore
SplineSet
128 384 m 1,0,-1
 128 448 l 1,1,-1
 192 448 l 1,2,-1
 192 384 l 1,3,-1
 128 384 l 1,0,-1
192 0 m 1,4,-1
 256 0 l 1,5,-1
 256 -64 l 1,6,-1
 192 -64 l 1,7,-1
 128 -64 l 1,8,-1
 64 -64 l 1,9,-1
 64 0 l 1,10,-1
 128 0 l 1,11,-1
 192 0 l 1,4,-1
256 0 m 1,12,-1
 256 64 l 1,13,-1
 192 64 l 1,14,-1
 128 64 l 1,15,-1
 64 64 l 1,16,-1
 64 128 l 1,17,-1
 128 128 l 1,18,-1
 192 128 l 1,19,-1
 256 128 l 1,20,-1
 256 192 l 1,21,-1
 256 256 l 1,22,-1
 256 320 l 1,23,-1
 320 320 l 1,24,-1
 320 256 l 1,25,-1
 320 192 l 1,26,-1
 320 128 l 1,27,-1
 320 64 l 1,28,-1
 320 0 l 1,29,-1
 256 0 l 1,12,-1
64 128 m 1,30,-1
 0 128 l 1,31,-1
 0 192 l 1,32,-1
 0 256 l 1,33,-1
 0 320 l 1,34,-1
 64 320 l 1,35,-1
 64 256 l 1,36,-1
 64 192 l 1,37,-1
 64 128 l 1,30,-1
192 448 m 1,38,-1
 192 512 l 1,39,-1
 256 512 l 1,40,-1
 256 448 l 1,41,-1
 192 448 l 1,38,-1
EndSplineSet
Validated: 5
EndChar

StartChar: thorn
Encoding: 254 254 212
Width: 384
GlyphClass: 2
Flags: W
LayerCount: 2
Fore
SplineSet
0 -64 m 1,0,-1
 0 0 l 1,1,-1
 0 64 l 1,2,-1
 0 128 l 1,3,-1
 0 192 l 1,4,-1
 0 256 l 1,5,-1
 0 320 l 1,6,-1
 0 384 l 1,7,-1
 0 448 l 1,8,-1
 64 448 l 1,9,-1
 64 384 l 1,10,-1
 64 320 l 1,11,-1
 128 320 l 1,12,-1
 192 320 l 1,13,-1
 256 320 l 1,14,-1
 256 256 l 1,15,-1
 320 256 l 1,16,-1
 320 192 l 1,17,-1
 320 128 l 1,18,-1
 256 128 l 1,19,-1
 256 192 l 1,20,-1
 256 256 l 1,21,-1
 192 256 l 1,22,-1
 128 256 l 1,23,-1
 64 256 l 1,24,-1
 64 192 l 1,25,-1
 64 128 l 1,26,-1
 128 128 l 1,27,-1
 192 128 l 1,28,-1
 256 128 l 1,29,-1
 256 64 l 1,30,-1
 192 64 l 1,31,-1
 128 64 l 1,32,-1
 64 64 l 1,33,-1
 64 0 l 1,34,-1
 64 -64 l 1,35,-1
 0 -64 l 1,0,-1
EndSplineSet
Validated: 5
EndChar

StartChar: ydieresis
Encoding: 255 255 213
Width: 384
GlyphClass: 2
Flags: W
LayerCount: 2
Fore
SplineSet
192 384 m 1,0,-1
 192 448 l 1,1,-1
 256 448 l 1,2,-1
 256 384 l 1,3,-1
 192 384 l 1,0,-1
64 384 m 1,4,-1
 64 448 l 1,5,-1
 128 448 l 1,6,-1
 128 384 l 1,7,-1
 64 384 l 1,4,-1
192 0 m 1,8,-1
 256 0 l 1,9,-1
 256 -64 l 1,10,-1
 192 -64 l 1,11,-1
 128 -64 l 1,12,-1
 64 -64 l 1,13,-1
 64 0 l 1,14,-1
 128 0 l 1,15,-1
 192 0 l 1,8,-1
256 0 m 1,16,-1
 256 64 l 1,17,-1
 192 64 l 1,18,-1
 128 64 l 1,19,-1
 64 64 l 1,20,-1
 64 128 l 1,21,-1
 128 128 l 1,22,-1
 192 128 l 1,23,-1
 256 128 l 1,24,-1
 256 192 l 1,25,-1
 256 256 l 1,26,-1
 256 320 l 1,27,-1
 320 320 l 1,28,-1
 320 256 l 1,29,-1
 320 192 l 1,30,-1
 320 128 l 1,31,-1
 320 64 l 1,32,-1
 320 0 l 1,33,-1
 256 0 l 1,16,-1
64 128 m 1,34,-1
 0 128 l 1,35,-1
 0 192 l 1,36,-1
 0 256 l 1,37,-1
 0 320 l 1,38,-1
 64 320 l 1,39,-1
 64 256 l 1,40,-1
 64 192 l 1,41,-1
 64 128 l 1,34,-1
EndSplineSet
Validated: 5
EndChar

StartChar: dotlessi
Encoding: 305 305 214
Width: 256
GlyphClass: 2
Flags: W
LayerCount: 2
Fore
SplineSet
128 0 m 1,0,-1
 64 0 l 1,1,-1
 0 0 l 1,2,-1
 0 64 l 1,3,-1
 64 64 l 1,4,-1
 64 128 l 1,5,-1
 64 192 l 1,6,-1
 64 256 l 1,7,-1
 0 256 l 1,8,-1
 0 320 l 1,9,-1
 64 320 l 1,10,-1
 128 320 l 1,11,-1
 128 256 l 1,12,-1
 128 192 l 1,13,-1
 128 128 l 1,14,-1
 128 64 l 1,15,-1
 192 64 l 1,16,-1
 192 0 l 1,17,-1
 128 0 l 1,0,-1
EndSplineSet
Validated: 1
EndChar

StartChar: Lslash
Encoding: 321 321 215
Width: 384
GlyphClass: 2
Flags: W
LayerCount: 2
Fore
SplineSet
256 64 m 1,0,-1
 320 64 l 1,1,-1
 320 0 l 1,2,-1
 256 0 l 1,3,-1
 192 0 l 1,4,-1
 128 0 l 1,5,-1
 64 0 l 1,6,-1
 0 0 l 1,7,-1
 0 64 l 1,8,-1
 0 128 l 1,9,-1
 -64 128 l 1,10,-1
 -64 192 l 1,11,-1
 0 192 l 1,12,-1
 0 256 l 1,13,-1
 0 320 l 1,14,-1
 0 384 l 1,15,-1
 0 448 l 1,16,-1
 64 448 l 1,17,-1
 64 384 l 1,18,-1
 64 320 l 1,19,-1
 128 320 l 1,20,-1
 128 256 l 1,21,-1
 64 256 l 1,22,-1
 64 192 l 1,23,-1
 64 128 l 1,24,-1
 64 64 l 1,25,-1
 128 64 l 1,26,-1
 192 64 l 1,27,-1
 256 64 l 1,0,-1
EndSplineSet
Validated: 1
EndChar

StartChar: lslash
Encoding: 322 322 216
Width: 256
GlyphClass: 2
Flags: W
LayerCount: 2
Fore
SplineSet
64 0 m 1,0,-1
 64 64 l 1,1,-1
 64 128 l 1,2,-1
 0 128 l 1,3,-1
 0 192 l 1,4,-1
 64 192 l 1,5,-1
 64 256 l 1,6,-1
 64 320 l 1,7,-1
 64 384 l 1,8,-1
 0 384 l 1,9,-1
 0 448 l 1,10,-1
 64 448 l 1,11,-1
 128 448 l 1,12,-1
 128 384 l 1,13,-1
 128 320 l 1,14,-1
 192 320 l 1,15,-1
 192 256 l 1,16,-1
 128 256 l 1,17,-1
 128 192 l 1,18,-1
 128 128 l 1,19,-1
 128 64 l 1,20,-1
 128 0 l 1,21,-1
 64 0 l 1,0,-1
EndSplineSet
Validated: 1
EndChar

StartChar: Ohungarumlaut
Encoding: 336 336 217
Width: 384
GlyphClass: 2
Flags: W
LayerCount: 2
Fore
SplineSet
192 512 m 1,0,-1
 192 576 l 1,1,-1
 256 576 l 1,2,-1
 256 512 l 1,3,-1
 192 512 l 1,0,-1
0 512 m 1,4,-1
 0 576 l 1,5,-1
 64 576 l 1,6,-1
 64 512 l 1,7,-1
 0 512 l 1,4,-1
192 64 m 1,8,-1
 256 64 l 1,9,-1
 256 0 l 1,10,-1
 192 0 l 1,11,-1
 128 0 l 1,12,-1
 64 0 l 1,13,-1
 64 64 l 1,14,-1
 128 64 l 1,15,-1
 192 64 l 1,8,-1
256 64 m 1,16,-1
 256 128 l 1,17,-1
 256 192 l 1,18,-1
 256 256 l 1,19,-1
 256 320 l 1,20,-1
 256 384 l 1,21,-1
 320 384 l 1,22,-1
 320 320 l 1,23,-1
 320 256 l 1,24,-1
 320 192 l 1,25,-1
 320 128 l 1,26,-1
 320 64 l 1,27,-1
 256 64 l 1,16,-1
64 64 m 1,28,-1
 0 64 l 1,29,-1
 0 128 l 1,30,-1
 0 192 l 1,31,-1
 0 256 l 1,32,-1
 0 320 l 1,33,-1
 0 384 l 1,34,-1
 64 384 l 1,35,-1
 64 320 l 1,36,-1
 64 256 l 1,37,-1
 64 192 l 1,38,-1
 64 128 l 1,39,-1
 64 64 l 1,28,-1
256 384 m 1,40,-1
 192 384 l 1,41,-1
 128 384 l 1,42,-1
 64 384 l 1,43,-1
 64 448 l 1,44,-1
 128 448 l 1,45,-1
 192 448 l 1,46,-1
 256 448 l 1,47,-1
 256 384 l 1,40,-1
256 576 m 1,48,-1
 256 640 l 1,49,-1
 320 640 l 1,50,-1
 320 576 l 1,51,-1
 256 576 l 1,48,-1
64 576 m 1,52,-1
 64 640 l 1,53,-1
 128 640 l 1,54,-1
 128 576 l 1,55,-1
 64 576 l 1,52,-1
EndSplineSet
Validated: 5
EndChar

StartChar: ohungarumlaut
Encoding: 337 337 218
Width: 384
GlyphClass: 2
Flags: W
LayerCount: 2
Fore
SplineSet
192 384 m 1,0,-1
 192 448 l 1,1,-1
 256 448 l 1,2,-1
 256 384 l 1,3,-1
 192 384 l 1,0,-1
0 384 m 1,4,-1
 0 448 l 1,5,-1
 64 448 l 1,6,-1
 64 384 l 1,7,-1
 0 384 l 1,4,-1
192 64 m 1,8,-1
 256 64 l 1,9,-1
 256 0 l 1,10,-1
 192 0 l 1,11,-1
 128 0 l 1,12,-1
 64 0 l 1,13,-1
 64 64 l 1,14,-1
 128 64 l 1,15,-1
 192 64 l 1,8,-1
256 64 m 1,16,-1
 256 128 l 1,17,-1
 256 192 l 1,18,-1
 256 256 l 1,19,-1
 320 256 l 1,20,-1
 320 192 l 1,21,-1
 320 128 l 1,22,-1
 320 64 l 1,23,-1
 256 64 l 1,16,-1
64 64 m 1,24,-1
 0 64 l 1,25,-1
 0 128 l 1,26,-1
 0 192 l 1,27,-1
 0 256 l 1,28,-1
 64 256 l 1,29,-1
 64 192 l 1,30,-1
 64 128 l 1,31,-1
 64 64 l 1,24,-1
256 256 m 1,32,-1
 192 256 l 1,33,-1
 128 256 l 1,34,-1
 64 256 l 1,35,-1
 64 320 l 1,36,-1
 128 320 l 1,37,-1
 192 320 l 1,38,-1
 256 320 l 1,39,-1
 256 256 l 1,32,-1
256 448 m 1,40,-1
 256 512 l 1,41,-1
 320 512 l 1,42,-1
 320 448 l 1,43,-1
 256 448 l 1,40,-1
64 448 m 1,44,-1
 64 512 l 1,45,-1
 128 512 l 1,46,-1
 128 448 l 1,47,-1
 64 448 l 1,44,-1
EndSplineSet
Validated: 5
EndChar

StartChar: Uhungarumlaut
Encoding: 368 368 219
Width: 384
GlyphClass: 2
Flags: W
LayerCount: 2
Fore
SplineSet
192 512 m 1,0,-1
 192 576 l 1,1,-1
 256 576 l 1,2,-1
 256 512 l 1,3,-1
 192 512 l 1,0,-1
0 512 m 1,4,-1
 0 576 l 1,5,-1
 64 576 l 1,6,-1
 64 512 l 1,7,-1
 0 512 l 1,4,-1
192 64 m 1,8,-1
 256 64 l 1,9,-1
 256 0 l 1,10,-1
 192 0 l 1,11,-1
 128 0 l 1,12,-1
 64 0 l 1,13,-1
 64 64 l 1,14,-1
 128 64 l 1,15,-1
 192 64 l 1,8,-1
256 64 m 1,16,-1
 256 128 l 1,17,-1
 256 192 l 1,18,-1
 256 256 l 1,19,-1
 256 320 l 1,20,-1
 256 384 l 1,21,-1
 256 448 l 1,22,-1
 320 448 l 1,23,-1
 320 384 l 1,24,-1
 320 320 l 1,25,-1
 320 256 l 1,26,-1
 320 192 l 1,27,-1
 320 128 l 1,28,-1
 320 64 l 1,29,-1
 256 64 l 1,16,-1
64 64 m 1,30,-1
 0 64 l 1,31,-1
 0 128 l 1,32,-1
 0 192 l 1,33,-1
 0 256 l 1,34,-1
 0 320 l 1,35,-1
 0 384 l 1,36,-1
 0 448 l 1,37,-1
 64 448 l 1,38,-1
 64 384 l 1,39,-1
 64 320 l 1,40,-1
 64 256 l 1,41,-1
 64 192 l 1,42,-1
 64 128 l 1,43,-1
 64 64 l 1,30,-1
256 576 m 1,44,-1
 256 640 l 1,45,-1
 320 640 l 1,46,-1
 320 576 l 1,47,-1
 256 576 l 1,44,-1
64 576 m 1,48,-1
 64 640 l 1,49,-1
 128 640 l 1,50,-1
 128 576 l 1,51,-1
 64 576 l 1,48,-1
EndSplineSet
Validated: 5
EndChar

StartChar: uhungarumlaut
Encoding: 369 369 220
Width: 384
GlyphClass: 2
Flags: W
LayerCount: 2
Fore
SplineSet
256 0 m 1,0,-1
 256 64 l 1,1,-1
 192 64 l 1,2,-1
 192 0 l 1,3,-1
 128 0 l 1,4,-1
 64 0 l 1,5,-1
 64 64 l 1,6,-1
 128 64 l 1,7,-1
 192 64 l 1,8,-1
 192 128 l 1,9,-1
 256 128 l 1,10,-1
 256 192 l 1,11,-1
 256 256 l 1,12,-1
 256 320 l 1,13,-1
 320 320 l 1,14,-1
 320 256 l 1,15,-1
 320 192 l 1,16,-1
 320 128 l 1,17,-1
 320 64 l 1,18,-1
 320 0 l 1,19,-1
 256 0 l 1,0,-1
192 384 m 1,20,-1
 192 448 l 1,21,-1
 256 448 l 1,22,-1
 256 384 l 1,23,-1
 192 384 l 1,20,-1
0 384 m 1,24,-1
 0 448 l 1,25,-1
 64 448 l 1,26,-1
 64 384 l 1,27,-1
 0 384 l 1,24,-1
64 64 m 1,28,-1
 0 64 l 1,29,-1
 0 128 l 1,30,-1
 0 192 l 1,31,-1
 0 256 l 1,32,-1
 0 320 l 1,33,-1
 64 320 l 1,34,-1
 64 256 l 1,35,-1
 64 192 l 1,36,-1
 64 128 l 1,37,-1
 64 64 l 1,28,-1
256 448 m 1,38,-1
 256 512 l 1,39,-1
 320 512 l 1,40,-1
 320 448 l 1,41,-1
 256 448 l 1,38,-1
64 448 m 1,42,-1
 64 512 l 1,43,-1
 128 512 l 1,44,-1
 128 448 l 1,45,-1
 64 448 l 1,42,-1
EndSplineSet
Validated: 5
EndChar

StartChar: caron
Encoding: 711 711 221
Width: 256
GlyphClass: 2
Flags: W
LayerCount: 2
Fore
SplineSet
64 320 m 1,0,-1
 64 384 l 1,1,-1
 128 384 l 1,2,-1
 128 320 l 1,3,-1
 64 320 l 1,0,-1
128 384 m 1,4,-1
 128 448 l 1,5,-1
 192 448 l 1,6,-1
 192 384 l 1,7,-1
 128 384 l 1,4,-1
64 384 m 1,8,-1
 0 384 l 1,9,-1
 0 448 l 1,10,-1
 64 448 l 1,11,-1
 64 384 l 1,8,-1
EndSplineSet
Validated: 5
EndChar

StartChar: uni02C9
Encoding: 713 713 222
Width: 256
GlyphClass: 2
Flags: W
LayerCount: 2
Fore
SplineSet
128 448 m 1,0,-1
 192 448 l 1,1,-1
 192 384 l 1,2,-1
 128 384 l 1,3,-1
 64 384 l 1,4,-1
 0 384 l 1,5,-1
 0 448 l 1,6,-1
 64 448 l 1,7,-1
 128 448 l 1,0,-1
EndSplineSet
Validated: 1
EndChar

StartChar: breve
Encoding: 728 728 223
Width: 320
GlyphClass: 2
Flags: W
LayerCount: 2
Fore
SplineSet
128 384 m 1,0,-1
 192 384 l 1,1,-1
 192 320 l 1,2,-1
 128 320 l 1,3,-1
 64 320 l 1,4,-1
 64 384 l 1,5,-1
 128 384 l 1,0,-1
192 384 m 1,6,-1
 192 448 l 1,7,-1
 256 448 l 1,8,-1
 256 384 l 1,9,-1
 192 384 l 1,6,-1
64 384 m 1,10,-1
 0 384 l 1,11,-1
 0 448 l 1,12,-1
 64 448 l 1,13,-1
 64 384 l 1,10,-1
EndSplineSet
Validated: 5
EndChar

StartChar: dotaccent
Encoding: 729 729 224
Width: 128
GlyphClass: 2
Flags: W
LayerCount: 2
Fore
SplineSet
0 384 m 1,0,-1
 0 448 l 1,1,-1
 64 448 l 1,2,-1
 64 384 l 1,3,-1
 0 384 l 1,0,-1
EndSplineSet
Validated: 1
EndChar

StartChar: ring
Encoding: 730 730 225
Width: 256
GlyphClass: 2
Flags: W
LayerCount: 2
Fore
SplineSet
64 256 m 1,0,-1
 64 320 l 1,1,-1
 128 320 l 1,2,-1
 128 256 l 1,3,-1
 64 256 l 1,0,-1
128 320 m 1,4,-1
 128 384 l 1,5,-1
 192 384 l 1,6,-1
 192 320 l 1,7,-1
 128 320 l 1,4,-1
64 320 m 1,8,-1
 0 320 l 1,9,-1
 0 384 l 1,10,-1
 64 384 l 1,11,-1
 64 320 l 1,8,-1
128 384 m 1,12,-1
 64 384 l 1,13,-1
 64 448 l 1,14,-1
 128 448 l 1,15,-1
 128 384 l 1,12,-1
EndSplineSet
Validated: 5
EndChar

StartChar: ogonek
Encoding: 731 731 226
Width: 256
GlyphClass: 2
Flags: W
LayerCount: 2
Fore
SplineSet
128 0 m 1,0,-1
 192 0 l 1,1,-1
 192 -64 l 1,2,-1
 128 -64 l 1,3,-1
 64 -64 l 1,4,-1
 64 0 l 1,5,-1
 128 0 l 1,0,-1
64 0 m 1,6,-1
 0 0 l 1,7,-1
 0 64 l 1,8,-1
 64 64 l 1,9,-1
 64 0 l 1,6,-1
64 64 m 1,10,-1
 64 128 l 1,11,-1
 128 128 l 1,12,-1
 128 64 l 1,13,-1
 64 64 l 1,10,-1
EndSplineSet
Validated: 5
EndChar

StartChar: hungarumlaut
Encoding: 733 733 227
Width: 384
GlyphClass: 2
Flags: W
LayerCount: 2
Fore
SplineSet
192 320 m 1,0,-1
 192 384 l 1,1,-1
 256 384 l 1,2,-1
 256 320 l 1,3,-1
 192 320 l 1,0,-1
0 320 m 1,4,-1
 0 384 l 1,5,-1
 64 384 l 1,6,-1
 64 320 l 1,7,-1
 0 320 l 1,4,-1
256 384 m 1,8,-1
 256 448 l 1,9,-1
 320 448 l 1,10,-1
 320 384 l 1,11,-1
 256 384 l 1,8,-1
64 384 m 1,12,-1
 64 448 l 1,13,-1
 128 448 l 1,14,-1
 128 384 l 1,15,-1
 64 384 l 1,12,-1
EndSplineSet
Validated: 5
EndChar

StartChar: fi
Encoding: 64257 64257 228
Width: 512
GlyphClass: 3
Flags: W
LayerCount: 2
Fore
SplineSet
64 0 m 1,0,-1
 64 64 l 1,1,-1
 64 128 l 1,2,-1
 64 192 l 1,3,-1
 64 256 l 1,4,-1
 0 256 l 1,5,-1
 0 320 l 1,6,-1
 64 320 l 1,7,-1
 64 384 l 1,8,-1
 128 384 l 1,9,-1
 128 320 l 1,10,-1
 192 320 l 1,11,-1
 256 320 l 1,12,-1
 320 320 l 1,13,-1
 384 320 l 1,14,-1
 384 256 l 1,15,-1
 384 192 l 1,16,-1
 384 128 l 1,17,-1
 384 64 l 1,18,-1
 448 64 l 1,19,-1
 448 0 l 1,20,-1
 384 0 l 1,21,-1
 320 0 l 1,22,-1
 256 0 l 1,23,-1
 256 64 l 1,24,-1
 320 64 l 1,25,-1
 320 128 l 1,26,-1
 320 192 l 1,27,-1
 320 256 l 1,28,-1
 256 256 l 1,29,-1
 192 256 l 1,30,-1
 128 256 l 1,31,-1
 128 192 l 1,32,-1
 128 128 l 1,33,-1
 128 64 l 1,34,-1
 128 0 l 1,35,-1
 64 0 l 1,0,-1
320 384 m 1,36,-1
 320 448 l 1,37,-1
 384 448 l 1,38,-1
 384 384 l 1,39,-1
 320 384 l 1,36,-1
192 448 m 1,40,-1
 256 448 l 1,41,-1
 256 384 l 1,42,-1
 192 384 l 1,43,-1
 128 384 l 1,44,-1
 128 448 l 1,45,-1
 192 448 l 1,40,-1
EndSplineSet
Validated: 5
Ligature2: "'liga' Standard Ligatures in Latin lookup 0 subtable" f i
EndChar

StartChar: fl
Encoding: 64258 64258 229
Width: 448
GlyphClass: 3
Flags: W
LayerCount: 2
Fore
SplineSet
64 0 m 1,0,-1
 64 64 l 1,1,-1
 64 128 l 1,2,-1
 64 192 l 1,3,-1
 64 256 l 1,4,-1
 0 256 l 1,5,-1
 0 320 l 1,6,-1
 64 320 l 1,7,-1
 64 384 l 1,8,-1
 128 384 l 1,9,-1
 128 320 l 1,10,-1
 192 320 l 1,11,-1
 192 256 l 1,12,-1
 128 256 l 1,13,-1
 128 192 l 1,14,-1
 128 128 l 1,15,-1
 128 64 l 1,16,-1
 128 0 l 1,17,-1
 64 0 l 1,0,-1
384 0 m 1,18,-1
 320 0 l 1,19,-1
 320 64 l 1,20,-1
 320 128 l 1,21,-1
 320 192 l 1,22,-1
 320 256 l 1,23,-1
 320 320 l 1,24,-1
 320 384 l 1,25,-1
 256 384 l 1,26,-1
 192 384 l 1,27,-1
 128 384 l 1,28,-1
 128 448 l 1,29,-1
 192 448 l 1,30,-1
 256 448 l 1,31,-1
 320 448 l 1,32,-1
 384 448 l 1,33,-1
 384 384 l 1,34,-1
 384 320 l 1,35,-1
 384 256 l 1,36,-1
 384 192 l 1,37,-1
 384 128 l 1,38,-1
 384 64 l 1,39,-1
 384 0 l 1,18,-1
EndSplineSet
Validated: 5
Ligature2: "'liga' Standard Ligatures in Latin lookup 0 subtable" f l
EndChar

StartChar: gcircumflex
Encoding: 285 285 230
Width: 384
Flags: W
LayerCount: 2
Fore
SplineSet
192 384 m 5,0,-1
 192 448 l 5,1,-1
 256 448 l 5,2,-1
 256 384 l 5,3,-1
 192 384 l 5,0,-1
64 384 m 5,4,-1
 64 448 l 5,5,-1
 128 448 l 5,6,-1
 128 384 l 5,7,-1
 64 384 l 5,4,-1
192 448 m 5,8,-1
 128 448 l 5,9,-1
 128 512 l 5,10,-1
 192 512 l 5,11,-1
 192 448 l 5,8,-1
192 0 m 1,12,-1
 256 0 l 1,13,-1
 256 -64 l 1,14,-1
 192 -64 l 1,15,-1
 128 -64 l 1,16,-1
 64 -64 l 1,17,-1
 64 0 l 1,18,-1
 128 0 l 1,19,-1
 192 0 l 1,12,-1
256 0 m 1,20,-1
 256 64 l 1,21,-1
 192 64 l 1,22,-1
 128 64 l 1,23,-1
 64 64 l 1,24,-1
 64 128 l 1,25,-1
 128 128 l 1,26,-1
 192 128 l 1,27,-1
 256 128 l 1,28,-1
 256 192 l 1,29,-1
 256 256 l 1,30,-1
 320 256 l 1,31,-1
 320 192 l 1,32,-1
 320 128 l 1,33,-1
 320 64 l 1,34,-1
 320 0 l 1,35,-1
 256 0 l 1,20,-1
64 128 m 1,36,-1
 0 128 l 1,37,-1
 0 192 l 1,38,-1
 0 256 l 1,39,-1
 64 256 l 1,40,-1
 64 192 l 1,41,-1
 64 128 l 1,36,-1
256 256 m 1,42,-1
 192 256 l 1,43,-1
 128 256 l 1,44,-1
 64 256 l 1,45,-1
 64 320 l 1,46,-1
 128 320 l 1,47,-1
 192 320 l 1,48,-1
 256 320 l 1,49,-1
 256 256 l 1,42,-1
EndSplineSet
Validated: 5
EndChar

StartChar: Hcircumflex
Encoding: 292 292 231
Width: 384
Flags: W
LayerCount: 2
Fore
SplineSet
192 512 m 5,0,-1
 192 576 l 5,1,-1
 256 576 l 5,2,-1
 256 512 l 5,3,-1
 192 512 l 5,0,-1
64 512 m 5,4,-1
 64 576 l 5,5,-1
 128 576 l 5,6,-1
 128 512 l 5,7,-1
 64 512 l 5,4,-1
192 576 m 5,8,-1
 128 576 l 5,9,-1
 128 640 l 5,10,-1
 192 640 l 5,11,-1
 192 576 l 5,8,-1
256 0 m 1,12,-1
 256 64 l 1,13,-1
 256 128 l 1,14,-1
 256 192 l 1,15,-1
 192 192 l 1,16,-1
 128 192 l 1,17,-1
 64 192 l 1,18,-1
 64 128 l 1,19,-1
 64 64 l 1,20,-1
 64 0 l 1,21,-1
 0 0 l 1,22,-1
 0 64 l 1,23,-1
 0 128 l 1,24,-1
 0 192 l 1,25,-1
 0 256 l 1,26,-1
 0 320 l 1,27,-1
 0 384 l 1,28,-1
 0 448 l 1,29,-1
 64 448 l 1,30,-1
 64 384 l 1,31,-1
 64 320 l 1,32,-1
 64 256 l 1,33,-1
 128 256 l 1,34,-1
 192 256 l 1,35,-1
 256 256 l 1,36,-1
 256 320 l 1,37,-1
 256 384 l 1,38,-1
 256 448 l 1,39,-1
 320 448 l 1,40,-1
 320 384 l 1,41,-1
 320 320 l 1,42,-1
 320 256 l 1,43,-1
 320 192 l 1,44,-1
 320 128 l 1,45,-1
 320 64 l 1,46,-1
 320 0 l 1,47,-1
 256 0 l 1,12,-1
EndSplineSet
Validated: 5
EndChar

StartChar: hcircumflex
Encoding: 293 293 232
Width: 384
Flags: W
LayerCount: 2
Fore
SplineSet
192 384 m 5,0,-1
 192 448 l 5,1,-1
 256 448 l 5,2,-1
 256 384 l 5,3,-1
 192 384 l 5,0,-1
64 384 m 5,4,-1
 64 448 l 5,5,-1
 128 448 l 5,6,-1
 128 384 l 5,7,-1
 64 384 l 5,4,-1
192 448 m 5,8,-1
 128 448 l 5,9,-1
 128 512 l 5,10,-1
 192 512 l 5,11,-1
 192 448 l 5,8,-1
256 0 m 1,12,-1
 256 64 l 1,13,-1
 256 128 l 1,14,-1
 256 192 l 1,15,-1
 256 256 l 1,16,-1
 320 256 l 1,17,-1
 320 192 l 1,18,-1
 320 128 l 1,19,-1
 320 64 l 1,20,-1
 320 0 l 1,21,-1
 256 0 l 1,12,-1
0 0 m 1,22,-1
 0 64 l 1,23,-1
 0 128 l 1,24,-1
 0 192 l 1,25,-1
 0 256 l 1,26,-1
 0 320 l 1,27,-1
 0 384 l 1,28,-1
 0 448 l 1,29,-1
 64 448 l 1,30,-1
 64 384 l 1,31,-1
 64 320 l 1,32,-1
 64 256 l 1,33,-1
 128 256 l 1,34,-1
 128 192 l 1,35,-1
 64 192 l 1,36,-1
 64 128 l 1,37,-1
 64 64 l 1,38,-1
 64 0 l 1,39,-1
 0 0 l 1,22,-1
256 256 m 1,40,-1
 192 256 l 1,41,-1
 128 256 l 1,42,-1
 128 320 l 1,43,-1
 192 320 l 1,44,-1
 256 320 l 1,45,-1
 256 256 l 1,40,-1
EndSplineSet
Validated: 5
EndChar

StartChar: Gcircumflex
Encoding: 284 284 233
Width: 384
Flags: W
LayerCount: 2
Fore
SplineSet
192 512 m 5,0,-1
 192 576 l 5,1,-1
 256 576 l 5,2,-1
 256 512 l 5,3,-1
 192 512 l 5,0,-1
64 512 m 5,4,-1
 64 576 l 5,5,-1
 128 576 l 5,6,-1
 128 512 l 5,7,-1
 64 512 l 5,4,-1
192 576 m 5,8,-1
 128 576 l 5,9,-1
 128 640 l 5,10,-1
 192 640 l 5,11,-1
 192 576 l 5,8,-1
256 320 m 1,12,-1
 256 384 l 1,13,-1
 320 384 l 1,14,-1
 320 320 l 1,15,-1
 256 320 l 1,12,-1
192 64 m 1,16,-1
 256 64 l 1,17,-1
 256 0 l 1,18,-1
 192 0 l 1,19,-1
 128 0 l 1,20,-1
 64 0 l 1,21,-1
 64 64 l 1,22,-1
 128 64 l 1,23,-1
 192 64 l 1,16,-1
256 64 m 1,24,-1
 256 128 l 1,25,-1
 256 192 l 1,26,-1
 192 192 l 1,27,-1
 128 192 l 1,28,-1
 128 256 l 1,29,-1
 192 256 l 1,30,-1
 256 256 l 1,31,-1
 320 256 l 1,32,-1
 320 192 l 1,33,-1
 320 128 l 1,34,-1
 320 64 l 1,35,-1
 256 64 l 1,24,-1
64 64 m 1,36,-1
 0 64 l 1,37,-1
 0 128 l 1,38,-1
 0 192 l 1,39,-1
 0 256 l 1,40,-1
 0 320 l 1,41,-1
 0 384 l 1,42,-1
 64 384 l 1,43,-1
 64 320 l 1,44,-1
 64 256 l 1,45,-1
 64 192 l 1,46,-1
 64 128 l 1,47,-1
 64 64 l 1,36,-1
256 384 m 1,48,-1
 192 384 l 1,49,-1
 128 384 l 1,50,-1
 64 384 l 1,51,-1
 64 448 l 1,52,-1
 128 448 l 1,53,-1
 192 448 l 1,54,-1
 256 448 l 1,55,-1
 256 384 l 1,48,-1
EndSplineSet
Validated: 5
EndChar

StartChar: jcircumflex
Encoding: 309 309 234
Width: 256
Flags: W
LayerCount: 2
Fore
SplineSet
192 384 m 5,0,-1
 192 448 l 5,1,-1
 256 448 l 5,2,-1
 256 384 l 5,3,-1
 192 384 l 5,0,-1
64 384 m 5,4,-1
 64 448 l 5,5,-1
 128 448 l 5,6,-1
 128 384 l 5,7,-1
 64 384 l 5,4,-1
192 448 m 5,8,-1
 128 448 l 5,9,-1
 128 512 l 5,10,-1
 192 512 l 5,11,-1
 192 448 l 5,8,-1
64 0 m 1,12,-1
 128 0 l 1,13,-1
 128 -64 l 1,14,-1
 64 -64 l 1,15,-1
 0 -64 l 1,16,-1
 0 0 l 1,17,-1
 64 0 l 1,12,-1
128 0 m 1,18,-1
 128 64 l 1,19,-1
 128 128 l 1,20,-1
 128 192 l 1,21,-1
 128 256 l 1,22,-1
 128 320 l 1,23,-1
 192 320 l 1,24,-1
 192 256 l 1,25,-1
 192 192 l 1,26,-1
 192 128 l 1,27,-1
 192 64 l 1,28,-1
 192 0 l 1,29,-1
 128 0 l 1,18,-1
EndSplineSet
Validated: 5
EndChar

StartChar: Jcircumflex
Encoding: 308 308 235
Width: 384
Flags: W
LayerCount: 2
Fore
SplineSet
320 512 m 5,0,-1
 320 576 l 5,1,-1
 384 576 l 5,2,-1
 384 512 l 5,3,-1
 320 512 l 5,0,-1
192 512 m 5,4,-1
 192 576 l 5,5,-1
 256 576 l 5,6,-1
 256 512 l 5,7,-1
 192 512 l 5,4,-1
320 576 m 5,8,-1
 256 576 l 5,9,-1
 256 640 l 5,10,-1
 320 640 l 5,11,-1
 320 576 l 5,8,-1
192 64 m 1,12,-1
 256 64 l 1,13,-1
 256 0 l 1,14,-1
 192 0 l 1,15,-1
 128 0 l 1,16,-1
 64 0 l 1,17,-1
 64 64 l 1,18,-1
 128 64 l 1,19,-1
 192 64 l 1,12,-1
256 64 m 1,20,-1
 256 128 l 1,21,-1
 256 192 l 1,22,-1
 256 256 l 1,23,-1
 256 320 l 1,24,-1
 256 384 l 1,25,-1
 256 448 l 1,26,-1
 320 448 l 1,27,-1
 320 384 l 1,28,-1
 320 320 l 1,29,-1
 320 256 l 1,30,-1
 320 192 l 1,31,-1
 320 128 l 1,32,-1
 320 64 l 1,33,-1
 256 64 l 1,20,-1
64 64 m 1,34,-1
 0 64 l 1,35,-1
 0 128 l 1,36,-1
 64 128 l 1,37,-1
 64 64 l 1,34,-1
EndSplineSet
Validated: 5
EndChar

StartChar: Ccircumflex
Encoding: 264 264 236
Width: 384
Flags: W
LayerCount: 2
Fore
SplineSet
192 512 m 5,0,-1
 192 576 l 5,1,-1
 256 576 l 5,2,-1
 256 512 l 5,3,-1
 192 512 l 5,0,-1
64 512 m 5,4,-1
 64 576 l 5,5,-1
 128 576 l 5,6,-1
 128 512 l 5,7,-1
 64 512 l 5,4,-1
192 576 m 5,8,-1
 128 576 l 5,9,-1
 128 640 l 5,10,-1
 192 640 l 5,11,-1
 192 576 l 5,8,-1
256 320 m 1,12,-1
 256 384 l 1,13,-1
 320 384 l 1,14,-1
 320 320 l 1,15,-1
 256 320 l 1,12,-1
192 64 m 1,16,-1
 256 64 l 1,17,-1
 256 0 l 1,18,-1
 192 0 l 1,19,-1
 128 0 l 1,20,-1
 64 0 l 1,21,-1
 64 64 l 1,22,-1
 128 64 l 1,23,-1
 192 64 l 1,16,-1
256 64 m 1,24,-1
 256 128 l 1,25,-1
 320 128 l 1,26,-1
 320 64 l 1,27,-1
 256 64 l 1,24,-1
64 64 m 1,28,-1
 0 64 l 1,29,-1
 0 128 l 1,30,-1
 0 192 l 1,31,-1
 0 256 l 1,32,-1
 0 320 l 1,33,-1
 0 384 l 1,34,-1
 64 384 l 1,35,-1
 64 320 l 1,36,-1
 64 256 l 1,37,-1
 64 192 l 1,38,-1
 64 128 l 1,39,-1
 64 64 l 1,28,-1
256 384 m 1,40,-1
 192 384 l 1,41,-1
 128 384 l 1,42,-1
 64 384 l 1,43,-1
 64 448 l 1,44,-1
 128 448 l 1,45,-1
 192 448 l 1,46,-1
 256 448 l 1,47,-1
 256 384 l 1,40,-1
EndSplineSet
Validated: 5
EndChar

StartChar: ccircumflex
Encoding: 265 265 237
Width: 384
Flags: W
LayerCount: 2
Fore
SplineSet
192 384 m 5,0,-1
 192 448 l 5,1,-1
 256 448 l 5,2,-1
 256 384 l 5,3,-1
 192 384 l 5,0,-1
64 384 m 5,4,-1
 64 448 l 5,5,-1
 128 448 l 5,6,-1
 128 384 l 5,7,-1
 64 384 l 5,4,-1
192 448 m 5,8,-1
 128 448 l 5,9,-1
 128 512 l 5,10,-1
 192 512 l 5,11,-1
 192 448 l 5,8,-1
256 192 m 1,12,-1
 256 256 l 1,13,-1
 320 256 l 1,14,-1
 320 192 l 1,15,-1
 256 192 l 1,12,-1
192 64 m 1,16,-1
 256 64 l 1,17,-1
 256 0 l 1,18,-1
 192 0 l 1,19,-1
 128 0 l 1,20,-1
 64 0 l 1,21,-1
 64 64 l 1,22,-1
 128 64 l 1,23,-1
 192 64 l 1,16,-1
256 64 m 1,24,-1
 256 128 l 1,25,-1
 320 128 l 1,26,-1
 320 64 l 1,27,-1
 256 64 l 1,24,-1
64 64 m 1,28,-1
 0 64 l 1,29,-1
 0 128 l 1,30,-1
 0 192 l 1,31,-1
 0 256 l 1,32,-1
 64 256 l 1,33,-1
 64 192 l 1,34,-1
 64 128 l 1,35,-1
 64 64 l 1,28,-1
256 256 m 1,36,-1
 192 256 l 1,37,-1
 128 256 l 1,38,-1
 64 256 l 1,39,-1
 64 320 l 1,40,-1
 128 320 l 1,41,-1
 192 320 l 1,42,-1
 256 320 l 1,43,-1
 256 256 l 1,36,-1
EndSplineSet
Validated: 5
EndChar

StartChar: scircumflex
Encoding: 349 349 238
Width: 384
Flags: W
LayerCount: 2
Fore
SplineSet
192 384 m 5,0,-1
 192 448 l 5,1,-1
 256 448 l 5,2,-1
 256 384 l 5,3,-1
 192 384 l 5,0,-1
64 384 m 5,4,-1
 64 448 l 5,5,-1
 128 448 l 5,6,-1
 128 384 l 5,7,-1
 64 384 l 5,4,-1
192 448 m 5,8,-1
 128 448 l 5,9,-1
 128 512 l 5,10,-1
 192 512 l 5,11,-1
 192 448 l 5,8,-1
192 64 m 1,12,-1
 256 64 l 1,13,-1
 256 0 l 1,14,-1
 192 0 l 1,15,-1
 128 0 l 1,16,-1
 64 0 l 1,17,-1
 0 0 l 1,18,-1
 0 64 l 1,19,-1
 64 64 l 1,20,-1
 128 64 l 1,21,-1
 192 64 l 1,12,-1
256 64 m 1,22,-1
 256 128 l 1,23,-1
 320 128 l 1,24,-1
 320 64 l 1,25,-1
 256 64 l 1,22,-1
256 128 m 1,26,-1
 192 128 l 1,27,-1
 128 128 l 1,28,-1
 64 128 l 1,29,-1
 64 192 l 1,30,-1
 128 192 l 1,31,-1
 192 192 l 1,32,-1
 256 192 l 1,33,-1
 256 128 l 1,26,-1
64 192 m 1,34,-1
 0 192 l 1,35,-1
 0 256 l 1,36,-1
 64 256 l 1,37,-1
 64 192 l 1,34,-1
256 320 m 1,38,-1
 320 320 l 1,39,-1
 320 256 l 1,40,-1
 256 256 l 1,41,-1
 192 256 l 1,42,-1
 128 256 l 1,43,-1
 64 256 l 1,44,-1
 64 320 l 1,45,-1
 128 320 l 1,46,-1
 192 320 l 1,47,-1
 256 320 l 1,38,-1
EndSplineSet
Validated: 5
EndChar

StartChar: Scircumflex
Encoding: 348 348 239
Width: 384
Flags: W
LayerCount: 2
Fore
SplineSet
192 512 m 5,0,-1
 192 576 l 5,1,-1
 256 576 l 5,2,-1
 256 512 l 5,3,-1
 192 512 l 5,0,-1
64 512 m 5,4,-1
 64 576 l 5,5,-1
 128 576 l 5,6,-1
 128 512 l 5,7,-1
 64 512 l 5,4,-1
192 576 m 5,8,-1
 128 576 l 5,9,-1
 128 640 l 5,10,-1
 192 640 l 5,11,-1
 192 576 l 5,8,-1
256 320 m 1,12,-1
 256 384 l 1,13,-1
 320 384 l 1,14,-1
 320 320 l 1,15,-1
 256 320 l 1,12,-1
192 64 m 1,16,-1
 256 64 l 1,17,-1
 256 0 l 1,18,-1
 192 0 l 1,19,-1
 128 0 l 1,20,-1
 64 0 l 1,21,-1
 64 64 l 1,22,-1
 128 64 l 1,23,-1
 192 64 l 1,16,-1
256 64 m 1,24,-1
 256 128 l 1,25,-1
 256 192 l 1,26,-1
 320 192 l 1,27,-1
 320 128 l 1,28,-1
 320 64 l 1,29,-1
 256 64 l 1,24,-1
64 64 m 1,30,-1
 0 64 l 1,31,-1
 0 128 l 1,32,-1
 64 128 l 1,33,-1
 64 64 l 1,30,-1
256 192 m 1,34,-1
 192 192 l 1,35,-1
 128 192 l 1,36,-1
 64 192 l 1,37,-1
 64 256 l 1,38,-1
 128 256 l 1,39,-1
 192 256 l 1,40,-1
 256 256 l 1,41,-1
 256 192 l 1,34,-1
64 256 m 1,42,-1
 0 256 l 1,43,-1
 0 320 l 1,44,-1
 0 384 l 1,45,-1
 64 384 l 1,46,-1
 64 320 l 1,47,-1
 64 256 l 1,42,-1
256 384 m 1,48,-1
 192 384 l 1,49,-1
 128 384 l 1,50,-1
 64 384 l 1,51,-1
 64 448 l 1,52,-1
 128 448 l 1,53,-1
 192 448 l 1,54,-1
 256 448 l 1,55,-1
 256 384 l 1,48,-1
EndSplineSet
Validated: 5
EndChar

StartChar: ubreve
Encoding: 365 365 240
Width: 384
Flags: W
LayerCount: 2
Fore
SplineSet
192 512 m 5,0,-1
 192 576 l 5,1,-1
 256 576 l 5,2,-1
 256 512 l 5,3,-1
 192 512 l 5,0,-1
64 512 m 5,4,-1
 64 576 l 5,5,-1
 128 576 l 5,6,-1
 128 512 l 5,7,-1
 64 512 l 5,4,-1
192 576 m 5,8,-1
 128 576 l 5,9,-1
 128 640 l 5,10,-1
 192 640 l 5,11,-1
 192 576 l 5,8,-1
192 64 m 1,12,-1
 256 64 l 1,13,-1
 256 0 l 1,14,-1
 192 0 l 1,15,-1
 128 0 l 1,16,-1
 64 0 l 1,17,-1
 64 64 l 1,18,-1
 128 64 l 1,19,-1
 192 64 l 1,12,-1
256 64 m 1,20,-1
 256 128 l 1,21,-1
 256 192 l 1,22,-1
 256 256 l 1,23,-1
 256 320 l 1,24,-1
 256 384 l 1,25,-1
 256 448 l 1,26,-1
 320 448 l 1,27,-1
 320 384 l 1,28,-1
 320 320 l 1,29,-1
 320 256 l 1,30,-1
 320 192 l 1,31,-1
 320 128 l 1,32,-1
 320 64 l 1,33,-1
 256 64 l 1,20,-1
64 64 m 1,34,-1
 0 64 l 1,35,-1
 0 128 l 1,36,-1
 0 192 l 1,37,-1
 0 256 l 1,38,-1
 0 320 l 1,39,-1
 0 384 l 1,40,-1
 0 448 l 1,41,-1
 64 448 l 1,42,-1
 64 384 l 1,43,-1
 64 320 l 1,44,-1
 64 256 l 1,45,-1
 64 192 l 1,46,-1
 64 128 l 1,47,-1
 64 64 l 1,34,-1
EndSplineSet
Validated: 5
EndChar

StartChar: Uring
Encoding: 366 366 241
Width: 384
Flags: W
LayerCount: 2
Fore
SplineSet
192 384 m 5,0,-1
 192 448 l 5,1,-1
 256 448 l 5,2,-1
 256 384 l 5,3,-1
 192 384 l 5,0,-1
64 384 m 5,4,-1
 64 448 l 5,5,-1
 128 448 l 5,6,-1
 128 384 l 5,7,-1
 64 384 l 5,4,-1
192 448 m 5,8,-1
 128 448 l 5,9,-1
 128 512 l 5,10,-1
 192 512 l 5,11,-1
 192 448 l 5,8,-1
256 0 m 1,12,-1
 256 64 l 1,13,-1
 192 64 l 1,14,-1
 192 0 l 1,15,-1
 128 0 l 1,16,-1
 64 0 l 1,17,-1
 64 64 l 1,18,-1
 128 64 l 1,19,-1
 192 64 l 1,20,-1
 192 128 l 1,21,-1
 256 128 l 1,22,-1
 256 192 l 1,23,-1
 256 256 l 1,24,-1
 256 320 l 1,25,-1
 320 320 l 1,26,-1
 320 256 l 1,27,-1
 320 192 l 1,28,-1
 320 128 l 1,29,-1
 320 64 l 1,30,-1
 320 0 l 1,31,-1
 256 0 l 1,12,-1
64 64 m 1,32,-1
 0 64 l 1,33,-1
 0 128 l 1,34,-1
 0 192 l 1,35,-1
 0 256 l 1,36,-1
 0 320 l 1,37,-1
 64 320 l 1,38,-1
 64 256 l 1,39,-1
 64 192 l 1,40,-1
 64 128 l 1,41,-1
 64 64 l 1,32,-1
EndSplineSet
Validated: 5
EndChar
